<svg width="452" height="314" viewBox="0 0 452 314" fill="none" xmlns="http://www.w3.org/2000/svg">
<g clip-path="url(#clip0_4705_8240)">
<path d="M13.9323 121.172L4.89583 86.0573C3.40625 80.1511 1.42708 74 0.624998 67.9896C0.0156229 63.4271 11.0104 65.0104 13.6094 65.0156L32.9167 65.0365C35.6094 67.0417 37.9271 69.8906 40.2552 72.3073L55.375 88.2292C61.651 94.9219 80.4115 115.516 87.4688 120.318C91.2917 128.401 84.1146 125.911 78.276 125.901L33.7031 125.891C26.9323 125.891 18.0521 127.964 13.9271 121.172H13.9323Z" fill="#0057A3"/>
<path d="M178.5 0.5H256.5L316 120.5H238.5L178.5 0.5Z" fill="#0057A3"/>
<path d="M231.5 144.5H312L393.5 313.5H312L231.5 144.5Z" fill="#0057A3"/>
<path d="M241.151 0.53125H257.255C262.755 11.3385 267.75 22.4063 273.495 33.0885C279.01 47.6146 287.432 60.7344 293.292 75.0312C298.385 84.8906 303.922 95.0625 308.114 105.312C305.463 105.51 302.667 105.333 300 105.328L265.177 105.307C256.521 105.297 240.094 106.219 243.552 91.8021C246.864 77.9948 261.927 86.7344 269.536 81.9531C272.901 79.8385 274.062 75.724 271.864 72.3854C267.042 65.0417 244.463 70.2656 235.432 68.0729C229.245 66.5677 224.948 60.3802 226.901 54.0781C230.917 41.0885 243.552 49.7031 251.208 45.3542C255.864 42.7083 256.76 36.2552 253.963 31.9844C251.078 27.5781 245.005 28.224 240.479 28.2396L225.052 28.2969C216.031 28.3385 203.25 27.7292 206.776 14.5573C211.161 -1.89063 237.864 16.0573 241.151 0.53125Z" fill="#F9A51C"/>
<path d="M283.974 144.891C290.365 145.214 310.787 142.49 312.781 146.844C305.443 148.286 293.677 145.979 283.974 147.719V144.891Z" fill="#F9A51C"/>
<path fill-rule="evenodd" clip-rule="evenodd" d="M358.396 119.682C378.36 119.682 406.427 119.505 423.609 131.64C421.265 132.984 411.057 130.979 406.906 132.948C401.443 135.537 406.896 147.469 412.156 148.479C417.253 149.469 438.908 148.157 443.617 145.791L443.828 145.677C449.687 151.844 456.198 163.88 448.068 170.948C434.506 182.734 383.292 180.646 364.406 180.64L346.412 180.651C341.1 180.651 335.433 181.073 330.209 179.896C331.131 184.229 333.62 188.338 335.521 192.312L346.12 214.099C356.781 236.182 366.839 258.63 378.172 280.375C382.318 291.135 389.755 302.662 392.906 313.292C386.021 313.677 378.958 313.286 372.047 313.281L314.198 313.292L293.422 270.953C291.703 267.488 285.615 252.334 282.87 250.964C275.089 251.427 267.016 250.979 259.209 250.964H162.312C152.401 270.74 142.479 294.432 131.687 313.292C123.49 313.568 115.192 313.281 106.984 313.281L57.7557 313.292C57.7576 313.286 57.7587 313.28 57.7606 313.275L106.99 313.265C115.198 313.265 123.495 313.552 131.693 313.276C142.485 294.417 152.402 270.724 162.318 250.948H259.214C267.026 250.964 275.094 251.411 282.875 250.948C285.62 252.318 291.709 267.473 293.428 270.937L314.203 313.276H328.709C325.907 310.099 323.922 306.291 325.62 302C329.792 291.475 344.974 298.599 351.922 295.265C356.135 293.244 357.683 287.708 355.537 283.672C350.823 274.807 324.755 281.443 314.75 278.354C309.776 276.818 306.829 270.885 308.474 266C312.532 254.001 325.87 261.943 333.678 257.881C340.239 254.469 337.953 244.131 331.303 242.167C323.975 240 306.214 243.823 296.604 241.167C291.005 239.615 288.099 233.823 289.693 228.437C293.194 216.553 308.058 224.536 315.787 220.12C322.166 216.463 320.391 206.667 313.787 204.468C304.923 201.531 287.834 205.516 278.709 203.177C273.318 201.797 269.75 195.646 271.265 190.287C275.62 174.923 299.881 191.052 303.412 176.687C304.193 173.526 303 170.948 301.412 168.302C297.516 165.631 294.396 165.813 289.756 165.787L274.214 165.807C267 165.818 253.922 165.922 253.573 155.318C253.271 146.094 261.021 147.688 267.5 147.698H283.974V144.881H232.136V144.89C237.854 156.14 244.297 167.615 248.896 179.381C238.12 182.297 222.229 181.5 210.984 180.562C206.714 180.208 200.537 179.031 196.459 179.89C182.131 179.062 167.651 176.693 153.448 174.74C144.625 173.526 135.536 172.776 126.828 171.047C126.826 171.051 126.822 171.056 126.82 171.061C106.476 167.134 70.2385 162.156 51.3905 154.937C50.0106 154.64 48.6513 154.391 47.2557 154.182C42.4172 153.667 21.4479 147.37 16.5624 144.906C14.3386 144.864 12.3698 144.079 10.0418 144.24C-2.26024 138.75 -2.86408 139.687 6.67759 129.25C9.10959 126.589 11.3231 123.693 13.9217 121.193C18.0415 127.985 26.9273 125.912 33.6981 125.912L78.2713 125.922C84.1098 125.932 91.2865 128.422 87.4637 120.339H88.7811C102.224 120.125 124.177 121.875 136.636 120.339C144.413 120.365 204.948 120.984 206.886 119.718C209.693 121.14 233.308 120.151 238.37 120.339C243.24 120.479 248.172 120.339 253.047 120.339L300.178 120.349C305.261 120.349 310.334 120.5 315.37 119.718L315.375 119.698L315.865 119.74C320.459 120.084 325.182 119.693 329.797 119.682H358.396ZM375.447 144.218C368.911 145.766 369.672 155.244 376.786 154.922C383.562 152.562 382.754 144.094 375.447 144.218ZM332.302 144.218C325.281 145.536 324.723 153.521 332.302 154.922C338.744 153.494 338.926 144.969 332.302 144.218ZM356.311 154.922C362.321 152.156 361.713 143.688 354.255 144.218C347.359 146.698 349.046 154.244 356.311 154.922Z" fill="#F9A51C"/>
<path d="M87.4588 252.896C83.0736 259.547 77.4693 271.984 73.9276 279.515C72.537 282.474 71.0418 286.901 69.1668 289.396L62.4061 303.307C60.8284 306.509 59.0514 309.73 57.829 313.09C59.0467 309.725 60.8268 306.498 62.412 303.292L69.1717 289.381C71.0467 286.886 72.5419 282.458 73.9325 279.5C77.4741 271.969 83.0827 259.532 87.4627 252.881C87.4613 252.886 87.4603 252.891 87.4588 252.896Z" fill="#F9A51C"/>
<path d="M90.1043 246.374C89.0762 248.463 88.1236 250.59 87.4803 252.825C88.119 250.59 89.0737 248.463 90.1043 246.374Z" fill="#F9A51C"/>
<path d="M126.823 171.062C123.584 177.953 119.724 185.016 117.125 192.146C114.651 195.771 112.958 200.12 110.995 204.052L92.1043 242.401C91.5119 243.597 90.8932 244.79 90.2938 245.994C90.8944 244.785 91.5142 243.587 92.1092 242.385L111 204.037C112.963 200.105 114.657 195.75 117.131 192.131C119.723 185.006 123.577 177.947 126.82 171.061L126.823 171.062Z" fill="#F9A51C"/>
<path d="M31.6302 134.036C39.5469 135.776 52.4219 137.651 60.6615 138.516C55.8594 143.401 51.3125 148.635 47.2657 154.161C42.4271 153.646 21.4584 147.344 16.5729 144.885C21.9844 142.411 27.0104 137.766 31.6302 134.036Z" fill="#0057A3"/>
</g>
<defs>
<clipPath id="clip0_4705_8240">
<rect width="452" height="314" fill="white"/>
</clipPath>
</defs>
</svg>
