<svg width="652" height="451" viewBox="0 0 652 451" fill="none" xmlns="http://www.w3.org/2000/svg">
<path d="M499.735 259.55H525.771C553.15 259.55 626.974 262.506 646.435 245.714C658.32 235.501 648.748 218.026 640.186 209.141L639.534 209.466C633.611 213.083 601.287 215.061 593.703 213.44C586.118 212.105 578.208 194.66 586.118 191.021C592.041 188.057 606.884 191.021 610.175 189.034C585.435 171.559 544.914 171.885 516.207 171.885H474.995C468.389 171.885 461.487 172.536 454.881 171.885H454.229C446.971 172.862 439.713 172.862 432.486 172.862H343.463C336.204 172.862 302.25 174.197 297.957 171.885C295.318 173.871 207.956 172.862 196.754 172.862C178.954 175.175 147.313 172.862 127.844 172.862H125.865C131.462 184.386 120.912 180.77 112.676 180.77H48.3926C38.4951 180.77 25.966 183.734 20.0431 173.84C16.4256 177.456 13.1109 181.748 9.49347 185.364C-4.33975 200.527 -3.36164 199.192 14.4461 207.1C17.7298 207.1 20.6951 208.077 24.0098 208.077C30.942 211.686 61.2788 220.602 68.1799 221.58C68.242 221.58 68.273 221.58 68.3274 221.58C60.0057 220.067 31.8347 211.748 25.1665 208.256C24.9569 208.256 24.7783 208.225 24.5765 208.225C32.4557 204.578 39.6828 198.036 46.2579 192.767C57.7855 195.398 76.2687 198.036 88.1224 199.371C81.2446 206.238 74.7006 213.758 68.7776 221.642C70.5553 221.758 72.3329 222.294 74.0796 222.589C101.125 233.127 153.531 240.057 182.859 245.985C195.396 248.616 208.577 249.594 221.106 251.254C241.553 254.219 262.319 257.501 283.084 258.836C289.007 257.501 297.926 259.162 304.175 259.814C320.322 261.148 343.4 262.452 358.895 258.153C352.289 241.329 343.074 224.544 334.838 208.403H409.671V212.369H385.94C376.703 212.369 365.501 210.056 365.827 223.241C366.479 238.404 385.288 238.404 395.512 238.404H417.938C424.545 238.404 429.132 238.404 434.768 242.012C437.074 245.985 438.735 249.594 437.726 254.219C432.781 274.977 397.499 251.58 391.242 273.673C388.937 281.255 394.208 290.14 402.118 292.119C415.299 295.409 440.039 289.814 452.568 294.105C462.14 297.395 464.779 311.255 455.533 316.524C444.332 322.771 422.883 311.255 417.938 328.397C415.625 336.304 419.926 344.538 427.836 346.85C441.669 350.815 467.379 345.189 477.96 348.185C487.524 351.141 490.815 365.979 481.244 370.929C470.05 376.85 450.589 365.327 444.984 382.802C442.678 389.732 446.971 398.291 453.872 400.604C468.389 405.221 505.952 395.653 512.559 408.185C515.524 414.106 513.537 422.014 507.288 425.001C497.39 429.952 475.321 419.406 469.367 434.569C467.053 440.816 469.693 446.093 473.659 450.71H536.289C546.187 450.71 556.403 451.362 566.3 450.71C561.681 435.221 551.132 418.755 545.209 403.265C528.736 371.962 514.22 339.656 499.051 307.701L483.883 276.397C481.244 270.802 477.634 264.873 476.299 258.595C483.883 260.256 492.119 259.573 499.703 259.573L499.735 259.55ZM540.613 207.154C551.163 207.154 552.498 219.035 542.6 222.643C532.377 222.969 531.399 209.466 540.613 207.154ZM508.654 207.154C519.522 206.502 520.174 218.678 511.612 222.643C501.07 221.665 498.756 210.77 508.654 207.154ZM478.643 222.643C467.767 220.664 468.42 209.141 478.643 207.154C488.207 208.132 487.881 220.664 478.643 222.643Z" fill="#FFA500"/>
<path d="M351.016 0H371.751C378.861 13.9215 385.382 28.4327 392.788 42.0516C399.898 61.0094 410.859 77.8874 418.56 96.2477C425.081 108.982 432.486 122.314 437.819 135.343H382.417C371.161 135.343 349.829 136.53 354.277 117.867C358.422 100.097 377.976 111.356 388.045 105.133C392.493 102.471 393.975 97.1401 391.01 92.6936C384.784 83.2186 355.457 90.0319 343.906 87.0675C335.91 84.9956 330.274 77.0028 332.945 69.0022C338.278 52.1241 354.572 63.3762 364.345 57.7501C370.268 54.196 371.456 45.9083 367.9 40.5772C364.05 34.9512 356.349 35.8358 350.426 35.8358H330.577C319.018 35.8358 302.429 35.2461 306.877 18.0653C312.505 -3.25921 347.166 20.1373 351.311 0H351.016Z" fill="#FFA500"/>
</svg>
