<svg width="2006" height="1190" viewBox="0 0 2006 1190" fill="none" xmlns="http://www.w3.org/2000/svg">
<path d="M2006 1190H0V0H2006V1190ZM1003.16 582.424C1011.35 598.474 1020.51 615.165 1027.08 631.895C1026.98 631.923 1026.87 631.949 1026.77 631.978C1030.01 637.824 1032.91 643.957 1035.5 650.121H943.425C946.343 644.279 948.948 638.405 951.552 632.562C930.953 631.229 910.356 627.975 890.073 625.034C877.615 623.383 864.509 622.411 852.043 619.795C852.014 619.789 851.984 619.783 851.955 619.777C847.392 629.594 841.815 639.725 838.234 649.863C834.637 655.103 832.336 661.345 829.396 666.916L802.172 721.981C799.879 726.897 797.255 731.82 795.604 737.06C789.359 746.574 781.169 764.268 776.252 775.079C774.276 779.346 771.984 785.589 769.359 789.185L759.519 809.179C757.226 814.102 754.601 818.693 752.949 823.608H823.444C835.254 823.608 847.041 823.932 858.851 823.608C874.257 796.4 888.661 762.647 902.771 734.143H1041.75C1052.88 734.143 1064.37 734.791 1075.51 734.143C1079.45 736.119 1087.97 757.732 1090.59 762.647L1120.43 823.284H1141.08C1137.13 818.693 1134.51 813.453 1136.81 807.233C1142.73 792.156 1164.68 802.642 1174.52 797.727L1174.57 797.75C1180.79 794.779 1182.76 786.916 1179.82 781.028C1179.47 780.367 1179.04 779.768 1178.52 779.226C1169.27 769.626 1135.16 777.886 1121.52 773.547C1119.79 772.968 1118.23 771.995 1116.9 770.754C1112.88 767.07 1110.9 760.971 1112.63 755.788C1118.19 738.418 1137.54 749.869 1148.68 743.981C1156.53 739.924 1155.68 729.162 1149.78 723.871C1148.55 722.779 1147.1 721.927 1145.47 721.422C1134.95 718.443 1109.39 724.037 1095.63 720.094C1093.53 719.479 1091.68 718.442 1090.15 717.103C1085.91 713.444 1084.04 707.481 1085.73 701.694C1090.65 684.641 1111.98 696.1 1123.11 689.881C1130.56 685.634 1130.25 675.778 1124.8 670.452C1123.54 669.233 1122 668.255 1120.22 667.645C1107.76 663.378 1083.16 668.942 1070.06 665.67C1067.72 665.085 1065.62 663.895 1063.87 662.312C1059.71 658.568 1057.57 652.596 1059.19 647.271C1065.4 625.302 1100.49 648.567 1105.41 627.925C1106.4 623.336 1104.77 619.754 1102.48 615.814C1096.89 612.256 1092.34 612.256 1085.79 612.256H1063.49C1056.02 612.256 1043.94 612.256 1037.8 606.27C1035.55 604.106 1034.09 601.152 1033.91 597.12C1033.59 584.018 1044.73 586.31 1053.92 586.31H1077.52V582.424H1003.16ZM693.947 582.421L693.916 582.451C700.786 586.047 730.943 595.237 737.836 595.886C737.927 595.766 738.018 595.646 738.109 595.526H738.014C731.234 594.566 701.705 585.898 694.352 582.229C694.217 582.293 694.083 582.359 693.947 582.421ZM715.928 567.106C709.467 572.305 702.377 578.673 694.657 582.246C694.858 582.246 695.036 582.277 695.244 582.277C701.863 585.744 729.785 593.991 738.115 595.518C743.969 587.788 750.409 580.376 757.194 573.593C745.53 572.279 727.412 569.695 715.928 567.106ZM689.354 468.046C685.433 468.046 669.702 465.747 670.675 472.313C671.972 480.825 674.596 489.691 676.889 498.202L689.905 548.302C689.987 548.219 690.068 548.136 690.149 548.055C696.039 557.893 708.498 554.945 718.339 554.945H782.258C787.04 554.945 792.604 556.169 795.301 554.908C796.811 553.877 797.013 551.698 794.9 547.349C785.059 540.457 757.843 510.981 749.005 501.467L727.385 478.525C724.112 474.937 720.84 470.986 716.896 468.046H689.354ZM689.759 548.45C689.762 548.447 689.765 548.444 689.768 548.441L689.729 548.403C689.739 548.419 689.749 548.434 689.759 548.45ZM949.607 375.633H949.724C940.268 390.773 928.574 417.04 921.419 433.646C919.767 437.241 918.146 441.185 916.178 444.781C907.016 463.131 895.522 492.956 885.04 509.006C882.092 514.924 879.143 520.495 876.202 526.383L876.172 526.414C872.899 533.305 869.279 540.165 866.33 547.056C876.594 547.056 951.048 547.875 964.789 546.476C965.723 546.366 966.307 546.246 966.488 546.109C966.535 546.135 966.587 546.157 966.641 546.182C966.681 546.169 966.718 546.158 966.751 546.146C966.74 546.165 966.726 546.188 966.712 546.215C971.812 548.367 1004.63 547.082 1011.74 547.082H1011.78C1011.77 547.063 1011.76 547.044 1011.76 547.024H1100.73C1107.42 547.024 1114.14 547.023 1120.86 546.237C1121.2 546.196 1121.54 546.155 1121.88 546.109H1121.9C1122.05 546.09 1122.2 546.073 1122.35 546.053C1119.4 539.162 1115.81 531.978 1111.86 525.411C1109.74 520.222 1107.32 514.995 1104.76 509.772H1050.47C1039.28 509.772 1018.07 510.953 1022.49 492.395C1026.61 474.724 1046.05 485.921 1056.06 479.732C1060.49 477.086 1061.96 471.784 1059.01 467.362C1052.82 457.94 1023.66 464.716 1012.18 461.769C1004.23 459.708 998.622 451.759 1001.28 443.804C1006.58 427.021 1022.78 438.209 1032.5 432.615C1038.39 429.081 1039.57 420.839 1036.03 415.538C1032.21 409.944 1024.55 410.823 1018.66 410.823H998.923C987.43 410.823 970.935 410.237 975.357 393.152C980.912 372.107 1014.9 394.866 1019.44 375.633H1015.83C993.883 375.633 971.645 375.957 949.724 375.633C949.785 375.548 949.932 375.309 949.932 375.309L949.607 375.633ZM989.29 498.699C992.524 502.912 1009.11 539.543 1011.79 546.874C1003.75 546.936 971.174 548.147 966.99 545.901C966.959 545.932 966.844 545.994 966.782 545.994C972.672 533.154 981.479 509.48 988.966 498.73V498.699H989.29Z" fill="#0057A3"/>
</svg>
