<svg width="2006" height="1190" viewBox="0 0 2006 1190" fill="none" xmlns="http://www.w3.org/2000/svg">
<path d="M2006 1190H0V0H2006V1190ZM1003.16 582.424C1011.35 598.474 1020.51 615.165 1027.08 631.895C1026.98 631.923 1026.87 631.949 1026.77 631.978C1030.01 637.824 1032.91 643.957 1035.5 650.121H943.425C946.343 644.279 948.948 638.405 951.552 632.562C930.953 631.229 910.356 627.975 890.073 625.034C877.615 623.383 864.509 622.411 852.043 619.795C852.014 619.789 851.984 619.783 851.955 619.777C847.392 629.594 841.815 639.725 838.234 649.863C834.637 655.103 832.336 661.345 829.396 666.916L802.172 721.981C799.879 726.897 797.255 731.82 795.604 737.06C789.359 746.574 781.169 764.268 776.252 775.079C774.276 779.346 771.984 785.589 769.359 789.185L759.519 809.179C757.226 814.102 754.601 818.693 752.949 823.608H823.444C835.254 823.608 847.041 823.932 858.851 823.608C874.257 796.4 888.661 762.647 902.771 734.143H1041.75C1052.88 734.143 1064.37 734.791 1075.51 734.143C1079.45 736.119 1087.97 757.732 1090.59 762.647L1120.43 823.284H1141.08C1137.13 818.693 1134.51 813.453 1136.81 807.233C1142.73 792.156 1164.68 802.642 1174.52 797.727L1174.57 797.75C1180.79 794.779 1182.76 786.916 1179.82 781.028C1179.47 780.367 1179.04 779.768 1178.52 779.226C1169.27 769.626 1135.16 777.886 1121.52 773.547C1119.79 772.968 1118.23 771.995 1116.9 770.754C1112.88 767.07 1110.9 760.971 1112.63 755.788C1118.19 738.418 1137.54 749.869 1148.68 743.981C1156.53 739.924 1155.68 729.162 1149.78 723.871C1148.55 722.779 1147.1 721.927 1145.47 721.422C1134.95 718.443 1109.39 724.037 1095.63 720.094C1093.53 719.479 1091.68 718.442 1090.15 717.103C1085.91 713.444 1084.04 707.481 1085.73 701.694C1090.65 684.641 1111.98 696.1 1123.11 689.881C1130.56 685.634 1130.25 675.778 1124.8 670.452C1123.54 669.233 1122 668.255 1120.22 667.645C1107.76 663.378 1083.16 668.942 1070.06 665.67C1067.72 665.085 1065.62 663.895 1063.87 662.312C1059.71 658.568 1057.57 652.596 1059.19 647.271C1065.4 625.302 1100.49 648.567 1105.41 627.925C1106.4 623.336 1104.77 619.754 1102.48 615.814C1096.89 612.256 1092.34 612.256 1085.79 612.256H1063.49C1056.02 612.256 1043.94 612.256 1037.8 606.27C1035.55 604.106 1034.09 601.152 1033.91 597.12C1033.59 584.018 1044.73 586.31 1053.92 586.31H1077.52V582.424H1003.16ZM693.947 582.421L693.916 582.451C700.786 586.047 730.943 595.237 737.836 595.886C737.927 595.766 738.018 595.646 738.109 595.526H738.014C731.234 594.566 701.705 585.898 694.352 582.229C694.217 582.293 694.083 582.359 693.947 582.421ZM715.928 567.106C709.467 572.305 702.377 578.673 694.657 582.246C694.858 582.246 695.036 582.277 695.244 582.277C701.863 585.744 729.785 593.991 738.115 595.518C743.969 587.788 750.409 580.376 757.194 573.593C745.53 572.279 727.412 569.695 715.928 567.106ZM689.354 468.046C685.433 468.046 669.702 465.747 670.675 472.313C671.972 480.825 674.596 489.691 676.889 498.202L689.905 548.302C689.987 548.219 690.068 548.136 690.149 548.055C696.039 557.893 708.498 554.945 718.339 554.945H782.258C787.04 554.945 792.604 556.169 795.301 554.908C796.811 553.877 797.013 551.698 794.9 547.349C785.059 540.457 757.843 510.981 749.005 501.467L727.385 478.525C724.112 474.937 720.84 470.986 716.896 468.046H689.354ZM689.759 548.45C689.762 548.447 689.765 548.444 689.768 548.441L689.729 548.403C689.739 548.419 689.749 548.434 689.759 548.45ZM949.607 375.633H949.724C940.268 390.773 928.574 417.04 921.419 433.646C919.767 437.241 918.146 441.185 916.178 444.781C907.016 463.131 895.522 492.956 885.04 509.006C882.092 514.924 879.143 520.495 876.202 526.383L876.172 526.414C872.899 533.305 869.279 540.165 866.33 547.056C876.594 547.056 951.048 547.875 964.789 546.476C965.723 546.366 966.307 546.246 966.488 546.109C966.535 546.135 966.587 546.157 966.641 546.182C966.681 546.169 966.718 546.158 966.751 546.146C966.74 546.165 966.726 546.188 966.712 546.215C971.812 548.367 1004.63 547.082 1011.74 547.082H1011.78C1011.77 547.063 1011.76 547.044 1011.76 547.024H1100.73C1107.42 547.024 1114.14 547.023 1120.86 546.237C1121.2 546.196 1121.54 546.155 1121.88 546.109H1121.9C1122.05 546.09 1122.2 546.073 1122.35 546.053C1119.4 539.162 1115.81 531.978 1111.86 525.411C1109.74 520.222 1107.32 514.995 1104.76 509.772H1050.47C1039.28 509.772 1018.07 510.953 1022.49 492.395C1026.61 474.724 1046.05 485.921 1056.06 479.732C1060.49 477.086 1061.96 471.784 1059.01 467.362C1052.82 457.94 1023.66 464.716 1012.18 461.769C1004.23 459.708 998.622 451.759 1001.28 443.804C1006.58 427.021 1022.78 438.209 1032.5 432.615C1038.39 429.081 1039.57 420.839 1036.03 415.538C1032.21 409.944 1024.55 410.823 1018.66 410.823H998.923C987.43 410.823 970.935 410.237 975.357 393.152C980.912 372.107 1014.9 394.866 1019.44 375.633H1015.83C993.883 375.633 971.645 375.957 949.724 375.633C949.785 375.548 949.932 375.309 949.932 375.309L949.607 375.633ZM989.29 498.699C992.524 502.912 1009.11 539.543 1011.79 546.874C1003.75 546.936 971.174 548.147 966.99 545.901C966.959 545.932 966.844 545.994 966.782 545.994C972.672 533.154 981.479 509.48 988.966 498.73V498.699H989.29Z" fill="#0057A3"/>
<path d="M1167.73 633.55H1193.77C1221.15 633.55 1294.97 636.506 1314.43 619.714C1326.32 609.501 1316.75 592.026 1308.19 583.141L1307.53 583.466C1301.61 587.083 1269.29 589.061 1261.7 587.44C1254.12 586.105 1246.21 568.66 1254.12 565.021C1260.04 562.057 1274.88 565.021 1278.18 563.034C1253.44 545.559 1212.91 545.885 1184.21 545.885H1142.99C1136.39 545.885 1129.49 546.536 1122.88 545.885H1122.23C1114.97 546.862 1107.71 546.862 1100.49 546.862H1011.46C1004.2 546.862 970.25 548.197 965.957 545.885C963.318 547.871 875.956 546.862 864.754 546.862C846.954 549.175 815.313 546.862 795.844 546.862H793.865C799.462 558.386 788.912 554.77 780.676 554.77H716.393C706.495 554.77 693.966 557.734 688.043 547.84C684.426 551.456 681.111 555.748 677.493 559.364C663.66 574.527 664.638 573.192 682.446 581.1C685.73 581.1 688.695 582.077 692.01 582.077C698.942 585.686 729.279 594.602 736.18 595.58C736.242 595.58 736.273 595.58 736.327 595.58C728.006 594.067 699.835 585.748 693.166 582.256C692.957 582.256 692.778 582.225 692.576 582.225C700.456 578.578 707.683 572.036 714.258 566.767C725.786 569.398 744.269 572.036 756.122 573.371C749.245 580.238 742.701 587.758 736.778 595.642C738.555 595.758 740.333 596.294 742.08 596.589C769.125 607.127 821.531 614.057 850.859 619.985C863.396 622.616 876.577 623.594 889.106 625.254C909.553 628.219 930.319 631.501 951.084 632.836C957.007 631.501 965.926 633.162 972.175 633.814C988.322 635.148 1011.4 636.452 1026.89 632.153C1020.29 615.329 1011.07 598.544 1002.84 582.403H1077.67V586.369H1053.94C1044.7 586.369 1033.5 584.056 1033.83 597.241C1034.48 612.404 1053.29 612.404 1063.51 612.404H1085.94C1092.54 612.404 1097.13 612.404 1102.77 616.012C1105.07 619.985 1106.73 623.594 1105.73 628.219C1100.78 648.977 1065.5 625.58 1059.24 647.673C1056.94 655.255 1062.21 664.14 1070.12 666.119C1083.3 669.409 1108.04 663.814 1120.57 668.105C1130.14 671.395 1132.78 685.255 1123.53 690.524C1112.33 696.771 1090.88 685.255 1085.94 702.397C1083.63 710.304 1087.93 718.538 1095.84 720.85C1109.67 724.815 1135.38 719.189 1145.96 722.185C1155.52 725.141 1158.82 739.979 1149.24 744.929C1138.05 750.85 1118.59 739.327 1112.98 756.802C1110.68 763.732 1114.97 772.291 1121.87 774.604C1136.39 779.221 1173.95 769.653 1180.56 782.185C1183.52 788.106 1181.54 796.014 1175.29 799.001C1165.39 803.952 1143.32 793.406 1137.37 808.569C1135.05 814.816 1137.69 820.093 1141.66 824.71H1204.29C1214.19 824.71 1224.4 825.362 1234.3 824.71C1229.68 809.221 1219.13 792.755 1213.21 777.265C1196.74 745.962 1182.22 713.656 1167.05 681.701L1151.88 650.397C1149.24 644.802 1145.63 638.873 1144.3 632.595C1151.88 634.256 1160.12 633.573 1167.7 633.573L1167.73 633.55ZM1208.61 581.154C1219.16 581.154 1220.5 593.035 1210.6 596.643C1200.38 596.969 1199.4 583.466 1208.61 581.154ZM1176.65 581.154C1187.52 580.502 1188.17 592.678 1179.61 596.643C1169.07 595.665 1166.76 584.77 1176.65 581.154ZM1146.64 596.643C1135.77 594.664 1136.42 583.141 1146.64 581.154C1156.21 582.132 1155.88 594.664 1146.64 596.643Z" fill="#FFA500"/>
<path d="M1019.02 374H1039.75C1046.86 387.921 1053.38 402.433 1060.79 416.052C1067.9 435.009 1078.86 451.887 1086.56 470.248C1093.08 482.982 1100.49 496.314 1105.82 509.343H1050.42C1039.16 509.343 1017.83 510.53 1022.28 491.867C1026.42 474.097 1045.98 485.356 1056.04 479.133C1060.49 476.471 1061.98 471.14 1059.01 466.694C1052.78 457.219 1023.46 464.032 1011.91 461.068C1003.91 458.996 998.274 451.003 1000.94 443.002C1006.28 426.124 1022.57 437.376 1032.34 431.75C1038.27 428.196 1039.46 419.908 1035.9 414.577C1032.05 408.951 1024.35 409.836 1018.43 409.836H998.577C987.018 409.836 970.429 409.246 974.877 392.065C980.505 370.741 1015.17 394.137 1019.31 374H1019.02Z" fill="#FFA500"/>
</svg>
