<svg width="682" height="659" viewBox="0 0 682 659" fill="none" xmlns="http://www.w3.org/2000/svg">
<path d="M245.333 2.06533C181.333 5.132 100.933 12.4653 84.5333 16.5987C72 19.7987 50.6667 30.8653 39.8667 39.7987C23.0667 53.7987 9.73333 74.8653 3.06667 97.932L0 108.599V355.265V601.932L3.06667 610.599C6.53333 620.865 11.7333 628.999 20.1333 637.532C41.6 659.399 72.6667 664.465 101.467 650.999C116.4 644.065 134.133 622.999 137.333 608.332C137.733 605.932 138.533 603.932 138.933 603.932C139.2 603.932 148.267 606.332 158.933 609.265C225.067 627.399 273.2 633.932 340.667 633.932C408.133 633.932 456.267 627.399 522.4 609.265C533.067 606.332 542.133 603.932 542.4 603.932C542.8 603.932 543.6 605.932 544 608.332C547.2 622.999 564.933 644.065 579.867 650.999C596.667 658.865 617.733 660.599 633.067 655.399C653.733 648.199 671.333 630.865 678.267 610.599L681.333 601.932V355.265V108.599L678.267 97.932C668.667 64.732 648.267 39.7987 618.667 25.2653C601.067 16.5987 594.133 14.9987 556.8 11.132C456.8 0.731997 340.133 -2.60134 245.333 2.06533ZM428.667 25.2653C491.867 28.1987 575.067 35.532 590.667 39.3987C622.267 47.3987 647.2 72.732 655.333 104.865C658 114.999 658 120.065 657.733 357.932L657.333 600.599L653.867 607.932C649.467 617.265 640.667 626.065 631.333 630.465C625.067 633.399 622.133 633.932 611.333 633.932C600.4 633.932 597.6 633.399 591.333 630.465C582.133 626.065 573.6 617.532 568.933 607.932L565.333 600.599L564.667 368.332L564 135.932L560.533 132.599C557.333 129.399 555.733 128.999 530.533 126.599C473.333 121.132 395.067 117.265 340 117.265C285.6 117.265 209.2 120.999 150.8 126.599C125.6 128.999 124 129.265 120.8 132.599L117.333 135.932L116.667 368.332L116 600.599L112.267 608.065C107.333 618.199 96.6667 628.065 86.6667 631.799C75.7333 635.932 60.5333 635.399 50 630.465C40.6667 626.065 31.8667 617.265 27.4667 607.932L24 600.599L23.6 357.932C23.3333 120.065 23.3333 114.999 26 104.865C34.1333 72.732 59.0667 47.3987 90.6667 39.3987C105.467 35.6653 190.133 28.1987 248 25.3987C281.467 23.7987 395.6 23.7987 428.667 25.2653ZM458 144.465C474.533 145.532 499.867 147.532 514.4 148.732L540.667 150.999V365.265V579.532L526.4 583.665C461.067 602.599 403.6 611.132 340.667 611.132C277.467 611.132 220.533 602.732 155.067 583.665L140.667 579.532V364.999C140.667 158.732 140.8 150.599 143.067 150.599C144.4 150.599 159.333 149.399 176.133 148.065C202.267 145.799 232.4 143.932 270.667 142.065C296 140.865 430.267 142.599 458 144.465Z" fill="black"/>
</svg>
