<svg xmlns="http://www.w3.org/2000/svg" xmlns:xlink="http://www.w3.org/1999/xlink" width="300" zoomAndPan="magnify" viewBox="0 0 224.87999 225" height="300" preserveAspectRatio="xMidYMid meet" version="1.2"><g id="0581543eac"><path style=" stroke:none;fill-rule:nonzero;fill:#fea500;fill-opacity:1;" d="M 46.851562 15.050781 C 49.085938 15.871094 51.175781 17.023438 53.246094 18.191406 L 54.109375 18.675781 C 57.292969 20.464844 60.441406 22.3125 63.589844 24.160156 C 65.984375 25.558594 68.386719 26.949219 70.789062 28.332031 L 72.015625 29.039062 L 74.480469 30.460938 C 76.515625 31.632812 78.546875 32.804688 80.582031 33.980469 L 83.019531 35.386719 L 117.125 55.0625 L 118.34375 55.765625 L 120.777344 57.167969 C 123.636719 58.820312 126.496094 60.46875 129.351562 62.113281 L 130.558594 62.808594 C 133.828125 64.691406 137.085938 66.59375 140.339844 68.503906 L 141.402344 69.125 C 141.710938 69.304688 142.015625 69.484375 142.332031 69.671875 L 143.171875 70.148438 L 143.816406 70.546875 C 144.980469 71.023438 145.960938 70.988281 147.21875 70.988281 L 147.992188 70.992188 C 148.851562 70.992188 149.707031 70.988281 150.5625 70.988281 C 151.179688 70.988281 151.792969 70.988281 152.40625 70.988281 C 153.730469 70.992188 155.054688 70.992188 156.378906 70.988281 C 158.472656 70.984375 160.566406 70.988281 162.664062 70.996094 C 168.621094 71.007812 174.578125 71.015625 180.535156 71.011719 C 183.828125 71.007812 187.117188 71.011719 190.40625 71.023438 C 192.488281 71.03125 194.566406 71.03125 196.648438 71.023438 C 197.945312 71.019531 199.246094 71.027344 200.542969 71.035156 C 201.140625 71.035156 201.742188 71.035156 202.339844 71.03125 C 205.359375 71.007812 207.953125 71.085938 210.640625 72.605469 C 212 73.589844 213.121094 74.722656 214.011719 76.144531 C 214.894531 78.210938 215.277344 79.792969 215.285156 82.066406 L 215.292969 82.902344 C 215.300781 83.800781 215.300781 84.703125 215.296875 85.601562 L 215.304688 87.492188 C 215.308594 88.804688 215.304688 90.121094 215.300781 91.4375 C 215.300781 93.121094 215.304688 94.804688 215.316406 96.488281 C 215.324219 97.785156 215.324219 99.085938 215.320312 100.382812 C 215.320312 101.003906 215.324219 101.625 215.328125 102.246094 C 215.332031 103.113281 215.328125 103.980469 215.324219 104.847656 L 215.324219 106.339844 C 215.136719 107.628906 215.136719 107.628906 214.425781 108.71875 C 213.636719 109.5 213.636719 109.5 212.792969 109.804688 L 212.136719 109.875 L 213.042969 110.414062 C 215.335938 111.847656 217.121094 113.105469 218.492188 115.46875 C 219.460938 117.398438 219.8125 119.054688 219.746094 121.210938 C 219.40625 124.355469 217.519531 127.1875 215.910156 129.835938 L 214.617188 131.992188 L 213.945312 133.105469 C 212.804688 135 211.671875 136.902344 210.542969 138.804688 L 209.90625 139.871094 L 209.320312 140.859375 L 208.800781 141.730469 C 208.339844 142.519531 208.339844 142.519531 208.015625 143.609375 L 209.097656 143.613281 L 210.519531 143.65625 L 211.929688 143.679688 L 213.261719 143.984375 C 214.050781 144.746094 214.59375 145.304688 215.136719 146.230469 C 215.367188 147.546875 215.367188 147.546875 215.367188 149.015625 L 215.371094 149.828125 C 215.375 150.714844 215.367188 151.597656 215.359375 152.480469 C 215.355469 153.101562 215.355469 153.71875 215.359375 154.339844 C 215.355469 155.632812 215.351562 156.929688 215.339844 158.226562 C 215.324219 159.878906 215.320312 161.53125 215.324219 163.1875 C 215.324219 164.464844 215.320312 165.742188 215.316406 167.019531 C 215.3125 167.628906 215.3125 168.238281 215.3125 168.847656 C 215.308594 171.976562 215.285156 174.796875 214.011719 177.714844 C 213.125 179.140625 212.027344 180.285156 210.628906 181.21875 C 208.847656 182.167969 207.144531 182.59375 205.109375 182.582031 L 204.046875 182.511719 C 194.003906 181.464844 194.003906 181.464844 184.347656 183.339844 C 183.28125 184.082031 182.636719 184.933594 181.933594 186.019531 C 181.144531 187.761719 180.515625 189.511719 179.980469 191.347656 C 179.230469 193.609375 177.96875 195.542969 176.71875 197.554688 C 176.308594 198.261719 175.898438 198.96875 175.488281 199.675781 C 174.648438 201.101562 173.789062 202.519531 172.914062 203.925781 L 172.296875 204.921875 C 171.300781 206.332031 170.117188 207.515625 168.660156 208.449219 C 167.066406 209.097656 165.644531 209.339844 163.929688 209.386719 L 162.671875 209.445312 C 159.097656 209.148438 155.511719 206.324219 152.496094 204.535156 L 150.125 203.144531 L 148.898438 202.421875 C 146.886719 201.246094 144.867188 200.078125 142.84375 198.914062 L 141.621094 198.207031 L 139.15625 196.789062 C 136.71875 195.386719 134.285156 193.980469 131.851562 192.574219 C 129.296875 191.105469 126.746094 189.628906 124.195312 188.15625 L 121.703125 186.714844 L 119.558594 185.476562 L 118.4375 184.835938 L 117.738281 184.371094 C 116.1875 183.398438 114.914062 182.835938 113.070312 182.726562 C 112.320312 182.71875 111.570312 182.71875 110.820312 182.726562 L 109.5625 182.71875 C 108.175781 182.714844 106.789062 182.71875 105.402344 182.726562 C 104.40625 182.726562 103.410156 182.722656 102.414062 182.71875 C 100.273438 182.710938 98.128906 182.710938 95.988281 182.71875 C 92.886719 182.726562 89.785156 182.71875 86.6875 182.714844 C 81.648438 182.703125 76.613281 182.699219 71.578125 182.703125 C 66.695312 182.703125 61.8125 182.703125 56.929688 182.699219 L 56.019531 182.699219 C 52.730469 182.699219 49.445312 182.695312 46.160156 182.691406 L 45.285156 182.6875 L 41.820312 182.683594 C 38.441406 182.679688 35.0625 182.675781 31.6875 182.679688 C 29.566406 182.679688 27.449219 182.679688 25.328125 182.679688 C 24.105469 182.675781 22.886719 182.679688 21.664062 182.679688 C 20.339844 182.683594 19.011719 182.683594 17.6875 182.679688 L 16.523438 182.683594 C 14.027344 182.675781 11.816406 182.46875 9.53125 181.378906 C 7.847656 180.265625 6.65625 179.191406 5.613281 177.460938 C 4.6875 175.257812 4.402344 173.144531 4.386719 170.769531 L 4.382812 169.96875 C 4.375 169.105469 4.371094 168.242188 4.371094 167.378906 L 4.363281 165.566406 C 4.359375 164.304688 4.359375 163.042969 4.359375 161.78125 C 4.359375 160.164062 4.347656 158.546875 4.335938 156.933594 C 4.328125 155.6875 4.324219 154.4375 4.328125 153.191406 C 4.324219 152.597656 4.320312 152 4.316406 151.40625 C 4.308594 150.574219 4.308594 149.742188 4.316406 148.910156 L 4.3125 147.476562 C 4.496094 146.230469 4.496094 146.230469 5.210938 145.152344 C 5.996094 144.359375 5.996094 144.359375 6.746094 143.984375 C 7.558594 143.871094 8.371094 143.773438 9.183594 143.679688 C 12.648438 143.195312 15.464844 142.136719 18.328125 140.117188 C 20.8125 138.121094 22.425781 135.683594 23.613281 132.738281 C 24.722656 129.449219 24.78125 125.851562 24.105469 122.449219 C 23.085938 119.140625 21.300781 116.226562 18.765625 113.859375 C 15.777344 111.511719 12.484375 110.648438 8.808594 110.050781 C 7.40625 109.808594 6.5625 109.65625 5.433594 108.753906 C 4.871094 108.003906 4.871094 108.003906 4.496094 107.253906 C 4.460938 106.40625 4.441406 105.5625 4.4375 104.714844 L 4.429688 103.925781 C 4.425781 103.058594 4.421875 102.191406 4.421875 101.324219 L 4.414062 99.515625 C 4.410156 98.25 4.410156 96.980469 4.40625 95.710938 C 4.40625 94.097656 4.394531 92.480469 4.386719 90.863281 C 4.378906 89.617188 4.375 88.367188 4.375 87.117188 C 4.375 86.523438 4.371094 85.929688 4.367188 85.332031 C 4.34375 82.144531 4.34375 79.132812 5.621094 76.144531 C 6.476562 74.660156 7.628906 73.550781 9.0625 72.609375 C 11.492188 71.316406 13.480469 70.996094 16.214844 71.007812 L 17.382812 70.988281 C 18.601562 70.972656 19.816406 70.96875 21.035156 70.96875 C 21.867188 70.957031 22.699219 70.949219 23.53125 70.9375 C 25.554688 70.914062 27.582031 70.902344 29.609375 70.898438 C 29.972656 70.179688 30.339844 69.460938 30.703125 68.742188 L 31.316406 67.53125 C 32.503906 65.050781 32.753906 62.804688 32.703125 60.0625 C 32.464844 57.167969 31.597656 54.214844 29.984375 51.78125 C 28.195312 49.507812 26.238281 47.617188 23.894531 45.925781 C 23.238281 45.410156 23.238281 45.410156 22.863281 44.660156 C 22.765625 43.433594 22.792969 42.585938 23.261719 41.441406 L 23.824219 40.460938 L 24.460938 39.339844 L 25.160156 38.148438 L 25.871094 36.902344 C 26.613281 35.613281 27.359375 34.328125 28.109375 33.042969 C 28.578125 32.238281 29.042969 31.429688 29.507812 30.625 C 30.589844 28.753906 31.683594 26.894531 32.777344 25.035156 C 33.304688 24.132812 33.828125 23.226562 34.34375 22.3125 C 37.101562 17.488281 37.101562 17.488281 39.355469 16.175781 C 41.660156 14.878906 44.253906 14.652344 46.851562 15.050781 "/><path style=" stroke:none;fill-rule:nonzero;fill:#0058a4;fill-opacity:1;" d="M 46.851562 15.050781 C 49.085938 15.871094 51.175781 17.023438 53.246094 18.191406 L 54.109375 18.675781 C 57.292969 20.464844 60.441406 22.3125 63.589844 24.160156 C 65.984375 25.558594 68.386719 26.949219 70.789062 28.332031 L 72.015625 29.039062 L 74.480469 30.460938 C 76.515625 31.632812 78.546875 32.804688 80.582031 33.980469 L 83.019531 35.386719 L 117.125 55.0625 L 118.34375 55.765625 L 120.777344 57.167969 C 123.226562 58.582031 125.675781 59.996094 128.128906 61.40625 C 129.335938 62.105469 130.546875 62.800781 131.753906 63.503906 C 133.210938 64.34375 134.667969 65.179688 136.128906 66.011719 C 137.171875 66.605469 138.21875 67.207031 139.261719 67.804688 L 140.4375 68.46875 L 141.511719 69.085938 L 142.460938 69.628906 L 143.171875 70.148438 L 143.546875 71.273438 L 30.359375 71.273438 C 30.632812 69.625 30.851562 68.589844 31.484375 67.125 C 32.652344 64.402344 32.808594 61.847656 32.609375 58.902344 C 32.074219 55.941406 31.121094 53.230469 29.257812 50.855469 C 27.625 48.972656 25.914062 47.382812 23.894531 45.925781 C 23.238281 45.410156 23.238281 45.410156 22.863281 44.660156 C 22.765625 43.433594 22.792969 42.585938 23.261719 41.441406 L 23.824219 40.460938 L 24.460938 39.339844 L 25.160156 38.148438 L 25.871094 36.902344 C 26.613281 35.613281 27.359375 34.328125 28.109375 33.042969 C 28.578125 32.238281 29.042969 31.429688 29.507812 30.625 C 30.589844 28.753906 31.683594 26.894531 32.777344 25.035156 C 33.304688 24.132812 33.828125 23.226562 34.34375 22.3125 C 37.101562 17.488281 37.101562 17.488281 39.355469 16.175781 C 41.660156 14.878906 44.253906 14.652344 46.851562 15.050781 M 115.4375 182.585938 L 185.152344 182.585938 C 183.054688 186.441406 180.914062 190.273438 178.742188 194.085938 C 178.25 194.945312 177.761719 195.804688 177.273438 196.664062 C 176.628906 197.804688 175.976562 198.941406 175.320312 200.078125 C 174.949219 200.722656 174.582031 201.375 174.214844 202.027344 C 172.703125 204.617188 171.140625 206.714844 168.660156 208.449219 C 167.089844 209.183594 165.65625 209.339844 163.929688 209.386719 L 162.671875 209.445312 C 159.097656 209.148438 155.511719 206.324219 152.496094 204.535156 L 150.125 203.144531 L 148.898438 202.421875 C 146.886719 201.246094 144.867188 200.078125 142.84375 198.914062 C 142.441406 198.683594 142.035156 198.449219 141.621094 198.207031 L 139.15625 196.789062 C 136.71875 195.386719 134.285156 193.980469 131.851562 192.574219 C 129.960938 191.484375 128.070312 190.394531 126.183594 189.308594 L 124.179688 188.15625 C 123.34375 187.675781 122.507812 187.195312 121.667969 186.714844 C 119.566406 185.503906 117.46875 184.292969 115.4375 182.960938 Z M 212.511719 110.25 C 214.429688 111.070312 215.996094 112.140625 217.367188 113.722656 C 218.597656 115.480469 219.484375 117.179688 219.726562 119.335938 C 219.851562 121.855469 219.183594 123.730469 218.132812 125.992188 C 217.4375 127.300781 216.679688 128.570312 215.910156 129.835938 L 214.613281 131.992188 L 213.941406 133.105469 C 212.804688 134.996094 211.6875 136.902344 210.566406 138.804688 L 209.355469 140.859375 L 208.84375 141.730469 C 208.460938 142.367188 208.050781 142.988281 207.640625 143.609375 C 204.125 142.351562 201.195312 140.820312 198.726562 137.964844 C 196.683594 135.132812 195.324219 131.730469 194.894531 128.265625 C 194.765625 125.203125 195.308594 122.296875 196.589844 119.503906 C 198.277344 116.457031 200.15625 114.269531 203.09375 112.40625 C 206.058594 110.734375 209.066406 109.601562 212.511719 110.25 "/><path style=" stroke:none;fill-rule:nonzero;fill:#fefefe;fill-opacity:1;" d="M 52.847656 113.25 C 53.773438 113.285156 53.773438 113.285156 54.722656 113.625 C 55.410156 114.375 55.410156 114.375 56.03125 115.335938 L 56.726562 116.359375 C 57.34375 117.371094 57.34375 117.371094 57.703125 118.234375 C 58.121094 119.183594 58.421875 119.691406 59.21875 120.371094 C 60.527344 120.855469 61.882812 121.125 63.253906 121.359375 C 64.582031 121.589844 65.546875 121.847656 66.75 122.496094 L 67.464844 123.371094 C 67.511719 124.636719 67.511719 124.636719 67.089844 125.992188 C 66.246094 127.125 66.246094 127.125 65.214844 128.171875 C 63.9375 129.410156 63.9375 129.410156 62.964844 130.863281 C 62.945312 131.476562 62.941406 132.089844 62.957031 132.703125 L 62.96875 133.808594 C 62.984375 134.578125 62.996094 135.347656 63.015625 136.117188 L 63.027344 137.222656 L 63.046875 138.238281 C 62.964844 139.109375 62.964844 139.109375 62.214844 140.234375 C 61.234375 140.574219 61.234375 140.574219 59.96875 140.609375 C 58.910156 140.277344 57.9375 139.796875 56.945312 139.296875 C 55.066406 138.304688 55.066406 138.304688 53.011719 138.019531 C 51.347656 138.640625 49.757812 139.410156 48.152344 140.167969 C 46.851562 140.609375 46.851562 140.609375 45.605469 140.535156 C 44.601562 140.234375 44.601562 140.234375 43.851562 139.484375 C 43.820312 138.628906 43.820312 138.628906 43.898438 137.5625 C 44.097656 134.019531 44.097656 134.019531 43.851562 130.492188 C 42.972656 128.886719 41.972656 128.117188 40.476562 127.117188 C 39.816406 126.363281 39.816406 126.363281 39.355469 125.617188 C 39.191406 124.492188 39.191406 124.492188 39.355469 123.371094 C 39.894531 122.585938 39.894531 122.585938 40.851562 121.871094 C 42.007812 121.574219 43.1875 121.445312 44.367188 121.285156 C 45.609375 121.074219 46.800781 120.839844 47.972656 120.371094 C 49.1875 119.132812 49.667969 117.867188 50.222656 116.246094 C 50.945312 114.960938 51.597656 114.082031 52.847656 113.25 M 140.925781 113.625 C 142.191406 113.296875 142.191406 113.296875 143.546875 113.625 C 144.714844 114.859375 145.5625 116.316406 146.117188 117.917969 C 146.527344 118.992188 146.824219 119.578125 147.671875 120.371094 C 149.582031 121.117188 151.636719 121.414062 153.65625 121.699219 C 154.519531 121.894531 155.167969 122.148438 155.917969 122.621094 C 156.363281 123.769531 156.363281 123.769531 156.292969 125.242188 C 155.269531 127.015625 153.945312 128.402344 152.355469 129.671875 C 151.773438 130.175781 151.773438 130.175781 151.417969 130.863281 C 151.335938 132.394531 151.578125 133.851562 151.792969 135.363281 C 151.832031 136.058594 151.855469 136.753906 151.863281 137.449219 L 151.878906 138.339844 C 151.792969 139.109375 151.792969 139.109375 151.042969 140.234375 C 150.0625 140.574219 150.0625 140.574219 148.796875 140.609375 C 147.738281 140.277344 146.765625 139.796875 145.773438 139.296875 C 143.894531 138.304688 143.894531 138.304688 141.839844 138.019531 C 140.175781 138.640625 138.582031 139.410156 136.980469 140.167969 C 135.675781 140.609375 135.675781 140.609375 134.433594 140.535156 C 133.429688 140.234375 133.429688 140.234375 132.679688 139.484375 C 132.652344 138.632812 132.652344 138.632812 132.738281 137.578125 C 133.136719 133.566406 133.136719 133.566406 132.328125 129.71875 C 131.402344 128.460938 130.203125 127.617188 128.929688 126.742188 C 128.179688 125.617188 128.179688 125.617188 128.019531 124.304688 L 128.179688 122.996094 C 129.285156 122.097656 130.121094 121.859375 131.527344 121.605469 C 131.792969 121.566406 132.058594 121.527344 132.335938 121.484375 C 133.761719 121.261719 135.117188 121 136.425781 120.371094 C 137.882812 119.042969 138.582031 117.242188 139.425781 115.5 C 140.171875 114.429688 140.171875 114.429688 140.925781 113.625 M 97.449219 113.25 C 98.394531 113.46875 98.394531 113.46875 99.320312 114 C 100.027344 114.800781 100.027344 114.800781 100.65625 115.757812 L 101.289062 116.699219 C 101.945312 117.746094 101.945312 117.746094 102.242188 118.429688 C 102.585938 119.175781 102.902344 119.753906 103.445312 120.371094 C 104.53125 120.851562 105.625 121.007812 106.796875 121.167969 C 109.84375 121.617188 109.84375 121.617188 110.820312 122.332031 C 111.339844 122.851562 111.339844 122.851562 112.066406 123.746094 C 111.820312 125.078125 111.613281 126.011719 110.734375 127.0625 C 110.292969 127.492188 109.84375 127.914062 109.386719 128.328125 L 108.691406 128.992188 L 107.847656 129.757812 C 107.136719 130.777344 107.136719 130.777344 107.128906 131.730469 C 107.171875 132.765625 107.253906 133.789062 107.355469 134.824219 C 107.425781 135.527344 107.488281 136.230469 107.542969 136.933594 L 107.636719 137.875 C 107.566406 138.734375 107.566406 138.734375 107.058594 139.574219 C 106.441406 140.234375 106.441406 140.234375 105.621094 140.597656 C 103.824219 140.617188 102.386719 139.695312 100.8125 138.902344 C 99.59375 138.324219 98.792969 137.980469 97.425781 138.019531 C 95.648438 138.570312 94.007812 139.375 92.328125 140.167969 C 91.078125 140.609375 91.078125 140.609375 90.046875 140.582031 C 89.203125 140.234375 89.203125 140.234375 88.582031 139.570312 C 88.078125 138.734375 88.078125 138.734375 88.050781 137.914062 L 88.195312 137.027344 C 88.605469 133.953125 88.605469 133.953125 88.453125 130.867188 C 87.71875 129.347656 86.597656 128.402344 85.316406 127.332031 C 84.378906 126.414062 84.160156 126.125 83.820312 124.9375 L 83.582031 123.742188 C 84.3125 122.835938 84.3125 122.835938 85.453125 121.871094 C 86.25 121.660156 87.011719 121.578125 87.828125 121.496094 C 89.378906 121.328125 90.804688 121.09375 92.199219 120.371094 C 93.761719 118.761719 94.683594 116.691406 95.542969 114.644531 C 95.949219 114 95.949219 114 96.683594 113.523438 Z M 167.535156 79.890625 C 168.566406 79.777344 168.566406 79.777344 169.785156 79.890625 C 170.796875 80.566406 171.488281 81.046875 172.03125 82.140625 C 172.132812 83.550781 172.121094 84.96875 172.125 86.382812 L 172.152344 87.570312 L 172.15625 88.71875 L 172.167969 89.769531 C 172.003906 90.972656 171.621094 91.660156 170.910156 92.636719 L 169.785156 93.386719 C 168.753906 93.429688 167.785156 93.265625 166.785156 93.011719 C 166.058594 92.496094 166.058594 92.496094 165.660156 91.886719 C 165.074219 90.121094 165.171875 88.34375 165.144531 86.5 L 165.105469 85.316406 C 165.089844 84.226562 165.105469 83.214844 165.285156 82.140625 C 165.828125 81.253906 166.300781 80.890625 167.160156 80.265625 Z M 168.777344 106.714844 L 170.160156 106.878906 C 171.070312 107.65625 171.515625 108.085938 172.03125 109.125 C 172.285156 110.578125 172.261719 111.992188 172.21875 113.460938 L 172.222656 114.628906 C 172.203125 116.230469 172.167969 117.445312 171.5 118.917969 C 170.910156 119.621094 170.910156 119.621094 170.230469 120.136719 C 169.410156 120.371094 169.410156 120.371094 168.285156 120.324219 C 167.160156 119.996094 167.160156 119.996094 166.292969 119.269531 C 165.660156 118.496094 165.660156 118.496094 165.285156 117.746094 C 165.175781 116.335938 165.183594 114.921875 165.167969 113.507812 L 165.136719 112.320312 C 165.128906 111.234375 165.144531 110.203125 165.285156 109.125 C 165.996094 107.9375 165.996094 107.9375 166.785156 107.253906 C 167.535156 106.878906 167.535156 106.878906 168.777344 106.714844 M 167.933594 133.566406 L 168.660156 133.582031 C 168.898438 133.578125 169.140625 133.570312 169.386719 133.566406 C 170.160156 133.863281 170.160156 133.863281 171.179688 134.734375 C 171.796875 135.535156 172.027344 136.070312 172.199219 137.074219 C 172.257812 138.203125 172.253906 139.316406 172.21875 140.445312 L 172.222656 141.613281 C 172.203125 143.195312 172.160156 144.433594 171.535156 145.902344 C 170.910156 146.605469 170.910156 146.605469 169.667969 147.167969 C 168.285156 147.355469 168.285156 147.355469 167.042969 146.957031 C 166.035156 146.230469 166.035156 146.230469 165.605469 145.367188 C 165.070312 143.679688 165.132812 142.015625 165.121094 140.257812 L 165.085938 139.148438 C 165.066406 136.550781 165.066406 136.550781 165.664062 135.363281 C 166.3125 134.523438 166.9375 133.949219 167.933594 133.566406 M 169.269531 160.496094 C 170.351562 160.925781 170.910156 161.464844 171.660156 162.347656 C 172.378906 163.789062 172.101562 165.566406 172.105469 167.152344 L 172.117188 168.285156 L 172.121094 169.382812 L 172.125 170.386719 C 172.019531 171.46875 171.777344 172.25 171.285156 173.21875 C 170.160156 173.96875 170.160156 173.96875 168.683594 174.109375 C 167.886719 174.089844 167.886719 174.089844 167.160156 173.96875 C 166.246094 173.289062 166.246094 173.289062 165.660156 172.46875 C 165.089844 170.75 165.21875 169.042969 165.214844 167.246094 L 165.203125 166.105469 L 165.199219 165.007812 L 165.195312 164.007812 C 165.292969 163.019531 165.5 162.429688 166.035156 161.597656 C 167.167969 160.871094 167.914062 160.464844 169.269531 160.496094 "/><path style=" stroke:none;fill-rule:nonzero;fill:#0e6bbe;fill-opacity:1;" d="M 30.734375 28.542969 L 31.859375 29.667969 C 30.46875 32.949219 30.46875 32.949219 29.984375 33.792969 L 29.234375 34.167969 C 29.109375 34.792969 28.984375 35.417969 28.859375 36.039062 C 28.433594 36.84375 28.433594 36.84375 27.90625 37.632812 L 27.34375 38.511719 C 26.949219 39.113281 26.550781 39.714844 26.152344 40.316406 L 25.589844 41.195312 L 25.066406 41.984375 C 24.660156 42.796875 24.660156 42.796875 24.816406 43.773438 C 25.058594 44.738281 25.058594 44.738281 25.957031 45.464844 L 27.03125 46.253906 C 28.917969 47.726562 30.707031 49.273438 31.859375 51.40625 L 31.484375 52.53125 L 30.359375 52.53125 C 29.863281 51.96875 29.863281 51.96875 29.351562 51.195312 C 27.867188 49.109375 26.007812 47.617188 24.011719 46.042969 C 23.238281 45.410156 23.238281 45.410156 22.863281 44.660156 C 22.753906 43.386719 22.804688 42.554688 23.304688 41.367188 L 23.917969 40.300781 L 24.601562 39.105469 L 25.320312 37.867188 L 26.015625 36.660156 C 26.707031 35.449219 27.40625 34.246094 28.109375 33.042969 L 28.871094 31.738281 C 29.488281 30.671875 30.113281 29.609375 30.734375 28.542969 "/><path style=" stroke:none;fill-rule:nonzero;fill:#0065b8;fill-opacity:1;" d="M 219.257812 120.371094 L 219.632812 120.371094 C 219.460938 124.796875 216.609375 128.648438 214.410156 132.363281 L 213.75 133.488281 C 213.308594 134.234375 212.871094 134.976562 212.429688 135.71875 C 211.960938 136.523438 211.5 137.332031 211.050781 138.144531 L 210.355469 139.390625 L 209.730469 140.535156 L 209.136719 141.359375 L 208.015625 141.359375 C 208.539062 139.941406 209.199219 138.695312 209.980469 137.402344 C 211.109375 135.496094 212.109375 133.5625 213.082031 131.574219 C 213.785156 130.199219 214.578125 128.894531 215.398438 127.585938 C 215.910156 126.75 215.910156 126.75 216.253906 125.808594 C 216.660156 124.808594 217.164062 124.015625 217.78125 123.136719 C 218.449219 122.179688 218.886719 121.484375 219.257812 120.371094 "/><path style=" stroke:none;fill-rule:nonzero;fill:#0064b9;fill-opacity:1;" d="M 184.027344 182.585938 L 185.152344 182.960938 C 184.492188 184.144531 183.828125 185.324219 183.160156 186.5 L 182.59375 187.519531 L 182.039062 188.488281 L 181.535156 189.386719 L 181.027344 190.082031 L 179.902344 190.457031 C 180.085938 188.492188 181.128906 187.082031 182.175781 185.46875 L 182.710938 184.628906 C 183.148438 183.945312 183.585938 183.265625 184.027344 182.585938 "/><path style=" stroke:none;fill-rule:nonzero;fill:#2579c4;fill-opacity:1;" d="M 37.855469 17.300781 C 37.855469 18.464844 37.652344 18.933594 37.105469 19.925781 L 36.355469 19.925781 L 36.589844 20.769531 C 36.730469 21.796875 36.730469 21.796875 36.425781 22.640625 C 35.980469 23.296875 35.980469 23.296875 35.230469 23.671875 L 35.230469 24.421875 L 33.355469 24.796875 C 33.859375 23.046875 34.578125 21.707031 35.605469 20.207031 L 36.402344 19.027344 C 37.105469 18.050781 37.105469 18.050781 37.855469 17.300781 "/><path style=" stroke:none;fill-rule:nonzero;fill:#0d6bbe;fill-opacity:1;" d="M 31.859375 52.53125 C 32.832031 53.683594 33.242188 54.683594 33.613281 56.140625 C 33.707031 56.5 33.804688 56.859375 33.898438 57.230469 C 34.105469 58.152344 34.105469 58.152344 34.105469 58.902344 L 32.609375 58.902344 L 32.070312 56.9375 L 31.765625 55.828125 L 31.484375 54.78125 L 31.210938 53.945312 L 31.109375 53.28125 Z M 31.859375 52.53125 "/><path style=" stroke:none;fill-rule:nonzero;fill:#0869ba;fill-opacity:1;" d="M 140.550781 69.023438 C 141.664062 69.445312 142.550781 69.855469 143.546875 70.523438 L 143.546875 71.273438 L 140.925781 71.273438 C 140.550781 69.445312 140.550781 69.445312 140.550781 69.023438 "/><path style=" stroke:none;fill-rule:nonzero;fill:#0063bb;fill-opacity:1;" d="M 159.664062 208.074219 L 163.789062 208.074219 L 163.789062 208.449219 L 166.410156 208.824219 L 166.410156 209.199219 C 165.566406 209.230469 164.722656 209.25 163.882812 209.269531 L 162.457031 209.308594 L 161.164062 209.199219 Z M 159.664062 208.074219 "/><path style=" stroke:none;fill-rule:nonzero;fill:#3884c8;fill-opacity:1;" d="M 37.855469 17.300781 C 37.855469 18.464844 37.652344 18.933594 37.105469 19.925781 L 36.355469 19.925781 L 36.730469 21.796875 L 35.230469 21.421875 C 35.789062 19.703125 36.675781 18.636719 37.855469 17.300781 "/></g></svg>