<svg xmlns="http://www.w3.org/2000/svg" xmlns:xlink="http://www.w3.org/1999/xlink" width="300" zoomAndPan="magnify" viewBox="0 0 224.87999 225" height="300" preserveAspectRatio="xMidYMid meet" version="1.2"><g id="d49d381f59"><path style=" stroke:none;fill-rule:nonzero;fill:#dde4ec;fill-opacity:1;" d="M 49.847656 3.382812 L 51.222656 3.378906 L 52.730469 3.378906 C 53.265625 3.375 53.800781 3.375 54.332031 3.375 C 55.804688 3.371094 57.273438 3.367188 58.742188 3.367188 C 60.324219 3.367188 61.910156 3.363281 63.496094 3.359375 C 67.320312 3.351562 71.148438 3.347656 74.976562 3.34375 L 80.386719 3.339844 C 87.9375 3.328125 95.488281 3.324219 103.039062 3.324219 L 104.210938 3.320312 C 110.472656 3.316406 116.730469 3.308594 122.992188 3.296875 C 129.421875 3.285156 135.851562 3.277344 142.285156 3.277344 C 145.894531 3.277344 149.503906 3.273438 153.113281 3.261719 C 156.1875 3.253906 159.261719 3.253906 162.335938 3.257812 C 163.902344 3.257812 165.46875 3.257812 167.035156 3.25 C 168.472656 3.242188 169.910156 3.242188 171.347656 3.25 C 172.109375 3.25 172.871094 3.246094 173.632812 3.238281 C 177.570312 3.265625 181.035156 4.039062 184.496094 5.964844 C 187.917969 8.1875 190.339844 10.691406 192.273438 14.300781 C 193.558594 17.058594 194.195312 19.429688 194.183594 22.484375 L 194.179688 23.953125 L 194.167969 25.476562 C 194.167969 25.992188 194.164062 26.507812 194.164062 27.023438 C 194.160156 28.277344 194.152344 29.535156 194.144531 30.792969 L 195.03125 30.769531 C 196.382812 30.738281 197.738281 30.71875 199.089844 30.699219 L 200.480469 30.660156 C 204.480469 30.621094 208.246094 31.390625 211.78125 33.332031 C 215.234375 35.507812 217.609375 38.152344 219.632812 41.664062 C 221.027344 44.722656 221.5625 47.511719 221.566406 50.863281 L 221.574219 51.828125 C 221.578125 52.878906 221.582031 53.929688 221.582031 54.980469 L 221.589844 57.183594 C 221.59375 58.726562 221.59375 60.265625 221.597656 61.804688 C 221.597656 63.769531 221.609375 65.734375 221.617188 67.695312 C 221.625 69.214844 221.628906 70.734375 221.628906 72.25 C 221.628906 72.972656 221.632812 73.699219 221.636719 74.421875 C 221.667969 79.363281 221.484375 83.878906 219.101562 88.347656 C 217.976562 90.085938 216.589844 91.546875 215.136719 93.011719 L 214.503906 93.667969 C 212.578125 95.507812 210.132812 96.628906 207.640625 97.507812 C 204.609375 98.246094 201.679688 98.351562 198.574219 98.304688 L 197.277344 98.292969 C 196.234375 98.285156 195.1875 98.273438 194.144531 98.257812 L 194.148438 98.953125 C 194.175781 114.238281 194.195312 129.523438 194.207031 144.808594 L 194.210938 145.800781 C 194.214844 151.078125 194.222656 156.359375 194.234375 161.640625 C 194.242188 167.0625 194.25 172.484375 194.253906 177.902344 C 194.253906 181.246094 194.257812 184.589844 194.269531 187.933594 C 194.273438 190.226562 194.277344 192.523438 194.273438 194.816406 C 194.273438 196.140625 194.273438 197.460938 194.28125 198.785156 C 194.285156 200.222656 194.285156 201.65625 194.28125 203.09375 L 194.292969 204.351562 C 194.273438 207.574219 193.652344 210.277344 192.203125 213.15625 C 190.488281 216.046875 188.390625 218.222656 185.519531 219.960938 C 182.351562 221.328125 179.292969 221.738281 175.867188 221.730469 L 174.632812 221.734375 C 173.777344 221.738281 172.921875 221.738281 172.070312 221.734375 C 170.773438 221.730469 169.480469 221.742188 168.1875 221.753906 C 159.882812 221.78125 159.882812 221.78125 156.292969 220.066406 C 153.414062 218.414062 151.101562 216.390625 149.371094 213.539062 C 145.164062 205.640625 147.296875 195.921875 147.296875 187.460938 L 77.582031 187.460938 L 77.582031 207.324219 C 76.757812 211.046875 75.84375 213.519531 73.390625 216.414062 C 71.226562 218.691406 69 220.132812 65.992188 221.023438 C 63.707031 221.632812 61.558594 221.734375 59.207031 221.730469 L 57.949219 221.734375 C 57.074219 221.738281 56.199219 221.738281 55.324219 221.734375 C 54 221.730469 52.675781 221.742188 51.347656 221.753906 C 50.492188 221.753906 49.640625 221.753906 48.785156 221.753906 L 47.601562 221.765625 C 44.382812 221.734375 41.464844 221.070312 38.660156 219.449219 C 35.894531 217.648438 33.84375 215.492188 32.304688 212.570312 C 30.777344 209.484375 30.625 206.5625 30.644531 203.183594 L 30.640625 201.820312 C 30.640625 200.582031 30.644531 199.339844 30.648438 198.097656 C 30.648438 196.757812 30.648438 195.417969 30.648438 194.078125 C 30.648438 191.753906 30.648438 189.433594 30.65625 187.113281 C 30.660156 183.757812 30.664062 180.402344 30.664062 177.046875 C 30.664062 171.601562 30.667969 166.160156 30.675781 160.714844 C 30.6875 153.460938 30.691406 146.207031 30.695312 138.953125 C 30.703125 125.390625 30.714844 111.824219 30.734375 98.257812 L 29.917969 98.265625 C 28.691406 98.273438 27.460938 98.277344 26.230469 98.28125 L 24.949219 98.292969 C 20.808594 98.304688 17.382812 97.84375 13.609375 96.007812 C 10.390625 94.144531 7.800781 91.609375 5.808594 88.464844 C 3.921875 85.042969 3.320312 81.695312 3.3125 77.804688 L 3.308594 76.851562 C 3.300781 75.8125 3.296875 74.777344 3.296875 73.742188 L 3.292969 72.660156 C 3.289062 70.773438 3.285156 68.890625 3.285156 67.003906 C 3.28125 65.066406 3.273438 63.125 3.261719 61.1875 C 3.253906 59.6875 3.253906 58.191406 3.25 56.691406 C 3.25 55.976562 3.246094 55.261719 3.242188 54.550781 C 3.210938 49.59375 3.421875 45.140625 5.835938 40.675781 C 7.917969 37.222656 10.472656 35.035156 13.90625 32.9375 C 17.679688 30.890625 21.523438 30.636719 25.746094 30.722656 L 27.203125 30.738281 C 28.382812 30.753906 29.558594 30.769531 30.734375 30.792969 L 30.710938 29.914062 C 30.4375 18.378906 30.4375 18.378906 32.851562 13.90625 C 35.136719 10.144531 37.847656 7.558594 41.601562 5.308594 C 44.296875 4.070312 46.882812 3.386719 49.847656 3.382812 "/><path style=" stroke:none;fill-rule:nonzero;fill:#0057a4;fill-opacity:1;" d="M 30.734375 119.996094 C 34.257812 119.96875 37.785156 119.949219 41.308594 119.9375 C 42.949219 119.933594 44.585938 119.925781 46.222656 119.910156 C 47.808594 119.898438 49.390625 119.890625 50.976562 119.890625 C 51.578125 119.886719 52.175781 119.882812 52.777344 119.878906 C 59.253906 119.8125 64.710938 121.042969 70.460938 124.164062 C 72.414062 125.332031 73.988281 126.71875 75.628906 128.269531 C 78.355469 130.847656 81.070312 132.15625 84.703125 133.113281 C 87.214844 133.585938 89.714844 133.546875 92.261719 133.550781 L 93.757812 133.554688 C 95.105469 133.558594 96.453125 133.5625 97.800781 133.5625 C 98.648438 133.566406 99.492188 133.566406 100.335938 133.566406 C 102.984375 133.574219 105.636719 133.578125 108.285156 133.578125 C 111.332031 133.582031 114.375 133.585938 117.421875 133.597656 C 119.785156 133.605469 122.148438 133.609375 124.511719 133.609375 C 125.917969 133.609375 127.324219 133.613281 128.730469 133.621094 C 130.058594 133.625 131.382812 133.625 132.710938 133.621094 C 133.417969 133.621094 134.128906 133.628906 134.839844 133.632812 C 139.039062 133.613281 142.976562 132.972656 146.644531 130.839844 C 148.027344 129.863281 149.21875 128.726562 150.4375 127.5625 C 154.042969 124.164062 158.449219 121.957031 163.246094 120.796875 C 166.953125 120.058594 170.464844 119.84375 174.234375 119.886719 C 174.816406 119.886719 175.394531 119.890625 175.972656 119.890625 C 177.476562 119.894531 178.980469 119.90625 180.484375 119.917969 C 182.027344 119.929688 183.570312 119.933594 185.113281 119.941406 C 188.125 119.953125 191.136719 119.972656 194.144531 119.996094 C 194.175781 132.417969 194.195312 144.839844 194.207031 157.261719 L 194.210938 158.054688 C 194.214844 162.28125 194.222656 166.507812 194.234375 170.734375 C 194.242188 175.074219 194.25 179.410156 194.253906 183.75 C 194.253906 186.1875 194.257812 188.625 194.265625 191.0625 C 194.273438 193.355469 194.277344 195.648438 194.273438 197.945312 C 194.273438 198.785156 194.277344 199.625 194.28125 200.464844 C 194.285156 201.617188 194.285156 202.769531 194.28125 203.917969 L 194.292969 204.917969 C 194.269531 207.894531 193.539062 210.507812 192.203125 213.15625 C 190.488281 216.046875 188.390625 218.222656 185.519531 219.960938 C 182.351562 221.328125 179.292969 221.738281 175.867188 221.730469 L 174.632812 221.734375 C 173.777344 221.738281 172.921875 221.738281 172.070312 221.734375 C 170.773438 221.730469 169.480469 221.742188 168.1875 221.753906 C 159.882812 221.78125 159.882812 221.78125 156.292969 220.066406 C 153.414062 218.414062 151.101562 216.390625 149.371094 213.539062 C 145.164062 205.640625 147.296875 195.921875 147.296875 187.460938 L 77.582031 187.460938 L 77.582031 207.324219 C 76.757812 211.046875 75.84375 213.519531 73.390625 216.414062 C 71.226562 218.691406 69 220.132812 65.992188 221.023438 C 63.707031 221.632812 61.558594 221.734375 59.207031 221.730469 L 57.949219 221.734375 C 57.074219 221.738281 56.199219 221.738281 55.324219 221.734375 C 54 221.730469 52.675781 221.742188 51.347656 221.753906 C 50.492188 221.753906 49.640625 221.753906 48.785156 221.753906 L 47.601562 221.765625 C 44.382812 221.734375 41.464844 221.070312 38.660156 219.449219 C 35.894531 217.648438 33.84375 215.492188 32.304688 212.570312 C 30.914062 209.765625 30.625 207.082031 30.644531 204.007812 L 30.640625 202.914062 C 30.640625 201.714844 30.644531 200.511719 30.648438 199.308594 L 30.648438 196.714844 C 30.648438 194.371094 30.652344 192.027344 30.65625 189.683594 C 30.664062 187.234375 30.664062 184.785156 30.664062 182.335938 C 30.664062 178.222656 30.671875 174.113281 30.675781 170.003906 C 30.683594 165.769531 30.6875 161.535156 30.691406 157.300781 L 30.691406 156.511719 L 30.695312 152.578125 C 30.703125 141.71875 30.714844 130.855469 30.734375 119.996094 M 49.847656 3.382812 L 51.222656 3.378906 L 52.730469 3.378906 C 53.265625 3.375 53.800781 3.375 54.332031 3.375 C 55.804688 3.371094 57.273438 3.367188 58.742188 3.367188 C 60.324219 3.367188 61.910156 3.363281 63.496094 3.359375 C 67.320312 3.351562 71.148438 3.347656 74.976562 3.34375 L 80.386719 3.339844 C 87.9375 3.328125 95.488281 3.324219 103.039062 3.324219 L 104.210938 3.320312 C 110.472656 3.316406 116.730469 3.308594 122.992188 3.296875 C 129.421875 3.285156 135.851562 3.277344 142.285156 3.277344 C 145.894531 3.277344 149.503906 3.273438 153.113281 3.261719 C 156.1875 3.253906 159.261719 3.253906 162.335938 3.257812 C 163.902344 3.257812 165.46875 3.257812 167.035156 3.25 C 168.472656 3.242188 169.910156 3.242188 171.347656 3.25 C 172.109375 3.25 172.871094 3.246094 173.632812 3.238281 C 177.570312 3.265625 181.035156 4.039062 184.496094 5.964844 C 187.917969 8.1875 190.339844 10.691406 192.273438 14.300781 C 193.558594 17.058594 194.195312 19.429688 194.183594 22.484375 L 194.179688 23.953125 L 194.167969 25.476562 C 194.167969 25.992188 194.164062 26.507812 194.164062 27.023438 C 194.160156 28.277344 194.152344 29.535156 194.144531 30.792969 C 170.929688 30.808594 147.71875 30.816406 124.507812 30.8125 L 123.03125 30.8125 C 115.128906 30.816406 107.222656 30.820312 99.320312 30.824219 C 91.214844 30.824219 83.109375 30.828125 75.007812 30.828125 C 70 30.828125 64.996094 30.832031 59.992188 30.835938 C 56.5625 30.835938 53.136719 30.835938 49.710938 30.835938 C 47.730469 30.835938 45.75 30.835938 43.769531 30.839844 C 41.957031 30.839844 40.148438 30.839844 38.339844 30.839844 C 37.679688 30.839844 37.023438 30.839844 36.363281 30.839844 C 35.476562 30.839844 34.589844 30.839844 33.699219 30.839844 L 32.910156 30.84375 C 32.308594 30.839844 31.710938 30.820312 31.109375 30.792969 L 30.734375 30.417969 C 30.355469 25.375 30.058594 19.730469 32.234375 15.050781 C 34.269531 11.269531 36.734375 8.449219 40.316406 6.078125 C 43.292969 4.292969 46.386719 3.390625 49.847656 3.382812 "/><path style=" stroke:none;fill-rule:nonzero;fill:#0058a4;fill-opacity:1;" d="M 30.734375 30.792969 L 30.734375 98.257812 C 18.230469 98.257812 18.230469 98.257812 13.609375 96.007812 C 10.390625 94.144531 7.800781 91.609375 5.808594 88.464844 C 3.921875 85.042969 3.320312 81.695312 3.3125 77.804688 L 3.308594 76.851562 C 3.300781 75.8125 3.296875 74.777344 3.296875 73.742188 L 3.292969 72.660156 C 3.289062 70.773438 3.285156 68.890625 3.285156 67.003906 C 3.28125 65.066406 3.273438 63.125 3.261719 61.1875 C 3.253906 59.6875 3.253906 58.191406 3.25 56.691406 C 3.25 55.976562 3.246094 55.261719 3.242188 54.550781 C 3.210938 49.59375 3.421875 45.140625 5.835938 40.675781 C 7.917969 37.222656 10.472656 35.035156 13.90625 32.9375 C 19.351562 29.984375 24.488281 30.792969 30.734375 30.792969 "/><path style=" stroke:none;fill-rule:nonzero;fill:#0057a4;fill-opacity:1;" d="M 194.144531 30.792969 C 207.152344 30.792969 207.152344 30.792969 211.78125 33.332031 C 215.234375 35.507812 217.609375 38.152344 219.632812 41.664062 C 221.027344 44.722656 221.5625 47.511719 221.566406 50.863281 L 221.574219 51.828125 C 221.578125 52.878906 221.582031 53.929688 221.582031 54.980469 L 221.589844 57.183594 C 221.59375 58.726562 221.59375 60.265625 221.597656 61.804688 C 221.597656 63.769531 221.609375 65.734375 221.617188 67.695312 C 221.625 69.214844 221.628906 70.734375 221.628906 72.25 C 221.628906 72.972656 221.632812 73.699219 221.636719 74.421875 C 221.667969 79.363281 221.484375 83.878906 219.101562 88.347656 C 217.976562 90.085938 216.589844 91.546875 215.136719 93.011719 L 214.503906 93.667969 C 212.578125 95.507812 210.132812 96.628906 207.640625 97.507812 C 203.515625 98.257812 203.515625 98.257812 194.519531 98.257812 Z M 194.144531 30.792969 "/><path style=" stroke:none;fill-rule:nonzero;fill:#002d53;fill-opacity:1;" d="M 30.734375 187.460938 L 77.582031 187.460938 C 77.582031 209.6875 77.582031 209.6875 75.558594 213.488281 C 73.84375 216.222656 71.703125 218.316406 68.941406 219.972656 C 65.738281 221.335938 62.664062 221.738281 59.207031 221.730469 L 57.949219 221.734375 C 57.074219 221.738281 56.199219 221.738281 55.324219 221.734375 C 54 221.730469 52.675781 221.742188 51.347656 221.753906 C 50.492188 221.753906 49.640625 221.753906 48.785156 221.753906 L 47.601562 221.765625 C 44.382812 221.734375 41.464844 221.070312 38.660156 219.449219 C 35.894531 217.648438 33.84375 215.492188 32.304688 212.570312 C 28.597656 205.085938 30.734375 194.492188 30.734375 187.460938 M 147.296875 187.460938 L 194.144531 187.460938 C 194.144531 209.101562 194.144531 209.101562 192.203125 213.15625 C 190.488281 216.046875 188.390625 218.222656 185.519531 219.960938 C 182.351562 221.328125 179.292969 221.738281 175.867188 221.730469 L 174.632812 221.734375 C 173.777344 221.738281 172.921875 221.738281 172.070312 221.734375 C 170.773438 221.730469 169.480469 221.742188 168.1875 221.753906 C 159.882812 221.78125 159.882812 221.78125 156.292969 220.066406 C 153.414062 218.414062 151.101562 216.390625 149.371094 213.539062 C 145.164062 205.640625 147.296875 195.921875 147.296875 187.460938 "/><path style=" stroke:none;fill-rule:nonzero;fill:#fea300;fill-opacity:1;" d="M 30.734375 147.355469 C 36.800781 147.3125 36.800781 147.3125 39.398438 147.300781 C 41.167969 147.296875 42.9375 147.285156 44.703125 147.273438 C 46.128906 147.257812 47.558594 147.253906 48.984375 147.25 C 49.527344 147.246094 50.070312 147.242188 50.613281 147.238281 C 55.394531 147.1875 55.394531 147.1875 57.089844 147.886719 C 58.042969 148.449219 58.671875 148.929688 59.359375 149.792969 L 59.90625 150.460938 C 60.613281 151.503906 60.726562 152.355469 60.835938 153.609375 C 60.8125 155.132812 60.40625 156.242188 59.671875 157.566406 C 59.019531 158.515625 58.316406 159.117188 57.34375 159.726562 C 56.027344 160.167969 54.75 160.160156 53.371094 160.175781 L 52.625 160.1875 C 51.820312 160.199219 51.011719 160.210938 50.207031 160.21875 L 48.523438 160.242188 C 47.050781 160.261719 45.574219 160.28125 44.101562 160.300781 C 42.332031 160.320312 40.5625 160.347656 38.792969 160.371094 C 36.105469 160.40625 33.417969 160.441406 30.734375 160.472656 Z M 172.191406 147.3125 L 173.667969 147.3125 L 175.261719 147.320312 L 176.890625 147.320312 C 178.320312 147.324219 179.75 147.324219 181.179688 147.332031 C 182.898438 147.335938 184.613281 147.335938 186.332031 147.339844 C 188.933594 147.34375 191.539062 147.351562 194.144531 147.355469 L 194.144531 160.097656 C 188.09375 160.160156 188.09375 160.160156 185.5 160.171875 C 183.734375 160.183594 181.96875 160.191406 180.203125 160.210938 C 178.78125 160.230469 177.355469 160.238281 175.933594 160.242188 C 175.390625 160.246094 174.847656 160.25 174.308594 160.257812 C 169.542969 160.328125 169.542969 160.328125 167.609375 159.414062 C 166.292969 158.523438 165.65625 157.75 164.910156 156.351562 C 164.445312 154.953125 164.390625 153.679688 164.539062 152.230469 C 165.054688 150.710938 165.78125 149.796875 166.949219 148.738281 C 168.601562 147.332031 170.0625 147.308594 172.191406 147.3125 "/><path style=" stroke:none;fill-rule:nonzero;fill:#0663c1;fill-opacity:1;" d="M 38.605469 7.179688 L 39.355469 7.554688 L 38.230469 8.679688 L 37.480469 8.304688 Z M 36.730469 8.679688 L 37.480469 9.054688 L 35.980469 10.179688 Z M 35.230469 10.554688 L 35.230469 13.554688 L 33.730469 13.925781 L 33.777344 14.722656 C 33.726562 15.960938 33.386719 16.878906 32.980469 18.050781 C 32.351562 20.332031 32.121094 22.546875 32.023438 24.910156 C 31.859375 25.921875 31.859375 25.921875 31.28125 26.804688 L 30.734375 27.421875 C 30.566406 23.078125 30.5 19.125 32.234375 15.050781 C 34.042969 11.742188 34.042969 11.742188 35.230469 10.554688 "/><path style=" stroke:none;fill-rule:nonzero;fill:#0063b9;fill-opacity:1;" d="M 220.382812 75.019531 L 221.507812 75.019531 C 221.527344 75.964844 221.542969 76.910156 221.554688 77.855469 C 221.558594 78.117188 221.566406 78.382812 221.574219 78.65625 C 221.589844 80.433594 221.398438 81.953125 220.757812 83.640625 L 219.632812 84.390625 C 219.972656 82.253906 219.972656 82.253906 220.207031 81.496094 C 220.464844 80.25 220.421875 79.007812 220.40625 77.738281 L 220.402344 76.945312 C 220.394531 76.304688 220.390625 75.660156 220.382812 75.019531 "/><path style=" stroke:none;fill-rule:nonzero;fill:#3a84cd;fill-opacity:1;" d="M 38.605469 7.179688 L 39.355469 7.554688 L 38.230469 8.679688 L 37.480469 8.304688 Z M 36.730469 8.679688 L 37.480469 9.054688 L 35.980469 10.179688 Z M 35.230469 10.554688 L 35.230469 13.554688 L 33.730469 13.925781 L 33.753906 14.792969 C 33.730469 15.800781 33.730469 15.800781 33.355469 16.925781 C 32.398438 17.558594 32.398438 17.558594 31.484375 18.050781 C 32.148438 15.082031 33.375 12.945312 35.230469 10.554688 "/></g></svg>