<svg xmlns="http://www.w3.org/2000/svg" xmlns:xlink="http://www.w3.org/1999/xlink" width="300" zoomAndPan="magnify" viewBox="0 0 224.87999 225" height="300" preserveAspectRatio="xMidYMid meet" version="1.2"><g id="ba1bc5f3ed"><path style=" stroke:none;fill-rule:nonzero;fill:#0057a3;fill-opacity:1;" d="M 60 40.0625 L 61.328125 40.0625 C 62.25 40.0625 63.175781 40.0625 64.101562 40.066406 C 65.511719 40.070312 66.917969 40.066406 68.328125 40.0625 C 69.230469 40.0625 70.128906 40.0625 71.03125 40.0625 L 72.300781 40.058594 C 77.015625 40.085938 77.015625 40.085938 79.082031 40.914062 C 80.347656 41.679688 81.332031 42.550781 82.109375 43.816406 C 82.453125 44.539062 82.734375 45.261719 83.007812 46.007812 L 83.335938 46.859375 C 83.679688 47.753906 84.019531 48.65625 84.355469 49.558594 C 84.566406 50.117188 84.78125 50.675781 84.996094 51.234375 C 85.617188 52.847656 86.222656 54.464844 86.832031 56.082031 C 87.808594 58.675781 88.789062 61.269531 89.773438 63.867188 L 92.140625 70.125 L 92.574219 71.273438 L 93.410156 71.273438 C 100.117188 71.296875 106.824219 71.324219 113.53125 71.359375 C 116.773438 71.378906 120.019531 71.390625 123.261719 71.402344 C 126.089844 71.410156 128.917969 71.421875 131.746094 71.441406 C 133.242188 71.449219 134.738281 71.457031 136.234375 71.457031 C 137.644531 71.460938 139.054688 71.46875 140.464844 71.480469 C 141.226562 71.484375 141.988281 71.484375 142.75 71.484375 C 145.28125 71.507812 147.25 71.667969 149.546875 72.769531 C 152.402344 74.648438 154.410156 77.546875 156.449219 80.238281 C 157.5625 81.703125 158.699219 83.148438 159.828125 84.601562 L 161.703125 87.015625 L 162.289062 87.761719 L 162.972656 88.777344 L 163.789062 89.636719 C 164.835938 89.902344 164.835938 89.902344 166.003906 89.847656 L 167.316406 89.863281 L 168.683594 89.847656 C 172.484375 89.820312 175.589844 90.136719 178.949219 92.027344 C 180.875 93.222656 182.511719 94.710938 184.171875 96.246094 C 185.5 97.449219 186.890625 98.574219 188.285156 99.703125 C 189.273438 100.507812 189.273438 100.507812 190.289062 101.480469 C 191.222656 102.253906 191.5625 102.386719 192.820312 102.609375 L 194.265625 102.605469 L 195.066406 102.609375 C 195.640625 102.609375 196.210938 102.609375 196.78125 102.601562 C 197.6875 102.59375 198.589844 102.59375 199.496094 102.597656 C 201.414062 102.605469 203.332031 102.601562 205.25 102.589844 C 207.476562 102.582031 209.703125 102.582031 211.929688 102.589844 C 212.820312 102.59375 213.710938 102.585938 214.597656 102.578125 C 215.144531 102.578125 215.691406 102.578125 216.238281 102.582031 L 217.679688 102.574219 C 218.882812 102.753906 218.882812 102.753906 219.800781 103.429688 L 220.382812 104.253906 C 220.359375 106.546875 219.640625 108.425781 218.75 110.511719 L 218.363281 111.4375 C 217.945312 112.433594 217.523438 113.425781 217.101562 114.421875 L 216.222656 116.515625 C 214.394531 120.863281 212.535156 125.199219 210.640625 129.523438 C 208.898438 133.523438 207.210938 137.542969 205.53125 141.570312 L 205.105469 142.585938 L 204.679688 143.609375 L 203.816406 145.679688 L 203.375 146.730469 C 201.792969 150.519531 200.199219 154.308594 198.601562 158.09375 L 197.667969 160.304688 L 196.363281 163.394531 L 195.980469 164.304688 C 195.238281 166.058594 194.46875 167.800781 193.671875 169.53125 C 193.351562 170.210938 193.351562 170.210938 193.398438 170.96875 L 194.003906 171.578125 C 194.773438 172.34375 195.28125 173.03125 195.878906 173.921875 C 197.21875 175.742188 198.890625 176.71875 200.894531 177.714844 C 202.238281 178.292969 203.386719 178.492188 204.828125 178.605469 C 206.015625 178.714844 206.824219 178.914062 207.828125 179.566406 C 208.761719 180.339844 208.761719 180.339844 209.136719 181.089844 C 209.277344 182.144531 209.277344 182.144531 209.136719 183.335938 C 208.53125 184.414062 208.53125 184.414062 207.265625 185.210938 C 204.257812 185.65625 201.433594 185.277344 198.601562 184.214844 C 196.003906 183.011719 193.734375 181.394531 191.523438 179.589844 L 191.023438 180.082031 C 188.613281 182.347656 185.925781 183.789062 182.816406 184.890625 C 179.46875 185.652344 175.597656 185.621094 172.234375 184.953125 C 169.164062 183.894531 166.238281 182.085938 163.789062 179.964844 C 162.570312 180.535156 161.484375 181.230469 160.367188 181.980469 C 157.894531 183.566406 155.113281 185.027344 152.132812 185.277344 C 144.472656 185.488281 144.472656 185.488281 140.925781 183.710938 C 137.335938 181.699219 137.335938 181.699219 136.21875 180.421875 L 135.675781 179.964844 C 134.921875 179.964844 134.921875 179.964844 134.179688 180.339844 C 133.429688 180.886719 133.429688 180.886719 132.679688 181.558594 C 130.394531 183.398438 127.679688 184.59375 124.808594 185.210938 C 121.023438 185.515625 116.972656 185.644531 113.40625 184.214844 C 111.710938 183.332031 110.195312 182.261719 108.691406 181.089844 C 108.191406 180.714844 107.691406 180.339844 107.191406 179.964844 C 105.976562 180.535156 104.890625 181.230469 103.773438 181.980469 C 101.300781 183.566406 98.519531 185.027344 95.535156 185.277344 C 87.878906 185.488281 87.878906 185.488281 84.328125 183.710938 C 80.742188 181.699219 80.742188 181.699219 79.621094 180.421875 L 79.082031 179.964844 C 78.34375 179.953125 78.34375 179.953125 77.582031 180.339844 C 76.929688 180.796875 76.289062 181.273438 75.664062 181.769531 C 73.363281 183.484375 71.015625 184.589844 68.214844 185.210938 C 64.132812 185.574219 60.105469 185.546875 56.277344 183.980469 C 54.539062 183.035156 53.066406 181.863281 51.582031 180.5625 L 50.597656 179.964844 C 49.273438 180.253906 48.410156 180.902344 47.390625 181.769531 C 45.179688 183.484375 42.464844 184.621094 39.730469 185.210938 C 36.058594 185.519531 32.199219 185.589844 28.738281 184.214844 C 26.199219 182.945312 23.933594 181.382812 21.738281 179.589844 L 21.242188 180.082031 C 18.792969 182.382812 16.066406 183.71875 12.976562 184.976562 C 10.769531 185.359375 8.601562 185.476562 6.371094 185.210938 C 5.105469 184.414062 5.105469 184.414062 4.496094 183.335938 C 4.285156 182.210938 4.285156 182.210938 4.496094 181.089844 C 5.082031 180.117188 5.082031 180.117188 5.996094 179.214844 C 7 178.941406 7.859375 178.773438 8.878906 178.652344 C 11.347656 178.273438 13.328125 177.742188 15.367188 176.214844 C 16.8125 174.96875 17.886719 173.519531 18.992188 171.96875 C 19.488281 171.34375 19.488281 171.34375 20.238281 170.96875 C 20.011719 168.707031 19.550781 166.609375 18.9375 164.421875 C 18.84375 164.078125 18.75 163.738281 18.65625 163.386719 C 18.34375 162.261719 18.035156 161.140625 17.722656 160.019531 L 17.074219 157.664062 C 16.503906 155.601562 15.9375 153.539062 15.363281 151.476562 C 14.453125 148.179688 13.542969 144.882812 12.632812 141.582031 C 12.316406 140.433594 12 139.289062 11.679688 138.140625 L 11.09375 136.011719 L 10.828125 135.058594 C 9.242188 129.285156 9.242188 129.285156 9.582031 127.515625 C 10.28125 126.515625 10.894531 126.152344 11.992188 125.617188 C 13.238281 125.492188 13.238281 125.492188 14.636719 125.507812 L 15.382812 125.511719 C 16.167969 125.519531 16.949219 125.535156 17.734375 125.546875 C 18.265625 125.554688 18.800781 125.558594 19.332031 125.5625 C 20.632812 125.574219 21.9375 125.59375 23.238281 125.617188 L 23.398438 124.652344 C 23.914062 121.523438 24.433594 118.398438 24.960938 115.273438 C 25.261719 113.460938 25.566406 111.652344 25.863281 109.84375 C 26.183594 107.894531 26.511719 105.945312 26.839844 103.996094 C 26.96875 103.234375 27.09375 102.472656 27.21875 101.710938 C 27.394531 100.632812 27.578125 99.550781 27.761719 98.472656 L 27.914062 97.507812 C 28.273438 95.453125 28.851562 93.652344 29.984375 91.886719 C 31 90.921875 31.65625 90.453125 32.980469 90.011719 C 33.511719 89.980469 34.039062 89.972656 34.566406 89.976562 L 35.480469 89.980469 L 36.425781 89.988281 L 37.386719 89.992188 C 38.167969 90 38.949219 90.003906 39.730469 90.011719 L 39.839844 88.679688 C 40.101562 86.320312 40.632812 84.015625 41.171875 81.703125 C 41.34375 80.945312 41.511719 80.183594 41.679688 79.425781 C 41.792969 78.933594 41.90625 78.445312 42.019531 77.957031 L 42.320312 76.628906 C 42.769531 75.261719 43.359375 74.289062 44.226562 73.144531 C 45.195312 72.378906 45.710938 71.992188 46.851562 71.648438 C 47.628906 71.605469 48.410156 71.59375 49.191406 71.609375 L 50.417969 71.625 L 51.347656 71.648438 L 51.335938 70.582031 C 51.296875 67.261719 51.269531 63.941406 51.25 60.621094 C 51.242188 58.914062 51.226562 57.207031 51.207031 55.5 C 51.1875 53.855469 51.175781 52.207031 51.171875 50.558594 C 51.167969 49.929688 51.160156 49.304688 51.148438 48.675781 C 51.136719 47.792969 51.132812 46.914062 51.132812 46.03125 L 51.113281 45.25 C 51.121094 44.515625 51.121094 44.515625 51.347656 43.160156 C 51.890625 42.261719 52.460938 41.667969 53.222656 40.914062 C 55.292969 39.8125 57.710938 40.054688 60 40.0625 "/><path style=" stroke:none;fill-rule:nonzero;fill:#cad2d4;fill-opacity:1;" d="M 60 40.0625 L 61.328125 40.0625 C 62.25 40.0625 63.175781 40.0625 64.101562 40.066406 C 65.511719 40.070312 66.917969 40.066406 68.328125 40.0625 C 69.230469 40.0625 70.128906 40.0625 71.03125 40.0625 L 72.300781 40.058594 C 77.015625 40.085938 77.015625 40.085938 79.082031 40.914062 C 80.347656 41.679688 81.332031 42.550781 82.109375 43.816406 C 82.453125 44.539062 82.734375 45.261719 83.007812 46.007812 L 83.335938 46.859375 C 83.679688 47.753906 84.019531 48.65625 84.355469 49.558594 C 84.566406 50.117188 84.78125 50.675781 84.996094 51.234375 C 85.617188 52.847656 86.222656 54.464844 86.832031 56.082031 C 87.808594 58.675781 88.789062 61.269531 89.773438 63.867188 L 92.140625 70.125 L 92.574219 71.273438 L 93.410156 71.273438 C 100.117188 71.296875 106.824219 71.324219 113.53125 71.359375 C 116.773438 71.378906 120.019531 71.390625 123.261719 71.402344 C 126.089844 71.410156 128.917969 71.421875 131.746094 71.441406 C 133.242188 71.449219 134.738281 71.457031 136.234375 71.457031 C 137.644531 71.460938 139.054688 71.46875 140.464844 71.480469 C 141.226562 71.484375 141.988281 71.484375 142.75 71.484375 C 145.28125 71.507812 147.25 71.667969 149.546875 72.769531 C 152.402344 74.648438 154.410156 77.546875 156.449219 80.238281 C 157.5625 81.703125 158.699219 83.148438 159.828125 84.601562 L 161.703125 87.015625 L 162.289062 87.761719 L 162.972656 88.777344 L 163.789062 89.636719 C 164.835938 89.902344 164.835938 89.902344 166.003906 89.847656 L 167.316406 89.863281 L 168.683594 89.847656 C 172.484375 89.820312 175.589844 90.136719 178.949219 92.027344 C 180.875 93.222656 182.511719 94.710938 184.171875 96.246094 C 185.5 97.449219 186.890625 98.574219 188.285156 99.703125 C 189.273438 100.507812 189.273438 100.507812 190.289062 101.480469 C 191.222656 102.253906 191.5625 102.386719 192.820312 102.609375 L 194.265625 102.605469 L 195.066406 102.609375 C 195.640625 102.609375 196.210938 102.609375 196.78125 102.601562 C 197.6875 102.59375 198.589844 102.59375 199.496094 102.597656 C 201.414062 102.605469 203.332031 102.601562 205.25 102.589844 C 207.476562 102.582031 209.703125 102.582031 211.929688 102.589844 C 212.820312 102.59375 213.710938 102.585938 214.597656 102.578125 C 215.144531 102.578125 215.691406 102.578125 216.238281 102.582031 L 217.679688 102.574219 C 218.882812 102.753906 218.882812 102.753906 219.796875 103.429688 L 220.382812 104.253906 C 220.367188 106.632812 219.570312 108.597656 218.644531 110.761719 L 218.230469 111.753906 C 217.792969 112.792969 217.355469 113.828125 216.914062 114.867188 C 216.625 115.558594 216.335938 116.25 216.046875 116.941406 C 215.367188 118.558594 214.683594 120.175781 213.988281 121.789062 C 213.679688 122.523438 213.375 123.265625 213.078125 124.007812 L 212.609375 125.140625 L 212.238281 126.078125 L 211.761719 126.742188 C 210.136719 127.21875 208.484375 127.167969 206.800781 127.164062 L 205.867188 127.164062 C 204.832031 127.164062 203.796875 127.160156 202.757812 127.160156 L 200.53125 127.160156 C 198.515625 127.160156 196.5 127.15625 194.484375 127.15625 C 192.378906 127.152344 190.273438 127.152344 188.167969 127.152344 C 184.175781 127.152344 180.1875 127.148438 176.199219 127.144531 C 171.660156 127.140625 167.117188 127.136719 162.578125 127.136719 C 153.234375 127.132812 143.894531 127.125 134.554688 127.117188 L 134.183594 127.898438 L 133.6875 128.921875 L 133.203125 129.9375 C 132.328125 131.488281 131.195312 132.230469 129.726562 133.207031 C 126.855469 134.222656 123.578125 133.910156 120.582031 133.894531 L 118.96875 133.890625 C 117.511719 133.886719 116.058594 133.882812 114.601562 133.875 L 111.871094 133.863281 C 109.019531 133.851562 106.164062 133.835938 103.3125 133.820312 C 100.027344 133.800781 96.742188 133.789062 93.457031 133.78125 C 90.910156 133.773438 88.367188 133.761719 85.820312 133.746094 C 84.300781 133.738281 82.785156 133.730469 81.265625 133.726562 C 79.839844 133.726562 78.410156 133.71875 76.984375 133.703125 C 76.460938 133.699219 75.941406 133.699219 75.417969 133.703125 C 70.996094 133.710938 70.996094 133.710938 69.066406 132.789062 C 67.777344 131.949219 66.917969 131.113281 65.941406 129.929688 C 64.527344 128.304688 63.449219 127.207031 61.46875 126.367188 C 59.53125 125.941406 57.632812 125.929688 55.660156 125.914062 L 54.59375 125.90625 C 53.441406 125.894531 52.285156 125.882812 51.128906 125.875 L 48.71875 125.851562 C 46.605469 125.832031 44.496094 125.8125 42.382812 125.792969 C 40.230469 125.773438 38.074219 125.753906 35.917969 125.734375 C 31.691406 125.691406 27.464844 125.652344 23.238281 125.617188 L 24.578125 117.585938 C 25.027344 114.871094 25.480469 112.160156 25.929688 109.445312 C 26.234375 107.597656 26.542969 105.75 26.855469 103.90625 C 26.976562 103.183594 27.097656 102.460938 27.214844 101.734375 C 27.390625 100.648438 27.578125 99.5625 27.761719 98.472656 L 27.914062 97.507812 C 28.273438 95.453125 28.851562 93.652344 29.984375 91.886719 C 31 90.921875 31.65625 90.453125 32.980469 90.011719 C 33.511719 89.980469 34.039062 89.972656 34.566406 89.976562 L 35.480469 89.980469 L 36.425781 89.988281 L 37.386719 89.992188 C 38.167969 90 38.949219 90.003906 39.730469 90.011719 L 39.839844 88.679688 C 40.101562 86.320312 40.632812 84.015625 41.171875 81.703125 C 41.34375 80.945312 41.511719 80.183594 41.679688 79.425781 C 41.792969 78.933594 41.90625 78.445312 42.019531 77.957031 L 42.320312 76.628906 C 42.769531 75.261719 43.359375 74.289062 44.226562 73.144531 C 45.195312 72.378906 45.710938 71.992188 46.851562 71.648438 C 47.628906 71.605469 48.410156 71.59375 49.191406 71.609375 L 50.417969 71.625 L 51.347656 71.648438 L 51.335938 70.582031 C 51.296875 67.261719 51.269531 63.941406 51.25 60.621094 C 51.242188 58.914062 51.226562 57.207031 51.207031 55.5 C 51.1875 53.855469 51.175781 52.207031 51.171875 50.558594 C 51.167969 49.929688 51.160156 49.304688 51.148438 48.675781 C 51.136719 47.792969 51.132812 46.914062 51.132812 46.03125 L 51.113281 45.25 C 51.121094 44.515625 51.121094 44.515625 51.347656 43.160156 C 51.890625 42.261719 52.460938 41.667969 53.222656 40.914062 C 55.292969 39.8125 57.710938 40.054688 60 40.0625 "/><path style=" stroke:none;fill-rule:nonzero;fill:#fea400;fill-opacity:1;" d="M 60 40.0625 L 61.328125 40.0625 C 62.25 40.0625 63.175781 40.0625 64.101562 40.066406 C 65.511719 40.070312 66.917969 40.066406 68.328125 40.0625 C 69.230469 40.0625 70.128906 40.0625 71.03125 40.0625 L 72.300781 40.058594 C 77.015625 40.085938 77.015625 40.085938 79.082031 40.914062 C 80.347656 41.679688 81.332031 42.550781 82.109375 43.816406 C 82.453125 44.539062 82.734375 45.261719 83.007812 46.007812 L 83.335938 46.859375 C 83.679688 47.753906 84.019531 48.65625 84.355469 49.558594 C 84.566406 50.117188 84.78125 50.675781 84.996094 51.234375 C 85.617188 52.847656 86.222656 54.464844 86.832031 56.082031 C 87.808594 58.675781 88.789062 61.269531 89.773438 63.867188 L 92.140625 70.125 L 92.574219 71.273438 L 93.410156 71.273438 C 100.117188 71.296875 106.824219 71.324219 113.53125 71.359375 C 116.773438 71.378906 120.019531 71.390625 123.261719 71.402344 C 126.089844 71.410156 128.917969 71.421875 131.746094 71.441406 C 133.242188 71.449219 134.738281 71.457031 136.234375 71.457031 C 137.644531 71.460938 139.054688 71.46875 140.464844 71.480469 C 141.226562 71.484375 141.988281 71.484375 142.75 71.484375 C 145.28125 71.507812 147.25 71.667969 149.546875 72.769531 C 152.402344 74.644531 154.410156 77.546875 156.449219 80.238281 C 157.570312 81.710938 158.714844 83.164062 159.851562 84.625 C 160.292969 85.191406 160.734375 85.757812 161.175781 86.324219 L 161.746094 87.058594 L 162.289062 87.761719 L 162.921875 88.554688 L 163.414062 89.261719 L 163.414062 90.011719 L 39.730469 90.011719 C 40.046875 87.164062 40.527344 84.480469 41.171875 81.703125 C 41.34375 80.945312 41.511719 80.183594 41.679688 79.425781 C 41.792969 78.933594 41.90625 78.445312 42.019531 77.957031 L 42.320312 76.628906 C 42.769531 75.261719 43.359375 74.289062 44.226562 73.144531 C 45.195312 72.378906 45.710938 71.992188 46.851562 71.648438 C 47.628906 71.605469 48.410156 71.59375 49.191406 71.609375 L 50.417969 71.625 L 51.347656 71.648438 L 51.335938 70.582031 C 51.296875 67.261719 51.269531 63.941406 51.25 60.621094 C 51.242188 58.914062 51.226562 57.207031 51.207031 55.5 C 51.1875 53.855469 51.175781 52.207031 51.171875 50.558594 C 51.167969 49.929688 51.160156 49.304688 51.148438 48.675781 C 51.136719 47.792969 51.132812 46.914062 51.132812 46.03125 L 51.113281 45.25 C 51.121094 44.515625 51.121094 44.515625 51.347656 43.160156 C 51.890625 42.261719 52.460938 41.667969 53.222656 40.914062 C 55.292969 39.8125 57.710938 40.054688 60 40.0625 "/><path style=" stroke:none;fill-rule:nonzero;fill:#0057a3;fill-opacity:1;" d="M 43.511719 100.074219 L 44.59375 100.070312 C 45.800781 100.0625 47.003906 100.0625 48.210938 100.058594 L 50.792969 100.050781 C 53.628906 100.039062 56.460938 100.035156 59.296875 100.027344 L 62.21875 100.023438 C 67.320312 100.011719 72.425781 100.003906 77.527344 100 L 78.320312 100 C 82.554688 99.996094 86.789062 99.984375 91.027344 99.964844 C 95.371094 99.953125 99.71875 99.941406 104.066406 99.941406 C 106.507812 99.9375 108.949219 99.933594 111.390625 99.921875 C 113.683594 99.910156 115.980469 99.90625 118.277344 99.914062 C 119.121094 99.914062 119.964844 99.910156 120.808594 99.902344 C 121.957031 99.894531 123.105469 99.898438 124.257812 99.902344 L 125.273438 99.886719 C 126.15625 99.898438 126.945312 99.933594 127.808594 100.132812 C 128.839844 100.953125 129.46875 101.582031 130.054688 102.753906 C 130.144531 104.332031 130.140625 105.914062 130.144531 107.492188 C 130.148438 108.277344 130.160156 109.058594 130.171875 109.839844 C 130.175781 110.34375 130.175781 110.84375 130.179688 111.347656 L 130.1875 112.722656 C 130.039062 114.148438 129.683594 115.035156 128.929688 116.246094 C 127.808594 116.996094 127.808594 116.996094 127.105469 117.09375 L 126.296875 117.09375 L 125.363281 117.101562 L 124.339844 117.097656 L 123.25 117.101562 C 122.039062 117.109375 120.828125 117.105469 119.617188 117.105469 C 118.753906 117.109375 117.886719 117.109375 117.019531 117.113281 C 114.667969 117.121094 112.3125 117.121094 109.957031 117.125 C 107.992188 117.125 106.03125 117.125 104.066406 117.128906 C 99.699219 117.132812 95.332031 117.136719 90.96875 117.136719 L 89.378906 117.136719 C 85.125 117.136719 80.871094 117.144531 76.617188 117.152344 C 72.25 117.164062 67.886719 117.167969 63.519531 117.167969 C 61.066406 117.167969 58.617188 117.171875 56.164062 117.179688 C 53.859375 117.1875 51.554688 117.1875 49.25 117.179688 C 48.402344 117.179688 47.554688 117.183594 46.707031 117.1875 C 45.554688 117.191406 44.398438 117.1875 43.246094 117.183594 L 42.222656 117.195312 C 41.363281 117.183594 40.570312 117.160156 39.730469 116.996094 C 38.78125 116.308594 38.78125 116.308594 38.230469 115.5 C 37.566406 113.503906 37.753906 111.355469 37.746094 109.269531 C 37.738281 108.707031 37.730469 108.144531 37.722656 107.585938 C 37.707031 106.773438 37.699219 105.960938 37.695312 105.148438 L 37.679688 103.675781 C 37.855469 102.378906 37.855469 102.378906 38.566406 101.292969 C 40.046875 99.8125 41.527344 100.074219 43.511719 100.074219 "/><path style=" stroke:none;fill-rule:nonzero;fill:#065ba5;fill-opacity:1;" d="M 60 40.0625 L 61.328125 40.0625 C 62.25 40.0625 63.175781 40.0625 64.101562 40.066406 C 65.511719 40.070312 66.917969 40.066406 68.328125 40.0625 C 69.230469 40.0625 70.128906 40.0625 71.03125 40.0625 L 72.300781 40.058594 C 77.011719 40.085938 77.011719 40.085938 79.082031 40.914062 C 80.355469 41.679688 81.335938 42.554688 82.113281 43.824219 C 82.460938 44.554688 82.746094 45.289062 83.019531 46.050781 L 83.347656 46.894531 C 83.699219 47.800781 84.039062 48.714844 84.375 49.628906 C 84.617188 50.261719 84.859375 50.894531 85.101562 51.527344 C 85.601562 52.832031 86.097656 54.136719 86.589844 55.445312 C 87.304688 57.34375 88.035156 59.238281 88.777344 61.125 C 89.113281 61.996094 89.453125 62.867188 89.792969 63.738281 C 90.007812 64.292969 90.222656 64.847656 90.441406 65.402344 C 90.738281 66.171875 91.039062 66.941406 91.332031 67.714844 L 91.84375 69.035156 C 92.199219 70.148438 92.199219 70.148438 92.199219 71.648438 L 51.347656 71.648438 L 51.230469 57.546875 L 51.179688 53.101562 C 51.171875 51.300781 51.171875 51.300781 51.167969 50.460938 C 51.164062 49.875 51.160156 49.289062 51.148438 48.703125 C 51.136719 47.8125 51.132812 46.921875 51.136719 46.03125 L 51.113281 45.25 C 51.121094 44.511719 51.121094 44.511719 51.347656 43.160156 C 51.890625 42.261719 52.460938 41.667969 53.222656 40.914062 C 55.292969 39.8125 57.710938 40.054688 60 40.0625 "/><path style=" stroke:none;fill-rule:nonzero;fill:#0057a3;fill-opacity:1;" d="M 156.3125 102.519531 C 156.992188 102.515625 157.675781 102.515625 158.355469 102.511719 C 160.195312 102.503906 162.035156 102.507812 163.878906 102.515625 C 165.804688 102.523438 167.734375 102.519531 169.664062 102.515625 C 172.898438 102.515625 176.132812 102.519531 179.371094 102.53125 C 183.113281 102.542969 186.851562 102.542969 190.59375 102.535156 C 194.195312 102.53125 197.796875 102.535156 201.402344 102.539062 C 202.933594 102.542969 204.464844 102.542969 205.996094 102.539062 C 207.800781 102.535156 209.601562 102.539062 211.40625 102.550781 C 212.066406 102.554688 212.726562 102.554688 213.390625 102.550781 C 214.292969 102.546875 215.195312 102.554688 216.097656 102.5625 L 216.890625 102.554688 C 217.625 102.566406 217.625 102.566406 218.882812 102.753906 C 219.804688 103.433594 219.804688 103.433594 220.382812 104.253906 C 220.433594 107.015625 219.214844 109.417969 218.132812 111.914062 L 217.605469 113.164062 C 216.324219 116.183594 216.324219 116.183594 215.882812 116.621094 C 214.902344 116.660156 213.933594 116.671875 212.953125 116.667969 L 212.007812 116.667969 C 210.957031 116.667969 209.90625 116.667969 208.859375 116.664062 L 206.609375 116.664062 C 204.566406 116.664062 202.523438 116.664062 200.484375 116.660156 C 198.351562 116.660156 196.21875 116.65625 194.089844 116.65625 C 190.050781 116.65625 186.011719 116.652344 181.972656 116.648438 C 177.375 116.644531 172.777344 116.644531 168.179688 116.640625 C 158.71875 116.636719 149.261719 116.632812 139.800781 116.621094 C 140.285156 114.5625 141.253906 112.738281 142.167969 110.835938 L 142.71875 109.660156 L 143.261719 108.519531 L 143.753906 107.484375 C 144.511719 106.117188 145.191406 105.074219 146.46875 104.136719 C 149.601562 102.3125 152.808594 102.492188 156.3125 102.519531 "/><path style=" stroke:none;fill-rule:nonzero;fill:#fea400;fill-opacity:1;" d="M 139.425781 116.246094 L 215.886719 116.621094 C 215.09375 119 214.289062 121.265625 213.308594 123.554688 L 212.9375 124.476562 L 212.5625 125.347656 L 212.230469 126.132812 L 211.761719 126.742188 C 210.128906 127.214844 208.484375 127.164062 206.800781 127.148438 L 205.867188 127.144531 C 204.832031 127.140625 203.796875 127.132812 202.757812 127.125 L 200.53125 127.113281 C 198.515625 127.105469 196.5 127.09375 194.484375 127.078125 C 192.378906 127.066406 190.273438 127.054688 188.167969 127.042969 C 184.179688 127.023438 180.1875 127 176.199219 126.976562 C 171.660156 126.953125 167.117188 126.925781 162.578125 126.902344 C 153.234375 126.851562 143.894531 126.796875 134.554688 126.742188 C 135.980469 123.121094 137.675781 119.75 139.425781 116.246094 "/><path style=" stroke:none;fill-rule:nonzero;fill:#0057a3;fill-opacity:1;" d="M 51.347656 58.152344 L 87.328125 58.152344 C 88.476562 60.730469 89.570312 63.332031 90.609375 65.953125 L 91.074219 67.117188 L 91.515625 68.234375 L 91.914062 69.238281 C 92.199219 70.148438 92.199219 70.148438 92.199219 71.648438 L 51.347656 71.648438 Z M 51.347656 58.152344 "/><path style=" stroke:none;fill-rule:nonzero;fill:#b8bfc2;fill-opacity:1;" d="M 34.648438 89.976562 L 35.613281 89.980469 L 36.613281 89.988281 L 37.628906 89.992188 C 38.453125 90 39.277344 90.003906 40.105469 90.011719 C 39.539062 90.996094 39.007812 91.855469 38.234375 92.6875 C 37.246094 94.09375 37.042969 95.335938 36.769531 97.011719 L 36.597656 97.984375 C 36.410156 99.042969 36.230469 100.101562 36.050781 101.164062 C 35.921875 101.894531 35.792969 102.628906 35.664062 103.363281 C 35.332031 105.273438 35.003906 107.183594 34.679688 109.09375 C 34.417969 110.617188 34.15625 112.136719 33.894531 113.65625 C 33.207031 117.640625 32.527344 121.628906 31.859375 125.617188 L 23.238281 125.617188 C 23.804688 122.167969 24.378906 118.71875 24.960938 115.273438 C 25.261719 113.460938 25.566406 111.652344 25.863281 109.84375 C 26.183594 107.894531 26.511719 105.945312 26.839844 103.996094 C 26.96875 103.234375 27.09375 102.472656 27.21875 101.710938 C 27.394531 100.632812 27.578125 99.550781 27.761719 98.472656 L 27.914062 97.507812 C 28.273438 95.453125 28.851562 93.652344 29.984375 91.886719 C 31.46875 90.472656 32.617188 89.960938 34.648438 89.976562 "/><path style=" stroke:none;fill-rule:nonzero;fill:#e69502;fill-opacity:1;" d="M 49.894531 71.5 L 50.738281 71.507812 C 51.621094 71.515625 52.503906 71.535156 53.386719 71.554688 C 53.988281 71.5625 54.589844 71.566406 55.191406 71.574219 C 56.660156 71.589844 58.125 71.617188 59.59375 71.648438 C 59.5 72.28125 59.5 72.28125 59.21875 73.144531 L 58.5 73.976562 C 57.488281 75.328125 57.210938 76.570312 56.847656 78.195312 L 56.628906 79.113281 C 56.402344 80.074219 56.183594 81.039062 55.960938 82 C 55.738281 82.964844 55.507812 83.929688 55.28125 84.894531 C 55.140625 85.496094 55.003906 86.09375 54.863281 86.695312 C 54.605469 87.816406 54.335938 88.917969 53.972656 90.011719 L 39.730469 90.011719 C 40.046875 87.164062 40.527344 84.480469 41.171875 81.703125 C 41.34375 80.945312 41.511719 80.183594 41.679688 79.425781 C 41.792969 78.933594 41.90625 78.445312 42.019531 77.957031 L 42.320312 76.628906 C 42.78125 75.226562 43.289062 74.289062 44.226562 73.144531 C 45.980469 71.714844 47.65625 71.433594 49.894531 71.5 "/><path style=" stroke:none;fill-rule:nonzero;fill:#fea400;fill-opacity:1;" d="M 51.347656 51.40625 L 85.078125 51.40625 C 87.328125 57.40625 87.328125 57.40625 87.328125 58.152344 L 51.347656 58.152344 Z M 51.347656 51.40625 "/><path style=" stroke:none;fill-rule:nonzero;fill:#cad2d4;fill-opacity:1;" d="M 95.199219 145.109375 C 96.675781 145.527344 97.765625 146.191406 98.871094 147.253906 C 99.714844 148.261719 100.316406 149.1875 100.707031 150.445312 C 100.945312 151.914062 100.867188 153.132812 100.398438 154.546875 C 99.753906 156 98.980469 157.117188 97.824219 158.226562 C 96.554688 159 95.375 159.328125 93.890625 159.386719 C 92.363281 159.292969 91.003906 159.046875 89.625 158.367188 C 88.203125 157.285156 87.722656 156.445312 86.953125 154.851562 L 86.578125 154.101562 C 86.414062 152.457031 86.332031 150.785156 86.820312 149.191406 C 87.601562 147.679688 88.695312 146.761719 90.070312 145.835938 C 91.71875 144.910156 93.367188 144.902344 95.199219 145.109375 M 149.921875 145.109375 C 151.585938 145.628906 152.726562 146.425781 153.996094 147.613281 C 154.808594 148.878906 155.246094 149.847656 155.511719 151.316406 C 155.570312 153 155.082031 154.445312 154.417969 155.976562 C 153.800781 157.070312 153.253906 157.636719 152.203125 158.308594 C 151 158.9375 149.949219 159.324219 148.585938 159.410156 C 147.054688 159.3125 145.71875 159.039062 144.34375 158.34375 C 143.085938 157.414062 142.429688 156.589844 141.675781 155.226562 C 141.09375 153.488281 141.121094 151.796875 141.300781 149.980469 C 141.648438 148.847656 142.039062 148.332031 142.796875 147.355469 C 145 145.433594 147.003906 144.773438 149.921875 145.109375 M 40.476562 145.109375 C 41.796875 145.488281 42.722656 145.882812 43.738281 146.8125 C 44.636719 147.792969 45.292969 148.738281 45.890625 149.933594 C 46.175781 151.523438 46.066406 152.902344 45.726562 154.476562 C 45.191406 155.9375 44.660156 156.667969 43.546875 157.757812 C 42.328125 158.617188 41.566406 159.070312 40.105469 159.351562 C 38.21875 159.375 36.761719 159.191406 35.089844 158.296875 C 32.796875 156.382812 32.796875 156.382812 32.140625 154.96875 C 31.78125 153.390625 31.679688 151.964844 31.859375 150.355469 C 32.261719 149.089844 32.753906 148.335938 33.683594 147.398438 C 35.90625 145.386719 37.496094 144.84375 40.476562 145.109375 "/><path style=" stroke:none;fill-rule:nonzero;fill:#fefefe;fill-opacity:1;" d="M 67.839844 145.109375 C 69.320312 145.527344 70.414062 146.191406 71.511719 147.269531 C 72.488281 148.453125 73.199219 149.558594 73.484375 151.082031 C 73.578125 152.851562 73.089844 154.390625 72.335938 155.976562 C 71.6875 157.105469 70.9375 157.9375 69.804688 158.625 C 68.367188 159.273438 67.113281 159.421875 65.542969 159.328125 C 64.28125 159.148438 63.601562 158.914062 62.449219 158.296875 C 60.164062 156.390625 60.164062 156.390625 59.5 154.992188 C 59.117188 153.28125 58.957031 151.722656 59.21875 149.980469 C 59.679688 148.824219 60.269531 147.910156 61.09375 146.980469 C 63.28125 145.273438 65.121094 144.804688 67.839844 145.109375 M 122.558594 145.109375 C 123.953125 145.542969 125.089844 146.160156 126.148438 147.167969 C 126.933594 148.074219 127.425781 148.839844 127.808594 149.980469 C 127.972656 151.675781 128.039062 153.347656 127.539062 154.988281 C 126.96875 156.203125 126.371094 157.039062 125.417969 157.992188 C 124.296875 158.683594 123.480469 159.082031 122.183594 159.351562 C 120.355469 159.378906 118.636719 159.191406 116.984375 158.367188 C 115.566406 157.285156 115.082031 156.445312 114.3125 154.851562 L 113.9375 154.101562 C 113.773438 152.457031 113.691406 150.785156 114.183594 149.191406 C 114.960938 147.679688 116.054688 146.761719 117.429688 145.835938 C 119.074219 144.914062 120.730469 144.898438 122.558594 145.109375 M 176.90625 145.109375 C 178.402344 145.589844 179.371094 146.09375 180.558594 147.121094 C 182.078125 148.894531 182.078125 148.894531 182.527344 149.980469 C 182.75 151.695312 182.769531 153.324219 182.253906 154.984375 C 181.699219 156.191406 181.089844 157.035156 180.160156 157.992188 C 178.933594 158.734375 177.949219 159.089844 176.53125 159.351562 C 174.804688 159.378906 173.273438 159.132812 171.730469 158.34375 C 170.449219 157.414062 169.796875 156.601562 169.035156 155.226562 C 168.457031 153.488281 168.476562 151.792969 168.660156 149.980469 C 169.03125 148.890625 169.441406 148.292969 170.160156 147.355469 C 171.003906 146.816406 171.003906 146.816406 171.660156 146.605469 L 171.660156 145.855469 C 173.414062 145.15625 175.027344 144.875 176.90625 145.109375 "/><path style=" stroke:none;fill-rule:nonzero;fill:#e69400;fill-opacity:1;" d="M 139.425781 116.246094 C 144.191406 116.207031 148.914062 116.273438 153.667969 116.621094 C 152.6875 119.3125 151.460938 121.847656 150.160156 124.390625 C 149.476562 125.515625 149.476562 125.515625 149.171875 126.742188 L 134.554688 126.742188 C 135.660156 124.085938 136.738281 121.511719 138.042969 118.964844 L 138.449219 118.160156 C 138.773438 117.523438 139.101562 116.882812 139.425781 116.246094 M 51.347656 51.40625 L 62.964844 51.40625 C 63.339844 56.28125 63.339844 56.28125 62.964844 58.152344 L 51.347656 58.152344 Z M 51.347656 51.40625 "/><path style=" stroke:none;fill-rule:nonzero;fill:#0063be;fill-opacity:1;" d="M 211.011719 126.742188 L 211.386719 127.867188 C 211.019531 128.941406 211.019531 128.941406 210.429688 130.28125 L 210.105469 131.023438 C 209.871094 131.5625 209.636719 132.101562 209.398438 132.636719 C 208.75 134.101562 208.113281 135.574219 207.472656 137.042969 L 207.058594 137.988281 C 205.214844 142.234375 203.445312 146.515625 201.667969 150.792969 C 201.246094 151.800781 200.828125 152.808594 200.40625 153.816406 L 200.03125 154.722656 C 199.375 156.296875 198.679688 157.832031 197.894531 159.351562 C 197.472656 158.710938 197.472656 158.710938 197.144531 157.851562 C 197.402344 157 197.402344 157 197.894531 156.046875 C 198.71875 154.371094 199.464844 152.660156 200.144531 150.917969 C 200.910156 148.972656 201.734375 147.054688 202.613281 145.15625 C 203.3125 143.605469 203.960938 142.039062 204.617188 140.46875 C 205.644531 138.003906 206.730469 135.5625 207.871094 133.144531 C 208.617188 131.476562 209.242188 129.769531 209.859375 128.046875 L 210.261719 127.117188 Z M 172.78125 144.359375 C 176.742188 144.164062 176.742188 144.164062 178.429688 144.851562 C 179.527344 145.480469 179.527344 145.480469 180.277344 146.605469 L 179.671875 146.359375 C 177.445312 145.527344 175.527344 145.347656 173.15625 145.480469 Z M 172.78125 144.359375 "/></g></svg>