<svg xmlns="http://www.w3.org/2000/svg" xmlns:xlink="http://www.w3.org/1999/xlink" width="300" zoomAndPan="magnify" viewBox="0 0 224.87999 225" height="300" preserveAspectRatio="xMidYMid meet" version="1.2"><g id="65ec4adc9e"><path style=" stroke:none;fill-rule:nonzero;fill:#dde5ec;fill-opacity:1;" d="M 53.972656 112.875 L 55.84375 113.25 L 56.21875 114.75 C 60.371094 114.757812 64.523438 114.765625 68.671875 114.769531 C 70.601562 114.769531 72.527344 114.773438 74.457031 114.777344 C 76.316406 114.78125 78.179688 114.785156 80.039062 114.785156 C 80.75 114.785156 81.457031 114.785156 82.167969 114.789062 C 83.164062 114.789062 84.15625 114.792969 85.152344 114.792969 L 86.035156 114.796875 C 87.421875 114.792969 88.757812 114.726562 90.132812 114.535156 L 91.453125 114.375 L 91.824219 114.75 L 91.710938 115.921875 L 91.824219 117.371094 C 92.328125 118.09375 92.878906 118.683594 93.507812 119.292969 C 94.269531 120.234375 94.519531 121.074219 94.824219 122.246094 C 94.929688 123.164062 95.007812 124.085938 95.058594 125.007812 L 95.144531 126.421875 L 95.199219 127.492188 L 96.226562 127.519531 C 100.914062 127.738281 100.914062 127.738281 103.082031 128.859375 C 104.464844 129.808594 105.550781 130.949219 106.441406 132.363281 C 107.453125 134.648438 107.734375 136.496094 107.714844 138.980469 L 107.71875 140.003906 C 107.722656 140.710938 107.71875 141.421875 107.714844 142.128906 C 107.707031 143.207031 107.714844 144.28125 107.722656 145.359375 C 107.71875 146.050781 107.71875 146.746094 107.714844 147.4375 L 107.722656 148.398438 C 107.695312 150.9375 107.195312 153.207031 105.890625 155.410156 C 104.757812 156.710938 103.679688 157.675781 102.109375 158.414062 C 100.070312 158.976562 100.070312 158.976562 94.824219 158.976562 L 94.824219 170.21875 C 96.996094 170.175781 96.996094 170.175781 99.164062 170.117188 L 99.984375 170.109375 L 100.824219 170.089844 L 101.570312 170.21875 C 102.230469 170.789062 102.230469 170.789062 102.695312 171.34375 L 102.320312 172.46875 C 101.304688 172.804688 100.730469 172.886719 99.691406 172.878906 L 98.832031 172.875 L 97.941406 172.867188 L 97.035156 172.859375 C 96.296875 172.855469 95.5625 172.851562 94.824219 172.84375 L 94.832031 174.230469 C 94.855469 178.554688 94.871094 182.878906 94.882812 187.199219 C 94.886719 189.421875 94.898438 191.644531 94.910156 193.867188 C 94.921875 196.015625 94.929688 198.160156 94.929688 200.304688 C 94.933594 201.125 94.9375 201.941406 94.941406 202.757812 C 94.953125 203.90625 94.953125 205.054688 94.953125 206.203125 L 94.964844 207.21875 C 94.953125 209.382812 94.59375 210.972656 93.699219 212.945312 C 93.011719 213.785156 93.011719 213.785156 92.269531 214.398438 L 91.539062 215.027344 C 90.21875 215.882812 89.050781 216.273438 87.476562 216.394531 C 86.320312 216.433594 85.164062 216.441406 84.003906 216.4375 L 82.808594 216.457031 C 80.421875 216.457031 78.609375 216.257812 76.460938 215.195312 C 75.617188 214.507812 75.617188 214.507812 75.007812 213.765625 L 74.378906 213.03125 C 73.835938 212.195312 73.835938 212.195312 73.085938 209.949219 L 73.085938 200.578125 L 40.851562 200.578125 L 40.476562 211.074219 C 38.394531 214.402344 38.394531 214.402344 36.636719 215.605469 C 34.585938 216.671875 32.183594 216.433594 29.9375 216.460938 L 28.699219 216.503906 C 26.171875 216.53125 24.359375 216.1875 22.125 214.984375 C 20.878906 214.101562 20.25 213.144531 19.488281 211.820312 C 19.097656 210.652344 19.0625 209.828125 19.054688 208.597656 L 19.042969 207.277344 L 19.039062 205.820312 L 19.027344 204.292969 C 19.015625 202.910156 19.007812 201.523438 19 200.140625 C 18.992188 198.691406 18.984375 197.246094 18.972656 195.800781 C 18.953125 193.058594 18.9375 190.320312 18.921875 187.582031 C 18.902344 184.460938 18.882812 181.34375 18.859375 178.222656 C 18.820312 171.808594 18.777344 165.390625 18.738281 158.976562 L 17.664062 159 L 16.242188 159.023438 L 14.839844 159.046875 C 13.171875 158.957031 11.996094 158.542969 10.566406 157.707031 C 9.191406 156.691406 8.042969 155.546875 7.121094 154.101562 C 6.257812 152.082031 6.257812 150.210938 6.257812 148.050781 L 6.253906 146.945312 C 6.25 146.179688 6.25 145.410156 6.253906 144.644531 C 6.253906 143.472656 6.246094 142.304688 6.234375 141.136719 C 6.234375 140.386719 6.234375 139.640625 6.234375 138.890625 L 6.226562 137.839844 C 6.242188 135.632812 6.585938 134.007812 7.496094 131.988281 C 8.617188 130.203125 10.164062 129.21875 11.992188 128.242188 C 13.351562 127.789062 14.589844 127.828125 16 127.84375 L 16.796875 127.847656 C 17.445312 127.851562 18.09375 127.859375 18.738281 127.867188 L 18.78125 126.742188 C 18.929688 123.582031 19.148438 120.984375 20.871094 118.238281 C 22.140625 116.96875 23.644531 115.855469 25.367188 115.292969 C 26.546875 115.0625 27.683594 115.0625 28.882812 115.046875 L 29.683594 115.035156 C 30.550781 115.023438 31.417969 115.015625 32.285156 115.003906 L 34.09375 114.980469 C 35.679688 114.960938 37.261719 114.941406 38.847656 114.925781 C 40.464844 114.90625 42.085938 114.886719 43.703125 114.863281 C 46.875 114.824219 50.046875 114.785156 53.222656 114.75 Z M 53.972656 112.875 "/><path style=" stroke:none;fill-rule:nonzero;fill:#fda501;fill-opacity:1;" d="M 137.925781 8.800781 C 140.464844 8.921875 142.539062 10.371094 144.671875 11.632812 C 145.128906 11.894531 145.582031 12.15625 146.039062 12.414062 C 147.335938 13.160156 148.628906 13.917969 149.921875 14.675781 L 151.65625 15.6875 C 152.644531 16.265625 153.632812 16.847656 154.617188 17.433594 C 156.734375 18.691406 158.867188 19.914062 161 21.140625 C 164.554688 23.1875 168.097656 25.246094 171.636719 27.320312 C 172.335938 27.730469 173.042969 28.128906 173.753906 28.523438 C 174.75 29.125 175.621094 29.738281 176.542969 30.441406 C 178.984375 32.195312 181.4375 33.644531 184.464844 34.035156 C 188.464844 34.410156 192.503906 34.292969 196.515625 34.210938 C 199.109375 34.160156 201.703125 34.152344 204.296875 34.140625 C 205.195312 34.132812 206.09375 34.117188 206.992188 34.097656 L 208.640625 34.074219 L 210.089844 34.046875 C 211.523438 34.179688 212.410156 34.546875 213.636719 35.292969 C 214.304688 36.003906 214.679688 36.535156 214.972656 37.464844 C 215.160156 38.417969 215.183594 39.300781 215.183594 40.273438 L 215.1875 41.4375 L 215.183594 42.648438 L 215.1875 43.832031 C 215.179688 48.9375 215.179688 48.9375 214.761719 51.03125 L 214.011719 52.15625 L 214.691406 52.460938 C 215.53125 52.917969 216.015625 53.308594 216.632812 54.03125 C 217.070312 55.164062 217.125 56.199219 217.007812 57.40625 C 216.429688 58.882812 215.597656 60.179688 214.761719 61.527344 C 214.347656 62.246094 213.9375 62.964844 213.527344 63.6875 C 212.945312 64.71875 212.351562 65.746094 211.761719 66.773438 L 214.386719 67.148438 C 215.269531 68.886719 215.238281 70.449219 215.207031 72.347656 L 215.195312 73.296875 C 215.179688 74.246094 215.160156 75.195312 215.136719 76.144531 L 215.121094 76.996094 C 215.101562 77.757812 215.070312 78.519531 215.042969 79.285156 L 214.988281 80.605469 C 214.761719 81.765625 214.761719 81.765625 214.109375 82.8125 C 213.183594 83.714844 212.609375 84.003906 211.386719 84.390625 C 210.246094 84.476562 210.246094 84.476562 208.988281 84.464844 L 207.625 84.457031 L 206.210938 84.4375 L 204.773438 84.425781 C 203.605469 84.417969 202.4375 84.40625 201.265625 84.390625 L 200.953125 85.210938 C 200.230469 86.957031 199.269531 88.5625 198.339844 90.199219 L 197.746094 91.265625 C 195.667969 94.925781 195.667969 94.925781 194.144531 96.007812 C 192.984375 96.417969 191.996094 96.515625 190.773438 96.382812 C 189.417969 95.910156 188.230469 95.222656 187 94.488281 L 185.9375 93.878906 C 184.796875 93.21875 183.660156 92.554688 182.527344 91.886719 C 181.71875 91.417969 180.90625 90.949219 180.097656 90.484375 C 178.5625 89.597656 177.03125 88.707031 175.503906 87.8125 C 175.164062 87.613281 174.820312 87.414062 174.472656 87.210938 C 173.53125 86.640625 173.53125 86.640625 172.777344 86.078125 C 171.660156 85.261719 170.808594 84.808594 169.425781 84.585938 C 168.167969 84.5 166.921875 84.46875 165.660156 84.460938 L 164.347656 84.433594 C 163.285156 84.410156 162.226562 84.394531 161.164062 84.390625 L 160.789062 86.265625 L 158.914062 85.890625 L 158.914062 84.390625 L 157.589844 84.398438 C 153.472656 84.421875 149.351562 84.4375 145.230469 84.449219 C 143.113281 84.453125 140.996094 84.460938 138.878906 84.476562 C 136.832031 84.488281 134.789062 84.492188 132.746094 84.496094 C 131.964844 84.5 131.1875 84.503906 130.40625 84.507812 C 129.316406 84.515625 128.222656 84.519531 127.132812 84.519531 L 126.152344 84.53125 C 124.761719 84.523438 123.859375 84.472656 122.585938 83.871094 C 121.605469 83.105469 120.964844 82.460938 120.3125 81.390625 C 120.183594 80.347656 120.132812 79.460938 120.164062 78.421875 C 120.167969 78.140625 120.167969 77.859375 120.171875 77.570312 C 120.179688 76.683594 120.199219 75.792969 120.21875 74.902344 C 120.222656 74.296875 120.230469 73.691406 120.238281 73.085938 C 120.253906 71.605469 120.28125 70.128906 120.3125 68.648438 L 119.390625 68.894531 L 118.179688 69.210938 L 116.980469 69.527344 C 115.921875 69.75 115.015625 69.820312 113.9375 69.773438 L 113.5625 67.898438 C 119.238281 65.648438 119.238281 65.648438 121.808594 65.648438 L 122.183594 67.148438 C 123.242188 66.820312 124.199219 66.519531 125.183594 66.023438 C 125.828125 65.109375 125.828125 65.109375 126.308594 64.152344 L 127.269531 63.589844 C 128.214844 63.097656 128.214844 63.097656 128.671875 62.253906 C 129.058594 60.609375 129.136719 59.082031 128.929688 57.40625 C 128.429688 55.765625 127.628906 54.628906 126.496094 53.351562 C 125.070312 52.261719 123.351562 51.988281 121.628906 51.625 L 120.6875 51.40625 L 120.3125 51.03125 C 120.261719 50.027344 120.238281 49.035156 120.234375 48.027344 L 120.226562 47.109375 C 120.226562 46.46875 120.222656 45.824219 120.222656 45.183594 C 120.21875 44.203125 120.207031 43.222656 120.195312 42.242188 C 120.191406 41.617188 120.1875 40.992188 120.1875 40.367188 L 120.171875 39.480469 C 120.179688 38.191406 120.273438 37.246094 120.820312 36.070312 C 121.433594 35.292969 121.433594 35.292969 122.375 34.628906 C 124.175781 33.996094 125.867188 33.953125 127.761719 33.910156 L 128.867188 33.871094 C 129.761719 33.839844 130.660156 33.8125 131.554688 33.792969 L 132.105469 32.570312 L 132.417969 31.882812 C 132.875 30.632812 132.886719 29.464844 132.679688 28.171875 C 132.226562 26.523438 131.605469 25.238281 130.414062 24 C 129.691406 23.363281 128.949219 22.753906 128.179688 22.171875 C 129.667969 19.089844 131.199219 16.039062 132.9375 13.085938 L 133.339844 12.382812 C 134.503906 10.441406 135.582031 9.019531 137.925781 8.800781 "/><path style=" stroke:none;fill-rule:nonzero;fill:#0159a6;fill-opacity:1;" d="M 155.542969 115.125 C 156.539062 114.890625 156.539062 114.890625 157.691406 114.894531 L 158.996094 114.882812 L 160.402344 114.902344 L 161.851562 114.902344 C 162.863281 114.902344 163.871094 114.910156 164.882812 114.921875 C 166.175781 114.933594 167.46875 114.9375 168.761719 114.933594 C 169.996094 114.933594 171.234375 114.941406 172.46875 114.949219 L 173.878906 114.949219 L 175.179688 114.964844 C 175.558594 114.96875 175.9375 114.972656 176.328125 114.976562 C 177.28125 115.125 177.28125 115.125 177.964844 115.566406 C 178.40625 116.246094 178.40625 116.246094 178.539062 117.179688 L 178.53125 118.300781 L 178.53125 119.574219 L 178.515625 120.949219 L 178.507812 122.355469 C 178.503906 123.589844 178.496094 124.820312 178.480469 126.054688 C 178.46875 127.3125 178.464844 128.570312 178.460938 129.832031 C 178.445312 132.300781 178.429688 134.769531 178.40625 137.238281 L 179.601562 137.214844 C 181.074219 137.1875 182.550781 137.167969 184.023438 137.15625 C 184.660156 137.148438 185.296875 137.136719 185.933594 137.125 C 186.851562 137.105469 187.769531 137.097656 188.6875 137.089844 L 189.542969 137.066406 C 190.929688 137.066406 192.058594 137.199219 193.316406 137.808594 C 194.25 138.457031 194.652344 138.925781 195.332031 139.898438 C 196.515625 142.417969 196.226562 145.324219 196.214844 148.046875 C 196.214844 148.691406 196.21875 149.332031 196.222656 149.972656 C 196.230469 151.710938 196.226562 153.449219 196.222656 155.183594 C 196.21875 157.003906 196.222656 158.824219 196.222656 160.648438 C 196.226562 163.703125 196.222656 166.761719 196.214844 169.820312 C 196.207031 173.347656 196.210938 176.878906 196.21875 180.410156 C 196.226562 183.445312 196.226562 186.484375 196.222656 189.519531 C 196.21875 191.328125 196.21875 193.140625 196.222656 194.953125 C 196.230469 196.65625 196.226562 198.359375 196.214844 200.0625 C 196.214844 200.683594 196.214844 201.308594 196.21875 201.933594 C 196.246094 207.222656 196.246094 207.222656 195.308594 209.183594 C 194.519531 210.324219 194.519531 210.324219 193.722656 210.863281 L 193.023438 211.445312 C 192.8125 212.226562 192.8125 212.226562 192.671875 213.109375 C 192.433594 214.367188 192.300781 214.785156 191.453125 215.804688 C 190.398438 216.320312 190.398438 216.320312 189.0625 216.367188 L 187.773438 215.945312 C 186.863281 214.890625 186.863281 214.890625 186.277344 213.695312 L 186.277344 212.195312 L 146.171875 212.195312 L 146.171875 214.445312 C 145.398438 215.546875 145.398438 215.546875 144.296875 216.320312 C 142.964844 216.367188 142.964844 216.367188 141.675781 215.945312 C 140.785156 215.148438 140.785156 215.148438 140.175781 214.070312 L 140.011719 212.734375 L 139.800781 211.445312 C 138.914062 210.65625 138.914062 210.65625 137.925781 209.949219 C 137.292969 208.96875 136.855469 208.105469 136.703125 206.9375 C 136.664062 206.039062 136.664062 205.144531 136.675781 204.246094 L 136.675781 203.210938 C 136.675781 202.09375 136.683594 200.972656 136.691406 199.855469 C 136.695312 199.078125 136.695312 198.296875 136.695312 197.519531 C 136.699219 195.476562 136.710938 193.429688 136.726562 191.386719 C 136.734375 189.300781 136.742188 187.210938 136.746094 185.125 C 136.757812 181.03125 136.777344 176.9375 136.800781 172.84375 L 135.597656 172.855469 L 134.039062 172.867188 L 133.246094 172.875 C 131.265625 172.886719 131.265625 172.886719 130.429688 172.46875 L 130.429688 170.59375 C 132.332031 169.640625 134.675781 170.21875 136.800781 170.21875 L 136.800781 140.984375 L 132.679688 140.984375 L 131.929688 140.609375 L 131.929688 138.734375 C 133.339844 138.03125 135.128906 138.222656 136.691406 138.167969 L 137.535156 138.128906 L 138.308594 138.101562 C 139.066406 138.03125 139.066406 138.03125 139.695312 137.609375 C 141.003906 137.039062 142.328125 137.144531 143.730469 137.164062 L 144.65625 137.167969 C 145.628906 137.171875 146.605469 137.179688 147.578125 137.191406 C 148.238281 137.195312 148.898438 137.199219 149.5625 137.199219 C 151.179688 137.207031 152.800781 137.222656 154.417969 137.238281 L 154.382812 136.386719 C 154.25 133.046875 154.140625 129.707031 154.042969 126.367188 L 154 124.964844 C 153.96875 123.683594 153.941406 122.402344 153.925781 121.121094 L 153.890625 119.945312 L 153.882812 118.847656 L 153.867188 117.898438 C 154.042969 116.996094 154.042969 116.996094 154.667969 116.019531 Z M 158.164062 120.746094 C 156.980469 124.304688 157.378906 128.582031 157.367188 132.292969 L 157.363281 133.628906 L 157.367188 134.878906 L 157.367188 136.007812 L 157.414062 136.863281 L 157.789062 137.238281 C 158.332031 137.273438 158.875 137.28125 159.414062 137.28125 L 160.460938 137.28125 L 161.597656 137.273438 L 162.757812 137.273438 C 163.984375 137.269531 165.207031 137.265625 166.433594 137.261719 C 167.261719 137.257812 168.09375 137.257812 168.921875 137.253906 C 170.957031 137.25 172.996094 137.246094 175.03125 137.238281 C 175.039062 135.550781 175.046875 133.863281 175.050781 132.179688 C 175.054688 131.609375 175.058594 131.035156 175.058594 130.464844 C 175.066406 129.632812 175.066406 128.804688 175.066406 127.976562 L 175.074219 127.222656 C 175.074219 125.023438 174.859375 122.964844 174.65625 120.746094 Z M 158.164062 120.746094 "/><path style=" stroke:none;fill-rule:nonzero;fill:#dde5ec;fill-opacity:1;" d="M 104.945312 5.683594 C 105.96875 6.195312 106.414062 6.675781 107.191406 7.554688 C 107.707031 9.101562 107.757812 10.453125 107.566406 12.054688 C 105.5 20.464844 100.324219 27.242188 94.445312 33.414062 C 93.128906 34.761719 91.769531 36.054688 90.394531 37.34375 C 89.3125 38.359375 88.238281 39.390625 87.164062 40.417969 C 86.621094 40.933594 86.070312 41.441406 85.515625 41.949219 C 82.988281 44.210938 82.988281 44.210938 80.957031 46.910156 C 80.722656 48.003906 80.722656 48.003906 81.039062 49.054688 C 81.371094 49.84375 81.71875 50.628906 82.082031 51.40625 C 82.371094 52.269531 82.632812 53.140625 82.890625 54.011719 C 83.179688 54.96875 83.472656 55.917969 83.777344 56.867188 L 84.085938 57.832031 C 84.191406 58.15625 84.292969 58.476562 84.398438 58.808594 L 85.035156 60.808594 C 85.546875 62.421875 86.0625 64.035156 86.578125 65.648438 L 87.265625 65.226562 L 88.171875 64.6875 L 89.066406 64.148438 C 89.953125 63.777344 89.953125 63.777344 90.730469 63.835938 C 92.140625 64.453125 93.117188 65.609375 94.191406 66.679688 L 94.941406 67.386719 C 95.589844 68.03125 96.179688 68.640625 96.699219 69.398438 C 96.691406 70.710938 96.207031 71.632812 95.574219 72.769531 L 97.449219 72.394531 L 98.199219 74.269531 L 96.910156 74.738281 C 95.730469 75.183594 94.558594 75.652344 93.394531 76.144531 L 92.570312 76.496094 C 91.746094 76.9375 91.265625 77.273438 90.703125 78.019531 C 90.722656 78.878906 90.722656 78.878906 91.035156 79.851562 L 91.378906 81.066406 C 92.429688 84.515625 93.5625 87.945312 94.707031 91.367188 C 95.046875 92.382812 95.378906 93.402344 95.707031 94.421875 L 96.027344 95.359375 C 96.492188 96.804688 96.703125 97.808594 96.617188 99.347656 C 96.164062 101.136719 95.105469 102.066406 93.851562 103.363281 L 92.949219 104.253906 L 92.234375 104.980469 C 91.164062 105.996094 90.421875 106.472656 88.992188 106.925781 C 87.703125 106.878906 87.703125 106.878906 86.582031 106.257812 C 85.375 105.316406 84.847656 104.578125 84.132812 103.238281 L 83.429688 101.933594 L 82.691406 100.53125 C 82.429688 100.046875 82.171875 99.566406 81.914062 99.085938 C 81.371094 98.078125 80.828125 97.070312 80.289062 96.0625 C 79.058594 93.757812 77.792969 91.472656 76.527344 89.1875 C 76.136719 88.476562 75.746094 87.765625 75.355469 87.054688 L 74.636719 85.746094 L 74 84.59375 C 73.597656 83.886719 73.167969 83.191406 72.710938 82.515625 C 70.953125 83 69.65625 83.746094 68.1875 84.792969 L 67.464844 85.140625 C 66.625 85.007812 66.625 85.007812 65.964844 84.765625 L 65.964844 83.265625 C 66.582031 82.652344 66.582031 82.652344 67.394531 82.09375 L 68.199219 81.527344 C 68.828125 81.109375 69.457031 80.6875 70.085938 80.265625 L 71.210938 80.265625 C 68.738281 75.1875 66.050781 70.230469 63.339844 65.273438 C 62.074219 65.878906 61.167969 66.566406 60.132812 67.523438 L 59.128906 68.441406 C 58.457031 69.0625 57.785156 69.683594 57.117188 70.308594 C 54.648438 72.589844 52.078125 74.679688 49.421875 76.730469 C 48.199219 77.675781 46.988281 78.632812 45.773438 79.585938 L 44.441406 80.632812 L 43.476562 81.390625 L 44.027344 82.410156 C 44.558594 83.398438 45.085938 84.390625 45.609375 85.382812 C 46.171875 86.449219 46.75 87.503906 47.339844 88.550781 C 48.648438 90.917969 49.664062 92.914062 49.730469 95.679688 C 49.636719 96.980469 49.449219 97.953125 49.027344 99.195312 C 47.96875 100.65625 46.851562 101.753906 45.351562 102.753906 C 44.628906 102.714844 44.628906 102.714844 43.851562 102.378906 C 41.480469 100.222656 39.574219 97.511719 37.644531 94.960938 C 36.554688 93.519531 35.410156 92.125 34.257812 90.734375 L 33.730469 90.011719 L 33.730469 89.261719 L 32.730469 89.835938 C 28.664062 92.074219 28.664062 92.074219 26.234375 92.144531 C 24.960938 92.046875 24.242188 91.832031 23.050781 91.300781 C 22.113281 90.386719 22.113281 90.386719 21.386719 89.191406 C 20.980469 87.734375 20.894531 86.769531 21.117188 85.292969 C 21.496094 83.910156 22.140625 82.703125 22.839844 81.453125 C 23.320312 80.625 23.320312 80.625 23.238281 79.519531 C 22.722656 78.933594 22.722656 78.933594 22.015625 78.390625 L 21.21875 77.742188 L 20.355469 77.058594 L 19.484375 76.351562 C 17.34375 74.632812 15.179688 72.949219 12.980469 71.304688 C 12.078125 70.589844 11.253906 69.890625 10.496094 69.023438 C 10.472656 68.109375 10.472656 68.109375 10.871094 67.148438 C 12.058594 65.625 13.40625 64.765625 15.171875 64.050781 C 16.871094 63.558594 18.496094 63.472656 20.238281 63.777344 C 22.917969 64.648438 25.304688 65.960938 27.710938 67.40625 C 28.332031 67.777344 28.953125 68.144531 29.574219 68.511719 L 30.386719 69 C 31.152344 69.449219 31.152344 69.449219 32.234375 69.773438 C 32.320312 69.507812 32.410156 69.242188 32.5 68.96875 C 33.074219 67.699219 33.808594 66.820312 34.714844 65.765625 C 35.054688 65.367188 35.394531 64.96875 35.738281 64.570312 L 36.246094 63.972656 C 36.9375 63.15625 37.59375 62.320312 38.253906 61.480469 C 39.539062 59.863281 40.898438 58.324219 42.289062 56.796875 C 43.035156 55.980469 43.761719 55.148438 44.484375 54.3125 C 45.289062 53.386719 46.132812 52.496094 47.015625 51.640625 C 47.332031 51.316406 47.648438 50.992188 47.972656 50.65625 L 47.972656 49.910156 L 47.285156 49.539062 C 43.058594 47.265625 38.839844 44.972656 34.667969 42.601562 C 31.753906 40.941406 28.816406 39.316406 25.859375 37.726562 C 22.113281 35.707031 18.386719 33.636719 14.691406 31.523438 C 13.492188 30.839844 12.289062 30.167969 11.078125 29.511719 L 10.335938 29.105469 C 9.707031 28.765625 9.082031 28.425781 8.449219 28.089844 C 7.382812 27.339844 6.929688 26.714844 6.371094 25.546875 C 6.183594 24.46875 6.183594 24.46875 6.371094 23.296875 C 7.488281 21.375 8.847656 20.054688 10.554688 18.640625 C 11.296875 18.035156 11.296875 18.035156 12.015625 17.136719 L 12.742188 16.550781 C 15.1875 16.296875 17.265625 17.042969 19.574219 17.792969 L 22.035156 18.566406 C 23.320312 18.976562 24.605469 19.386719 25.886719 19.800781 C 27.132812 20.195312 28.378906 20.589844 29.625 20.980469 L 30.785156 21.359375 L 31.875 21.699219 L 32.828125 22.003906 C 33.878906 22.199219 34.582031 22.105469 35.605469 21.796875 C 36.398438 21.101562 36.398438 21.101562 37.128906 20.230469 C 39.007812 18.242188 40.992188 17.289062 43.476562 16.175781 L 49.472656 22.171875 L 47.597656 25.921875 L 47.597656 26.671875 C 50.019531 27.421875 52.441406 28.167969 54.863281 28.914062 C 55.6875 29.167969 56.507812 29.421875 57.332031 29.675781 C 58.515625 30.042969 59.699219 30.40625 60.886719 30.769531 L 62 31.117188 L 63.046875 31.4375 L 63.960938 31.71875 C 64.953125 31.945312 65.699219 32.050781 66.714844 31.917969 C 67.585938 31.308594 67.585938 31.308594 68.386719 30.433594 L 69.355469 29.453125 L 70.390625 28.375 C 70.75 28.003906 71.113281 27.636719 71.476562 27.269531 C 72.625 26.097656 73.769531 24.921875 74.914062 23.742188 C 82.3125 16.121094 89.589844 8.957031 100.082031 5.828125 C 101.699219 5.507812 103.308594 5.46875 104.945312 5.683594 "/><path style=" stroke:none;fill-rule:nonzero;fill:#0159a6;fill-opacity:1;" d="M 19.488281 169.09375 C 21.082031 169.011719 22.679688 169.023438 24.277344 169.027344 C 25.074219 169.023438 25.871094 169.019531 26.667969 169.011719 C 30.289062 168.996094 33.816406 169.09375 37.078125 170.839844 C 38.371094 171.675781 39.535156 172.664062 40.707031 173.664062 C 41.648438 174.375 42.355469 174.730469 43.476562 175.089844 C 44.757812 175.207031 44.757812 175.207031 46.164062 175.195312 L 46.964844 175.199219 C 47.832031 175.207031 48.699219 175.207031 49.566406 175.203125 L 51.382812 175.210938 C 52.648438 175.210938 53.917969 175.210938 55.183594 175.210938 C 56.804688 175.207031 58.425781 175.214844 60.046875 175.222656 C 61.296875 175.226562 62.546875 175.230469 63.796875 175.226562 C 64.394531 175.226562 64.992188 175.230469 65.589844 175.234375 C 66.425781 175.238281 67.261719 175.234375 68.101562 175.230469 L 69.539062 175.230469 C 70.964844 175.078125 71.859375 174.691406 73.085938 173.96875 C 73.691406 173.492188 74.285156 173 74.867188 172.492188 C 76.875 170.855469 78.824219 169.859375 81.355469 169.296875 C 85.75 168.671875 90.433594 169.046875 94.824219 169.46875 L 94.824219 170.21875 L 96.261719 170.179688 C 96.882812 170.167969 97.503906 170.160156 98.128906 170.148438 L 99.074219 170.121094 L 99.984375 170.109375 L 100.824219 170.089844 L 101.570312 170.21875 C 102.230469 170.789062 102.230469 170.789062 102.695312 171.34375 L 102.320312 172.46875 C 101.304688 172.804688 100.730469 172.886719 99.691406 172.878906 L 98.832031 172.875 L 97.941406 172.867188 L 97.035156 172.859375 C 96.296875 172.855469 95.5625 172.851562 94.824219 172.84375 L 94.832031 174.230469 C 94.855469 178.554688 94.871094 182.878906 94.882812 187.199219 C 94.886719 189.421875 94.898438 191.644531 94.910156 193.867188 C 94.921875 196.015625 94.929688 198.160156 94.929688 200.304688 C 94.933594 201.125 94.9375 201.941406 94.941406 202.757812 C 94.953125 203.90625 94.953125 205.054688 94.953125 206.203125 L 94.964844 207.21875 C 94.953125 209.382812 94.59375 210.972656 93.699219 212.945312 C 93.011719 213.785156 93.011719 213.785156 92.269531 214.398438 L 91.539062 215.027344 C 90.21875 215.882812 89.050781 216.273438 87.476562 216.394531 C 86.320312 216.433594 85.164062 216.441406 84.003906 216.4375 L 82.808594 216.457031 C 80.421875 216.457031 78.609375 216.257812 76.460938 215.195312 C 75.617188 214.507812 75.617188 214.507812 75.007812 213.765625 L 74.378906 213.03125 C 73.835938 212.195312 73.835938 212.195312 73.085938 209.949219 L 73.085938 200.578125 L 40.851562 200.578125 L 40.476562 211.074219 C 38.394531 214.402344 38.394531 214.402344 36.636719 215.605469 C 34.585938 216.671875 32.183594 216.433594 29.9375 216.460938 L 28.699219 216.503906 C 26.171875 216.53125 24.359375 216.1875 22.125 214.984375 C 20.878906 214.101562 20.25 213.144531 19.488281 211.820312 C 19.132812 210.757812 19.066406 210.105469 19.066406 209 L 19.0625 207.945312 L 19.066406 206.792969 L 19.0625 205.574219 C 19.0625 204.242188 19.0625 202.914062 19.066406 201.582031 C 19.066406 200.660156 19.066406 199.738281 19.0625 198.816406 C 19.0625 196.882812 19.0625 194.953125 19.066406 193.019531 C 19.066406 190.535156 19.066406 188.050781 19.066406 185.570312 C 19.0625 183.664062 19.0625 181.761719 19.066406 179.859375 C 19.066406 178.941406 19.0625 178.027344 19.0625 177.109375 C 19.0625 175.832031 19.0625 174.554688 19.066406 173.277344 L 19.0625 172.121094 L 19.066406 171.070312 L 19.066406 170.15625 L 19.113281 169.46875 Z M 53.972656 112.875 L 55.84375 113.25 L 56.21875 114.75 C 60.371094 114.757812 64.523438 114.765625 68.671875 114.769531 C 70.601562 114.769531 72.527344 114.773438 74.457031 114.777344 C 76.316406 114.78125 78.179688 114.785156 80.039062 114.785156 C 80.75 114.785156 81.457031 114.785156 82.167969 114.789062 C 83.164062 114.789062 84.15625 114.792969 85.152344 114.792969 L 86.035156 114.796875 C 87.421875 114.792969 88.757812 114.726562 90.132812 114.535156 L 91.453125 114.375 L 91.824219 114.75 L 91.710938 115.921875 L 91.824219 117.371094 C 92.328125 118.09375 92.878906 118.683594 93.507812 119.292969 C 94.269531 120.234375 94.519531 121.074219 94.824219 122.246094 C 94.929688 123.164062 95.007812 124.085938 95.058594 125.007812 L 95.144531 126.421875 L 95.199219 127.492188 L 96.226562 127.519531 C 100.914062 127.738281 100.914062 127.738281 103.082031 128.859375 C 104.464844 129.808594 105.550781 130.949219 106.441406 132.363281 C 107.453125 134.648438 107.734375 136.496094 107.714844 138.980469 L 107.71875 140.003906 C 107.722656 140.710938 107.71875 141.421875 107.714844 142.128906 C 107.707031 143.207031 107.714844 144.28125 107.722656 145.359375 C 107.71875 146.050781 107.71875 146.746094 107.714844 147.4375 L 107.722656 148.398438 C 107.695312 150.9375 107.195312 153.207031 105.890625 155.410156 C 104.75 156.71875 103.671875 157.679688 102.085938 158.414062 C 100.070312 158.976562 100.070312 158.976562 95.199219 158.976562 L 94.824219 128.242188 L 19.113281 127.867188 L 19.113281 158.976562 C 13.492188 158.976562 13.492188 158.976562 11.429688 158.226562 C 9.660156 157.183594 8.226562 155.839844 7.121094 154.101562 C 6.257812 152.082031 6.257812 150.210938 6.257812 148.050781 L 6.253906 146.945312 C 6.25 146.179688 6.25 145.410156 6.253906 144.644531 C 6.253906 143.472656 6.246094 142.304688 6.234375 141.136719 C 6.234375 140.386719 6.234375 139.640625 6.234375 138.890625 L 6.226562 137.839844 C 6.242188 135.632812 6.585938 134.007812 7.496094 131.988281 C 8.617188 130.203125 10.164062 129.21875 11.992188 128.242188 C 13.351562 127.789062 14.589844 127.828125 16 127.84375 L 16.796875 127.847656 C 17.445312 127.851562 18.09375 127.859375 18.738281 127.867188 L 18.78125 126.742188 C 18.929688 123.582031 19.148438 120.984375 20.871094 118.238281 C 22.140625 116.96875 23.644531 115.855469 25.367188 115.292969 C 26.546875 115.0625 27.683594 115.0625 28.882812 115.046875 L 29.683594 115.035156 C 30.550781 115.023438 31.417969 115.015625 32.285156 115.003906 L 34.09375 114.980469 C 35.679688 114.960938 37.261719 114.941406 38.847656 114.925781 C 40.464844 114.90625 42.085938 114.886719 43.703125 114.863281 C 46.875 114.824219 50.046875 114.785156 53.222656 114.75 Z M 53.972656 112.875 "/><path style=" stroke:none;fill-rule:nonzero;fill:#fea500;fill-opacity:1;" d="M 80.207031 47.285156 L 80.957031 47.660156 C 81.261719 48.386719 81.261719 48.386719 81.558594 49.355469 L 81.898438 50.445312 L 82.261719 51.632812 L 82.636719 52.839844 C 83.03125 54.117188 83.421875 55.398438 83.816406 56.679688 L 84.617188 59.273438 C 85.273438 61.398438 85.925781 63.523438 86.578125 65.648438 L 87.265625 65.226562 L 88.171875 64.6875 L 89.066406 64.148438 C 89.953125 63.777344 89.953125 63.777344 90.773438 63.875 C 92.167969 64.441406 93.140625 65.632812 94.191406 66.679688 L 94.9375 67.386719 C 95.589844 68.03125 96.179688 68.640625 96.699219 69.398438 C 96.691406 70.710938 96.207031 71.632812 95.574219 72.769531 L 97.449219 72.394531 L 98.199219 74.269531 L 96.910156 74.738281 C 95.726562 75.183594 94.558594 75.652344 93.394531 76.144531 L 92.566406 76.496094 C 91.746094 76.9375 91.265625 77.273438 90.703125 78.019531 C 90.722656 78.882812 90.722656 78.882812 91.035156 79.851562 L 91.378906 81.066406 C 92.429688 84.515625 93.5625 87.945312 94.707031 91.367188 C 95.046875 92.382812 95.378906 93.402344 95.707031 94.421875 L 96.027344 95.359375 C 96.492188 96.804688 96.703125 97.8125 96.617188 99.347656 C 96.164062 101.136719 95.105469 102.066406 93.851562 103.363281 L 92.949219 104.253906 L 92.234375 104.980469 C 91.164062 105.996094 90.421875 106.472656 88.992188 106.925781 C 87.703125 106.878906 87.703125 106.878906 86.582031 106.257812 C 85.375 105.316406 84.847656 104.578125 84.132812 103.238281 L 83.429688 101.933594 L 82.691406 100.53125 C 82.429688 100.046875 82.171875 99.566406 81.914062 99.085938 C 81.371094 98.078125 80.828125 97.070312 80.289062 96.0625 C 79.058594 93.757812 77.792969 91.472656 76.527344 89.1875 C 76.136719 88.476562 75.746094 87.765625 75.355469 87.054688 L 74.636719 85.746094 L 74 84.59375 C 73.597656 83.886719 73.167969 83.191406 72.710938 82.515625 C 70.953125 83 69.65625 83.746094 68.1875 84.792969 L 67.464844 85.140625 C 66.625 85.007812 66.625 85.007812 65.964844 84.765625 L 65.964844 83.265625 C 66.582031 82.652344 66.582031 82.652344 67.394531 82.09375 L 68.199219 81.527344 C 68.828125 81.109375 69.457031 80.6875 70.085938 80.265625 L 71.210938 80.265625 C 70.816406 79.453125 70.417969 78.640625 70.015625 77.832031 L 69.628906 77.042969 C 68.765625 75.308594 67.851562 73.609375 66.902344 71.921875 L 66.222656 70.703125 C 65.773438 69.902344 65.316406 69.101562 64.855469 68.300781 L 64.226562 67.179688 L 63.65625 66.175781 L 63.339844 65.273438 C 63.824219 63.96875 64.636719 63.140625 65.613281 62.171875 L 66.566406 61.226562 L 67.59375 60.210938 L 69.1875 58.628906 C 69.929688 57.890625 70.671875 57.15625 71.417969 56.417969 C 72.722656 55.128906 74.023438 53.835938 75.328125 52.542969 C 76.019531 51.855469 76.714844 51.167969 77.410156 50.480469 L 78.355469 49.539062 C 78.632812 49.265625 78.910156 48.992188 79.195312 48.710938 C 79.859375 48.070312 79.859375 48.070312 80.207031 47.285156 "/><path style=" stroke:none;fill-rule:nonzero;fill:#cdd4d7;fill-opacity:1;" d="M 103.445312 5.683594 C 104.476562 5.777344 104.476562 5.777344 105.695312 6.058594 C 106.558594 6.757812 106.558594 6.757812 107.191406 7.554688 C 107.707031 9.101562 107.757812 10.453125 107.566406 12.054688 C 105.648438 19.851562 101.074219 26.332031 95.621094 32.09375 L 94.890625 32.871094 C 92.117188 35.800781 89.257812 38.636719 86.390625 41.476562 C 85.347656 42.507812 84.304688 43.542969 83.265625 44.578125 L 82.5625 45.269531 C 81.433594 46.394531 80.351562 47.535156 79.308594 48.742188 C 77.824219 50.457031 76.238281 52.0625 74.636719 53.667969 L 73.691406 54.617188 C 73.035156 55.273438 72.378906 55.933594 71.722656 56.589844 C 70.726562 57.585938 69.730469 58.585938 68.738281 59.585938 C 68.097656 60.230469 67.453125 60.871094 66.8125 61.515625 C 66.519531 61.808594 66.226562 62.105469 65.925781 62.410156 C 64.191406 64.136719 62.355469 65.742188 60.417969 67.234375 C 59.65625 67.847656 58.980469 68.484375 58.304688 69.1875 C 56.960938 70.574219 55.484375 71.765625 53.980469 72.976562 C 52.992188 73.78125 52.011719 74.601562 51.046875 75.429688 C 48.601562 77.53125 46.082031 79.492188 43.476562 81.390625 L 44.027344 82.410156 C 44.558594 83.398438 45.085938 84.390625 45.609375 85.382812 C 46.171875 86.449219 46.75 87.503906 47.339844 88.550781 C 48.648438 90.917969 49.664062 92.914062 49.730469 95.679688 C 49.636719 96.980469 49.449219 97.953125 49.027344 99.195312 C 47.96875 100.65625 46.851562 101.753906 45.351562 102.753906 C 44.628906 102.714844 44.628906 102.714844 43.851562 102.378906 C 41.480469 100.222656 39.574219 97.511719 37.644531 94.960938 C 36.554688 93.519531 35.410156 92.125 34.257812 90.734375 L 33.730469 90.011719 L 33.730469 89.261719 L 32.730469 89.835938 C 28.664062 92.074219 28.664062 92.074219 26.234375 92.144531 C 24.941406 92.046875 24.234375 91.828125 23.027344 91.277344 C 22.113281 90.386719 22.113281 90.386719 21.597656 89.167969 L 21.363281 88.136719 L 22.007812 87.914062 L 22.886719 87.574219 L 23.742188 87.257812 C 24.925781 86.519531 25.628906 85.664062 26.523438 84.601562 C 28.183594 82.691406 29.976562 80.910156 31.757812 79.113281 C 32.21875 78.644531 32.675781 78.179688 33.128906 77.707031 C 33.796875 77.023438 34.464844 76.34375 35.140625 75.664062 L 35.75 75.03125 C 36.707031 74.078125 37.394531 73.546875 38.703125 73.175781 C 39.730469 73.144531 39.730469 73.144531 40.476562 73.519531 C 40.710938 74.480469 40.710938 74.480469 40.851562 75.394531 C 49.46875 68.984375 57.148438 61.792969 64.753906 54.234375 C 64.945312 54.042969 65.136719 53.851562 65.335938 53.65625 C 67.144531 51.855469 68.957031 50.054688 70.765625 48.253906 C 73.066406 45.960938 75.371094 43.671875 77.679688 41.386719 C 79.3125 39.773438 80.941406 38.15625 82.566406 36.53125 C 83.535156 35.566406 84.503906 34.601562 85.476562 33.640625 C 86.558594 32.578125 87.632812 31.503906 88.707031 30.425781 L 89.6875 29.46875 L 90.5625 28.582031 L 91.335938 27.816406 L 91.824219 27.046875 C 91.738281 26.046875 91.566406 25.378906 91.082031 24.507812 L 90.632812 23.90625 L 90.125 23.234375 C 88.941406 21.757812 87.703125 20.324219 86.414062 18.941406 C 86.222656 18.648438 86.027344 18.351562 85.828125 18.050781 C 85.855469 16.984375 86.082031 16.394531 86.601562 15.472656 C 87.328125 15.050781 87.328125 15.050781 88.617188 14.957031 C 90.691406 15.292969 92.21875 16.675781 93.835938 17.929688 C 94.824219 18.800781 94.824219 18.800781 95.425781 19.660156 L 95.949219 20.300781 L 97.449219 20.300781 C 100.128906 15.535156 102.148438 11.007812 103.445312 5.683594 "/><path style=" stroke:none;fill-rule:nonzero;fill:#fda500;fill-opacity:1;" d="M 43.101562 16.175781 C 45.363281 18.042969 47.417969 20.082031 49.472656 22.171875 C 49.339844 22.433594 49.203125 22.695312 49.0625 22.964844 L 48.535156 24 L 48.007812 25.027344 C 47.546875 25.871094 47.546875 25.871094 47.597656 26.671875 L 65.964844 32.292969 L 65.964844 33.417969 C 65.402344 33.996094 65.402344 33.996094 64.628906 34.613281 C 63.257812 35.757812 62.101562 36.980469 60.941406 38.339844 C 60.160156 39.253906 59.359375 40.097656 58.46875 40.914062 L 57.71875 40.914062 L 57.34375 42.039062 C 56.835938 42.535156 56.835938 42.535156 56.148438 43.09375 C 55.058594 44.003906 54.023438 44.980469 53.046875 46.011719 L 52.351562 46.738281 C 51.886719 47.222656 51.429688 47.714844 50.976562 48.207031 L 50.324219 48.890625 L 49.746094 49.511719 L 49.097656 49.910156 C 47.539062 49.816406 46.363281 49.136719 45.019531 48.382812 L 43.710938 47.65625 L 42.304688 46.863281 C 41.816406 46.589844 41.332031 46.320312 40.84375 46.046875 C 39.839844 45.488281 38.835938 44.925781 37.832031 44.363281 C 35.617188 43.121094 33.398438 41.890625 31.179688 40.65625 L 29.917969 39.953125 C 27.171875 38.429688 24.414062 36.921875 21.644531 35.433594 C 18.582031 33.777344 15.527344 32.113281 12.484375 30.417969 L 11.390625 29.820312 C 9.589844 28.808594 8.089844 27.875 6.746094 26.296875 C 6.371094 25.546875 6.371094 25.546875 6.230469 24.539062 C 6.371094 23.296875 6.371094 23.296875 7.121094 22.007812 C 8.121094 20.71875 9.296875 19.679688 10.554688 18.640625 C 11.296875 18.035156 11.296875 18.035156 12.015625 17.136719 L 12.742188 16.550781 C 15.1875 16.296875 17.265625 17.042969 19.574219 17.792969 L 22.035156 18.566406 C 23.320312 18.976562 24.605469 19.386719 25.886719 19.800781 C 27.132812 20.195312 28.378906 20.589844 29.625 20.980469 L 30.785156 21.359375 L 31.875 21.699219 L 32.828125 22.003906 C 33.878906 22.199219 34.582031 22.105469 35.605469 21.796875 C 36.410156 21.105469 36.410156 21.105469 37.152344 20.230469 C 38.910156 18.371094 40.808594 17.269531 43.101562 16.175781 "/><path style=" stroke:none;fill-rule:nonzero;fill:#0159a6;fill-opacity:1;" d="M 137.925781 8.800781 C 140.464844 8.921875 142.539062 10.371094 144.671875 11.632812 C 145.128906 11.894531 145.582031 12.15625 146.039062 12.414062 C 147.335938 13.160156 148.628906 13.917969 149.921875 14.675781 L 151.65625 15.6875 C 152.644531 16.265625 153.632812 16.847656 154.617188 17.433594 C 156.734375 18.691406 158.867188 19.914062 161 21.140625 C 164.609375 23.21875 168.214844 25.308594 171.808594 27.414062 C 173.589844 28.457031 175.378906 29.496094 177.175781 30.511719 L 178.191406 31.089844 C 178.816406 31.445312 179.449219 31.800781 180.078125 32.152344 C 180.78125 32.554688 181.46875 32.984375 182.152344 33.417969 L 182.152344 34.167969 C 181.199219 34.644531 180.535156 34.589844 179.46875 34.589844 L 178.226562 34.59375 L 176.859375 34.589844 L 175.421875 34.59375 C 174.117188 34.59375 172.816406 34.59375 171.511719 34.59375 C 170.152344 34.589844 168.789062 34.59375 167.429688 34.59375 C 165.144531 34.59375 162.855469 34.59375 160.570312 34.589844 C 157.925781 34.589844 155.28125 34.589844 152.632812 34.589844 C 150.367188 34.59375 148.097656 34.59375 145.828125 34.59375 C 144.472656 34.589844 143.117188 34.589844 141.757812 34.59375 C 140.246094 34.59375 138.738281 34.59375 137.226562 34.589844 L 135.855469 34.59375 L 134.613281 34.589844 L 133.53125 34.589844 C 132.679688 34.542969 132.679688 34.542969 131.929688 34.167969 L 132.304688 32.855469 C 132.765625 30.945312 132.96875 29.230469 132.449219 27.324219 C 131.789062 25.601562 130.972656 24.492188 129.585938 23.273438 C 129.125 22.898438 128.65625 22.53125 128.179688 22.171875 C 129.667969 19.089844 131.199219 16.039062 132.9375 13.085938 L 133.339844 12.382812 C 134.503906 10.441406 135.582031 9.019531 137.925781 8.800781 "/><path style=" stroke:none;fill-rule:nonzero;fill:#012f57;fill-opacity:1;" d="M 73.085938 200.578125 L 94.824219 200.578125 C 94.824219 209.949219 94.824219 209.949219 93.699219 212.945312 C 93.011719 213.785156 93.011719 213.785156 92.269531 214.398438 L 91.539062 215.027344 C 90.21875 215.882812 89.050781 216.273438 87.476562 216.394531 C 86.320312 216.433594 85.164062 216.441406 84.003906 216.4375 L 82.808594 216.457031 C 80.421875 216.457031 78.609375 216.257812 76.460938 215.195312 C 75.617188 214.507812 75.617188 214.507812 75.007812 213.765625 L 74.378906 213.03125 C 73.835938 212.195312 73.835938 212.195312 73.085938 209.949219 Z M 19.113281 200.578125 L 40.476562 200.578125 C 41.277344 202.175781 40.855469 204.308594 40.804688 206.058594 L 40.792969 207.382812 C 40.734375 209.402344 40.664062 211.058594 39.605469 212.816406 C 38.652344 214.167969 37.445312 215.179688 35.980469 215.945312 C 34.019531 216.546875 31.972656 216.433594 29.9375 216.460938 L 28.699219 216.503906 C 26.171875 216.53125 24.359375 216.1875 22.125 214.984375 C 20.878906 214.101562 20.25 213.144531 19.488281 211.820312 C 18.304688 208.265625 19.113281 204.328125 19.113281 200.578125 M 160.414062 150.214844 C 161.539062 150.355469 161.539062 150.355469 162.164062 150.808594 C 162.664062 151.480469 162.664062 151.480469 162.804688 152.332031 L 162.804688 153.355469 L 162.816406 154.527344 L 162.808594 155.816406 L 162.816406 157.171875 C 162.820312 158.398438 162.816406 159.625 162.8125 160.851562 C 162.8125 162.136719 162.8125 163.421875 162.816406 164.707031 C 162.816406 166.863281 162.816406 169.019531 162.808594 171.179688 C 162.804688 173.671875 162.804688 176.164062 162.8125 178.660156 C 162.816406 180.800781 162.816406 182.941406 162.816406 185.082031 C 162.8125 186.359375 162.8125 187.640625 162.816406 188.917969 C 162.820312 190.34375 162.816406 191.769531 162.808594 193.195312 L 162.816406 194.480469 L 162.804688 195.65625 L 162.804688 196.679688 C 162.664062 197.578125 162.664062 197.578125 162.164062 198.4375 L 161.539062 199.078125 C 160.414062 199.289062 160.414062 199.289062 159.289062 199.078125 C 158.582031 198.140625 158.199219 197.429688 158.023438 196.261719 L 158.023438 195.25 L 158.011719 194.082031 L 158.019531 192.8125 L 158.015625 191.464844 C 158.011719 190.25 158.011719 189.035156 158.015625 187.820312 C 158.015625 186.546875 158.015625 185.273438 158.011719 184 C 158.011719 181.863281 158.011719 179.726562 158.019531 177.589844 C 158.023438 175.117188 158.023438 172.648438 158.015625 170.175781 C 158.011719 168.054688 158.011719 165.933594 158.015625 163.808594 C 158.015625 162.542969 158.015625 161.277344 158.011719 160.007812 C 158.007812 158.597656 158.015625 157.1875 158.019531 155.773438 L 158.011719 154.5 L 158.023438 153.335938 L 158.023438 152.328125 C 158.164062 151.480469 158.164062 151.480469 158.667969 150.808594 C 159.289062 150.355469 159.289062 150.355469 160.414062 150.214844 M 171.660156 150.355469 C 172.992188 150.378906 172.992188 150.378906 174.28125 150.730469 C 174.8125 151.515625 175.015625 152.101562 175.125 153.042969 L 175.125 153.945312 L 175.128906 154.980469 L 175.121094 156.113281 L 175.125 157.308594 C 175.125 158.617188 175.121094 159.925781 175.117188 161.234375 L 175.117188 163.96875 C 175.117188 165.882812 175.113281 167.796875 175.109375 169.710938 C 175.101562 172.152344 175.101562 174.59375 175.101562 177.039062 C 175.101562 178.921875 175.097656 180.808594 175.097656 182.691406 C 175.09375 183.589844 175.09375 184.492188 175.09375 185.390625 C 175.09375 186.65625 175.089844 187.921875 175.085938 189.1875 L 175.085938 190.296875 C 175.078125 192.167969 175.023438 194.035156 174.910156 195.902344 L 174.847656 197.011719 C 174.65625 197.953125 174.65625 197.953125 174.136719 198.636719 C 173.53125 199.078125 173.53125 199.078125 172.59375 199.21875 C 171.660156 199.078125 171.660156 199.078125 171.003906 198.679688 C 170.324219 197.628906 170.261719 196.550781 170.160156 195.332031 C 170.113281 193.894531 170.121094 192.460938 170.132812 191.027344 L 170.136719 189.734375 C 170.15625 187.351562 170.171875 184.972656 170.183594 182.589844 C 170.199219 180.546875 170.210938 178.503906 170.230469 176.460938 C 170.246094 174.097656 170.261719 171.734375 170.273438 169.371094 C 170.28125 167.09375 170.300781 164.816406 170.316406 162.542969 C 170.324219 161.574219 170.332031 160.605469 170.335938 159.640625 C 170.339844 158.289062 170.351562 156.941406 170.367188 155.589844 L 170.367188 154.371094 L 170.382812 153.261719 L 170.386719 152.296875 C 170.535156 151.480469 170.535156 151.480469 171.023438 150.804688 Z M 171.660156 150.355469 "/><path style=" stroke:none;fill-rule:nonzero;fill:#0159a6;fill-opacity:1;" d="M 171.285156 84.390625 L 201.269531 84.390625 C 200.445312 86.441406 199.429688 88.28125 198.339844 90.199219 L 197.746094 91.265625 C 195.667969 94.925781 195.667969 94.925781 194.144531 96.007812 C 192.984375 96.417969 191.996094 96.515625 190.773438 96.382812 C 189.417969 95.910156 188.230469 95.222656 187 94.488281 L 185.9375 93.878906 C 184.796875 93.222656 183.660156 92.558594 182.527344 91.886719 C 181.714844 91.414062 180.898438 90.941406 180.082031 90.46875 C 178.203125 89.378906 176.328125 88.285156 174.460938 87.183594 C 173.28125 86.492188 172.097656 85.8125 170.910156 85.140625 Z M 171.285156 84.390625 "/><path style=" stroke:none;fill-rule:nonzero;fill:#f2a001;fill-opacity:1;" d="M 20.238281 63.777344 C 22.90625 64.65625 25.335938 65.9375 27.757812 67.335938 L 28.726562 67.875 L 29.644531 68.402344 L 30.472656 68.875 C 31.109375 69.398438 31.109375 69.398438 31.453125 70.113281 L 31.484375 70.898438 C 31.074219 71.652344 31.074219 71.652344 30.4375 72.441406 L 29.742188 73.316406 L 29 74.222656 L 28.285156 75.121094 C 26.996094 76.726562 25.6875 78.316406 24.363281 79.890625 C 23.316406 79.40625 22.460938 78.871094 21.574219 78.136719 L 20.84375 77.535156 L 20.074219 76.894531 C 17.753906 74.984375 15.394531 73.125 12.996094 71.316406 C 12.085938 70.597656 11.257812 69.894531 10.496094 69.023438 C 10.472656 68.109375 10.472656 68.109375 10.871094 67.148438 C 12.058594 65.625 13.40625 64.765625 15.171875 64.050781 C 16.871094 63.558594 18.496094 63.472656 20.238281 63.777344 "/><path style=" stroke:none;fill-rule:nonzero;fill:#fea500;fill-opacity:1;" d="M 42.351562 82.140625 L 43.851562 82.140625 L 45.089844 84.484375 C 45.4375 85.140625 45.78125 85.800781 46.128906 86.460938 C 46.820312 87.789062 47.507812 89.109375 48.265625 90.398438 C 49.269531 92.144531 49.601562 93.515625 49.660156 95.539062 C 49.601562 96.902344 49.46875 97.894531 49.027344 99.195312 C 47.96875 100.65625 46.851562 101.753906 45.351562 102.753906 C 44.628906 102.714844 44.628906 102.714844 43.851562 102.378906 C 41.480469 100.222656 39.574219 97.511719 37.648438 94.957031 C 36.5625 93.523438 35.398438 92.164062 34.21875 90.808594 L 33.730469 90.011719 C 33.804688 89.285156 33.804688 89.285156 34.105469 88.511719 C 34.703125 87.917969 34.703125 87.917969 35.472656 87.351562 L 36.3125 86.722656 L 37.199219 86.078125 L 38.914062 84.800781 L 39.738281 84.195312 C 40.351562 83.734375 40.945312 83.238281 41.527344 82.738281 Z M 42.351562 82.140625 "/><path style=" stroke:none;fill-rule:nonzero;fill:#033158;fill-opacity:1;" d="M 155.542969 115.125 C 156.539062 114.890625 156.539062 114.890625 157.691406 114.894531 L 158.996094 114.882812 L 160.402344 114.902344 L 161.851562 114.902344 C 162.863281 114.902344 163.871094 114.910156 164.882812 114.921875 C 166.175781 114.933594 167.46875 114.9375 168.761719 114.933594 C 169.996094 114.933594 171.234375 114.941406 172.46875 114.949219 L 173.878906 114.949219 L 175.179688 114.964844 L 176.328125 114.976562 C 177.28125 115.125 177.28125 115.125 177.964844 115.625 C 178.40625 116.246094 178.40625 116.246094 178.53125 117.375 L 178.515625 118.734375 L 178.503906 120.210938 C 178.492188 120.726562 178.484375 121.238281 178.476562 121.753906 C 178.46875 122.269531 178.464844 122.789062 178.460938 123.308594 C 178.445312 124.578125 178.429688 125.847656 178.40625 127.117188 L 175.03125 127.117188 C 174.554688 124.902344 174.65625 123.144531 174.65625 120.746094 L 158.164062 120.746094 L 157.789062 127.117188 L 154.417969 127.117188 C 153.628906 125.539062 153.941406 123.484375 153.925781 121.753906 L 153.894531 120.457031 L 153.882812 119.203125 L 153.867188 118.058594 C 154.042969 116.996094 154.042969 116.996094 154.667969 116.007812 Z M 155.542969 115.125 "/><path style=" stroke:none;fill-rule:nonzero;fill:#012f57;fill-opacity:1;" d="M 146.921875 154.851562 C 148.023438 154.734375 148.023438 154.734375 149.171875 154.851562 C 149.796875 155.324219 149.796875 155.324219 150.292969 155.976562 C 150.433594 156.691406 150.433594 156.691406 150.433594 157.511719 L 150.4375 158.460938 L 150.429688 159.492188 L 150.429688 160.585938 C 150.433594 161.777344 150.425781 162.96875 150.417969 164.164062 L 150.414062 166.648438 C 150.414062 168.382812 150.410156 170.117188 150.402344 171.851562 C 150.390625 174.078125 150.386719 176.308594 150.382812 178.535156 C 150.382812 180.242188 150.378906 181.953125 150.375 183.660156 C 150.371094 184.484375 150.371094 185.304688 150.367188 186.125 C 150.367188 187.273438 150.363281 188.417969 150.355469 189.566406 L 150.355469 190.601562 L 150.347656 191.546875 L 150.34375 192.367188 C 150.292969 193.082031 150.292969 193.082031 149.921875 194.207031 C 149.171875 194.582031 149.171875 194.582031 148.070312 194.722656 L 146.921875 194.582031 C 146.296875 193.839844 146.296875 193.839844 145.796875 192.707031 C 145.695312 191.625 145.652344 190.539062 145.664062 189.453125 L 145.660156 188.46875 C 145.660156 187.402344 145.667969 186.332031 145.675781 185.265625 L 145.675781 183.027344 C 145.679688 181.464844 145.683594 179.902344 145.691406 178.339844 C 145.703125 176.34375 145.707031 174.347656 145.707031 172.347656 C 145.710938 170.4375 145.714844 168.527344 145.722656 166.617188 L 145.722656 165.519531 C 145.726562 164.488281 145.730469 163.457031 145.738281 162.425781 L 145.738281 161.515625 C 145.769531 157.417969 145.769531 157.417969 146.171875 155.601562 Z M 184.777344 154.476562 C 185.6875 154.726562 186.351562 154.925781 187.023438 155.601562 C 187.0625 156.78125 187.082031 157.960938 187.078125 159.140625 L 187.082031 160.269531 C 187.085938 161.503906 187.089844 162.738281 187.089844 163.976562 L 187.09375 166.539062 C 187.09375 168.332031 187.09375 170.128906 187.09375 171.921875 C 187.09375 174.226562 187.101562 176.53125 187.105469 178.835938 C 187.109375 180.601562 187.113281 182.367188 187.109375 184.132812 C 187.109375 184.984375 187.113281 185.835938 187.117188 186.683594 C 187.121094 187.871094 187.117188 189.058594 187.117188 190.242188 C 187.117188 190.597656 187.121094 190.953125 187.121094 191.316406 L 187.117188 192.292969 L 187.117188 193.144531 L 187.023438 193.832031 L 186.277344 194.582031 C 184.917969 194.628906 184.917969 194.628906 183.652344 194.582031 C 183.039062 193.5 182.808594 192.722656 182.800781 191.488281 L 182.789062 190.53125 L 182.789062 189.488281 L 182.777344 188.386719 C 182.769531 187.183594 182.765625 185.980469 182.761719 184.777344 L 182.753906 182.269531 C 182.746094 180.519531 182.742188 178.769531 182.742188 177.015625 C 182.742188 174.769531 182.726562 172.523438 182.710938 170.277344 C 182.699219 168.550781 182.695312 166.828125 182.695312 165.101562 C 182.695312 164.273438 182.6875 163.445312 182.679688 162.617188 C 182.671875 161.460938 182.671875 160.304688 182.675781 159.148438 L 182.660156 158.105469 C 182.671875 157.230469 182.695312 156.453125 182.902344 155.601562 C 183.789062 154.800781 183.789062 154.800781 184.777344 154.476562 "/><path style=" stroke:none;fill-rule:nonzero;fill:#f2a001;fill-opacity:1;" d="M 63.339844 31.542969 C 64.234375 31.757812 65.089844 32.011719 65.964844 32.292969 L 65.964844 33.417969 C 65.402344 33.996094 65.402344 33.996094 64.628906 34.613281 C 63.257812 35.757812 62.101562 36.980469 60.941406 38.339844 C 60.160156 39.253906 59.359375 40.097656 58.46875 40.914062 L 57.71875 40.914062 L 57.34375 42.039062 C 56.785156 42.589844 56.785156 42.589844 56.054688 43.1875 C 54.402344 44.5625 52.992188 46.109375 51.570312 47.71875 L 50.597656 48.410156 C 49.246094 48.339844 49.246094 48.339844 47.972656 48.035156 L 46.78125 47.847656 C 45.914062 47.691406 45.074219 47.511719 44.226562 47.285156 C 44.253906 46.519531 44.253906 46.519531 44.601562 45.410156 C 45.378906 44.414062 46.277344 43.550781 47.183594 42.671875 L 47.972656 41.886719 C 48.804688 41.058594 49.644531 40.234375 50.480469 39.414062 L 52.152344 37.753906 C 52.691406 37.222656 53.226562 36.691406 53.765625 36.15625 L 54.519531 35.410156 C 59.171875 30.855469 59.171875 30.855469 63.339844 31.542969 "/><path style=" stroke:none;fill-rule:nonzero;fill:#0159a6;fill-opacity:1;" d="M 213.402344 51.828125 C 214.761719 52.15625 214.761719 52.15625 215.839844 52.90625 C 216.554688 53.917969 216.839844 54.410156 217.078125 55.578125 C 217.140625 56.65625 217.03125 57.34375 216.632812 58.355469 C 216.046875 59.441406 215.410156 60.480469 214.761719 61.527344 C 214.347656 62.246094 213.9375 62.964844 213.527344 63.6875 C 212.945312 64.71875 212.351562 65.746094 211.761719 66.773438 C 210.46875 66.378906 209.589844 66.085938 208.53125 65.226562 C 207.464844 63.9375 206.671875 62.742188 206.140625 61.152344 C 205.871094 59.414062 206.054688 58.050781 206.585938 56.375 C 207.507812 54.71875 208.550781 53.671875 210.121094 52.625 C 211.316406 51.996094 212.039062 51.777344 213.402344 51.828125 "/><path style=" stroke:none;fill-rule:nonzero;fill:#022f57;fill-opacity:1;" d="M 136.800781 200.578125 C 139.292969 200.867188 139.292969 200.867188 140.480469 201.632812 C 141.6875 203.394531 141.824219 205.230469 142.050781 207.324219 L 142.886719 207.355469 C 145.863281 207.527344 145.863281 207.527344 147.34375 208.355469 C 148.046875 209.199219 148.046875 209.199219 148.375 210.160156 C 148.421875 211.074219 148.421875 211.074219 148.046875 212.195312 L 146.171875 212.195312 L 146.289062 213.203125 C 146.171875 214.445312 146.171875 214.445312 145.398438 215.546875 L 144.296875 216.320312 C 142.964844 216.367188 142.964844 216.367188 141.675781 215.945312 C 140.785156 215.148438 140.785156 215.148438 140.175781 214.070312 L 140.011719 212.734375 L 139.800781 211.445312 C 138.914062 210.65625 138.914062 210.65625 137.925781 209.949219 C 137.257812 208.933594 136.839844 208.066406 136.714844 206.847656 C 136.691406 205.894531 136.703125 204.949219 136.730469 204 L 136.746094 203 C 136.761719 202.191406 136.78125 201.386719 136.800781 200.578125 "/><path style=" stroke:none;fill-rule:nonzero;fill:#fefefe;fill-opacity:1;" d="M 141.675781 53.28125 C 142.378906 53.28125 142.378906 53.28125 143.171875 53.65625 L 143.78125 54.710938 C 144.550781 55.929688 144.550781 55.929688 145.585938 56.359375 C 146.257812 56.613281 146.9375 56.855469 147.617188 57.082031 L 148.421875 57.40625 L 148.796875 58.152344 C 148.273438 59.117188 147.695312 59.996094 147.039062 60.871094 C 146.339844 62.335938 146.453125 63.679688 146.546875 65.273438 L 145.421875 65.648438 L 144.132812 65.085938 L 142.796875 64.527344 C 142.050781 64.636719 142.050781 64.636719 141.300781 64.902344 L 139.707031 65.296875 L 138.300781 65.648438 C 137.925781 64.902344 137.925781 64.902344 137.96875 64.113281 L 138.042969 63.167969 C 138.066406 61.96875 138.007812 61.296875 137.425781 60.238281 C 136.871094 59.511719 136.304688 58.820312 135.675781 58.152344 C 136.132812 57.609375 136.132812 57.609375 136.800781 57.03125 C 137.625 56.835938 137.625 56.835938 138.511719 56.726562 C 139.402344 56.582031 139.402344 56.582031 140.175781 56.28125 C 140.757812 55.1875 140.757812 55.1875 140.925781 54.03125 Z M 181.777344 53.28125 C 182.457031 53.304688 182.457031 53.304688 183.277344 53.65625 L 183.886719 54.710938 C 184.660156 55.929688 184.660156 55.929688 185.703125 56.386719 C 186.636719 56.753906 187.570312 57.09375 188.523438 57.40625 C 188.429688 58.433594 188.429688 58.433594 188.148438 59.652344 L 187.375 60.332031 L 186.648438 61.152344 C 186.570312 62.03125 186.601562 62.851562 186.671875 63.730469 L 186.648438 64.527344 L 185.902344 65.648438 L 184.683594 65.296875 L 183.277344 64.902344 L 182.550781 64.65625 C 181.550781 64.488281 180.941406 64.714844 179.996094 65.066406 L 179.089844 65.390625 L 178.40625 65.648438 L 178.03125 65.273438 C 177.953125 64.148438 177.910156 63.023438 177.871094 61.894531 L 177.65625 60.777344 C 176.9375 59.933594 176.9375 59.933594 176.15625 59.277344 C 175.875 58.433594 175.875 58.433594 175.78125 57.777344 L 176.976562 57.289062 C 178.144531 56.78125 179.242188 56.28125 180.277344 55.53125 C 180.9375 54.582031 180.9375 54.582031 181.402344 53.65625 Z M 161.914062 53.28125 C 162.570312 53.515625 162.570312 53.515625 163.414062 54.03125 L 164.046875 55.132812 C 164.78125 56.304688 164.78125 56.304688 165.742188 56.636719 C 166.34375 56.816406 166.953125 56.980469 167.5625 57.128906 L 168.285156 57.40625 L 168.660156 58.527344 L 167.746094 59.511719 C 167.195312 60.085938 167.195312 60.085938 166.785156 60.777344 C 166.667969 61.671875 166.6875 62.480469 166.757812 63.382812 C 166.785156 64.152344 166.785156 64.152344 166.410156 65.273438 C 163.539062 64.941406 163.539062 64.941406 162.675781 64.667969 C 161.890625 64.46875 161.890625 64.46875 161.03125 64.734375 L 160.132812 65.066406 L 159.226562 65.390625 L 158.539062 65.648438 C 157.976562 64.484375 157.789062 63.800781 157.859375 62.488281 L 157.789062 61.152344 C 157.371094 60.523438 157.371094 60.523438 156.832031 59.957031 L 155.917969 58.902344 C 155.933594 58.132812 155.933594 58.132812 156.292969 57.40625 C 157.09375 57.007812 157.09375 57.007812 158.09375 56.703125 C 159.480469 56.21875 159.480469 56.21875 160.609375 55.324219 C 161.050781 54.652344 161.050781 54.652344 161.539062 53.65625 Z M 161.914062 53.28125 "/><path style=" stroke:none;fill-rule:nonzero;fill:#023058;fill-opacity:1;" d="M 142.417969 137.164062 L 143.480469 137.171875 L 144.578125 137.191406 L 145.695312 137.199219 C 146.605469 137.210938 147.511719 137.222656 148.421875 137.238281 C 148.097656 140.148438 148.097656 140.148438 147.648438 140.9375 C 146.078125 141.851562 144.394531 142.09375 142.613281 142.15625 L 141.675781 142.109375 L 141.714844 142.769531 C 141.765625 144.242188 141.726562 145.339844 141.230469 146.746094 C 140.550781 147.730469 140.550781 147.730469 139.660156 148.433594 C 138.675781 148.855469 138.675781 148.855469 136.800781 148.855469 L 136.800781 140.984375 L 134.789062 141.007812 C 132.773438 141.03125 132.773438 141.03125 131.929688 140.609375 L 131.929688 138.734375 C 133.339844 138.03125 135.128906 138.222656 136.691406 138.167969 L 137.535156 138.128906 L 138.308594 138.101562 C 139.074219 138.023438 139.074219 138.023438 139.777344 137.609375 C 140.71875 137.15625 141.378906 137.152344 142.417969 137.164062 "/><path style=" stroke:none;fill-rule:nonzero;fill:#012f57;fill-opacity:1;" d="M 194.144531 200.578125 C 194.769531 200.5625 195.394531 200.5625 196.019531 200.578125 C 196.0625 201.640625 196.089844 202.703125 196.113281 203.765625 L 196.152344 204.664062 C 196.183594 206.632812 195.855469 208.003906 194.921875 209.738281 C 194.519531 210.324219 194.519531 210.324219 193.726562 210.863281 L 193.023438 211.445312 C 192.8125 212.226562 192.8125 212.226562 192.671875 213.109375 C 192.433594 214.367188 192.300781 214.785156 191.453125 215.804688 C 190.398438 216.320312 190.398438 216.320312 189.0625 216.367188 L 187.773438 215.945312 C 186.863281 214.890625 186.863281 214.890625 186.277344 213.695312 L 186.277344 212.195312 L 184.777344 212.195312 C 184.660156 211.191406 184.660156 211.191406 184.777344 209.949219 C 185.480469 208.917969 185.480469 208.917969 186.648438 208.074219 C 188.117188 207.628906 189.609375 207.324219 191.148438 207.324219 L 191.246094 206.40625 C 191.671875 203.179688 191.671875 203.179688 192.351562 202.125 C 192.859375 201.632812 192.859375 201.632812 193.773438 200.953125 Z M 194.144531 200.578125 "/><path style=" stroke:none;fill-rule:nonzero;fill:#cdd4d7;fill-opacity:1;" d="M 90.664062 63.878906 C 92.140625 64.386719 93.105469 65.597656 94.191406 66.679688 L 94.9375 67.386719 C 95.589844 68.03125 96.179688 68.640625 96.699219 69.398438 C 96.691406 70.710938 96.207031 71.632812 95.574219 72.769531 L 97.449219 72.394531 L 98.199219 74.269531 L 96.910156 74.738281 C 94.558594 75.625 92.332031 76.484375 90.328125 78.019531 C 89.835938 76.507812 89.347656 74.992188 88.863281 73.476562 C 88.699219 72.960938 88.535156 72.449219 88.367188 71.933594 C 88.125 71.195312 87.890625 70.453125 87.65625 69.710938 L 87.222656 68.359375 C 86.953125 67.148438 86.953125 67.148438 87.0625 66.085938 C 87.328125 65.273438 87.328125 65.273438 87.886719 64.75 L 88.570312 64.386719 C 88.902344 64.195312 88.902344 64.195312 89.246094 64 C 89.953125 63.777344 89.953125 63.777344 90.664062 63.878906 "/><path style=" stroke:none;fill-rule:nonzero;fill:#ced5d8;fill-opacity:1;" d="M 43.101562 16.175781 C 45.367188 18.046875 47.410156 20.082031 49.472656 22.171875 L 47.226562 26.671875 C 44.367188 25.910156 41.535156 25.074219 38.722656 24.164062 L 37.585938 23.800781 C 36.675781 23.507812 35.765625 23.214844 34.855469 22.921875 C 37.296875 20.011719 39.59375 17.742188 43.101562 16.175781 "/><path style=" stroke:none;fill-rule:nonzero;fill:#fda400;fill-opacity:1;" d="M 19.113281 181.839844 C 20.746094 181.816406 22.378906 181.800781 24.011719 181.792969 L 25.40625 181.773438 C 27.695312 181.757812 29.710938 181.75 31.859375 182.585938 C 32.585938 183.054688 32.585938 183.054688 32.980469 183.710938 C 33.121094 184.8125 33.121094 184.8125 32.980469 185.960938 C 32.492188 186.828125 32.492188 186.828125 31.859375 187.460938 C 30.53125 187.902344 29.480469 187.878906 28.082031 187.871094 L 27.304688 187.871094 C 26.488281 187.867188 25.671875 187.863281 24.855469 187.859375 C 24.300781 187.855469 23.746094 187.855469 23.191406 187.851562 C 21.832031 187.847656 20.472656 187.84375 19.113281 187.835938 Z M 19.113281 181.839844 "/><path style=" stroke:none;fill-rule:nonzero;fill:#0159a6;fill-opacity:1;" d="M 88.617188 14.957031 C 90.644531 15.3125 92.125 16.515625 93.707031 17.769531 C 95.503906 19.351562 96.984375 21.234375 98.199219 23.296875 C 98.5 24.292969 98.5 24.292969 98.574219 25.171875 C 98.152344 26.390625 98.152344 26.390625 97.449219 27.421875 C 96.570312 27.753906 96.570312 27.753906 95.574219 27.796875 C 94.753906 27.277344 94.753906 27.277344 93.910156 26.460938 L 92.941406 25.53125 C 92.570312 25.160156 92.195312 24.792969 91.824219 24.421875 C 91.363281 23.96875 90.902344 23.519531 90.441406 23.066406 C 89.316406 21.960938 88.199219 20.847656 87.085938 19.730469 C 86.578125 19.175781 86.578125 19.175781 85.828125 18.050781 C 85.90625 17.039062 86.101562 16.355469 86.601562 15.472656 C 87.328125 15.050781 87.328125 15.050781 88.617188 14.957031 "/><path style=" stroke:none;fill-rule:nonzero;fill:#fea500;fill-opacity:1;" d="M 94.824219 181.839844 L 94.824219 187.835938 C 93.203125 187.871094 91.585938 187.898438 89.964844 187.917969 C 89.414062 187.925781 88.863281 187.933594 88.3125 187.949219 C 87.515625 187.964844 86.722656 187.972656 85.929688 187.980469 L 84.484375 188.003906 C 83.207031 187.835938 83.207031 187.835938 82.113281 187.15625 L 81.332031 186.335938 C 81.121094 185.023438 81.121094 185.023438 81.332031 183.710938 C 81.84375 182.898438 81.84375 182.898438 82.832031 182.210938 C 84.15625 181.96875 85.46875 181.953125 86.8125 181.933594 L 87.890625 181.898438 C 90.199219 181.832031 92.511719 181.828125 94.824219 181.839844 "/><path style=" stroke:none;fill-rule:nonzero;fill:#012f57;fill-opacity:1;" d="M 184.777344 137.238281 C 185.910156 137.195312 187.039062 137.164062 188.171875 137.144531 L 189.136719 137.105469 C 190.660156 137.082031 191.960938 137.128906 193.347656 137.804688 C 194.570312 138.773438 195.160156 139.472656 195.773438 140.882812 C 196.21875 142.414062 196.175781 143.902344 196.113281 145.480469 L 196.09375 146.472656 C 196.074219 147.265625 196.050781 148.0625 196.019531 148.855469 C 195.160156 148.910156 195.160156 148.910156 194.144531 148.855469 C 193.101562 148.097656 192.5625 147.667969 191.898438 146.605469 C 191.503906 145.242188 191.292969 143.894531 191.148438 142.484375 L 190.136719 142.304688 L 188.804688 142.039062 L 187.488281 141.789062 C 186.277344 141.359375 186.277344 141.359375 185.367188 140.519531 C 184.777344 139.484375 184.777344 139.484375 184.683594 138.246094 Z M 184.777344 137.238281 "/><path style=" stroke:none;fill-rule:nonzero;fill:#fea500;fill-opacity:1;" d="M 38.230469 73.144531 C 38.980469 73.25 39.734375 73.375 40.476562 73.519531 C 40.339844 74.480469 40.214844 75.226562 39.679688 76.042969 L 39.097656 76.667969 L 38.382812 77.449219 L 37.480469 78.394531 L 36.921875 78.980469 C 35.59375 80.375 34.253906 81.753906 32.902344 83.125 C 32.421875 83.613281 31.941406 84.105469 31.464844 84.597656 C 30.773438 85.3125 30.074219 86.027344 29.371094 86.734375 L 28.730469 87.40625 C 28.121094 88.015625 28.121094 88.015625 26.984375 88.886719 C 25.945312 88.929688 25.945312 88.929688 25.113281 88.511719 C 24.621094 87.738281 24.621094 87.738281 24.363281 87.011719 C 26.839844 84.179688 29.445312 81.496094 32.113281 78.839844 C 32.78125 78.171875 33.449219 77.503906 34.113281 76.835938 L 35.394531 75.558594 L 35.996094 74.953125 C 37.394531 73.5625 37.394531 73.5625 38.230469 73.144531 M 61.09375 31.167969 C 61.695312 31.285156 62.296875 31.402344 62.894531 31.519531 L 63.910156 31.71875 C 64.839844 31.917969 64.839844 31.917969 65.964844 32.292969 L 65.964844 33.417969 C 65.402344 33.996094 65.402344 33.996094 64.628906 34.613281 C 63.257812 35.757812 62.101562 36.980469 60.941406 38.339844 C 60.160156 39.253906 59.359375 40.097656 58.46875 40.914062 L 57.71875 40.914062 L 57.34375 42.039062 C 56.769531 42.601562 56.769531 42.601562 56.03125 43.207031 C 54.246094 44.722656 52.609375 46.363281 50.972656 48.035156 L 50.222656 47.660156 C 50.714844 46.191406 51.285156 45.371094 52.425781 44.332031 C 53.390625 43.40625 54.164062 42.589844 54.792969 41.40625 C 55.621094 39.886719 56.707031 38.890625 57.960938 37.707031 C 58.617188 37.085938 59.269531 36.457031 59.921875 35.832031 L 60.609375 35.1875 C 61.335938 34.503906 61.335938 34.503906 62.214844 33.417969 C 62.171875 32.632812 62.171875 32.632812 61.84375 31.917969 Z M 61.09375 31.167969 "/><path style=" stroke:none;fill-rule:nonzero;fill:#cdd4d7;fill-opacity:1;" d="M 175.03125 127.117188 L 178.40625 127.117188 L 178.40625 137.238281 L 175.03125 137.238281 Z M 154.417969 127.117188 L 157.414062 127.117188 L 157.789062 137.238281 L 154.417969 137.238281 Z M 154.417969 127.117188 "/><path style=" stroke:none;fill-rule:nonzero;fill:#feab11;fill-opacity:1;" d="M 20.238281 63.777344 C 22.789062 64.492188 25.089844 65.808594 27.359375 67.148438 L 27.359375 67.523438 C 25.878906 67.660156 24.90625 67.3125 23.566406 66.699219 C 22.367188 66.1875 21.140625 65.902344 19.863281 65.648438 L 19.015625 65.480469 C 17.855469 65.296875 16.878906 65.164062 15.734375 65.492188 C 15.097656 65.765625 14.480469 66.082031 13.867188 66.398438 L 12.742188 66.773438 L 12.554688 68.203125 L 12.449219 69.007812 C 12.347656 69.832031 12.347656 69.832031 12.367188 70.898438 C 11.40625 70.078125 11.40625 70.078125 10.496094 69.023438 C 10.449219 68.085938 10.449219 68.085938 10.871094 67.148438 C 12.058594 65.625 13.40625 64.765625 15.171875 64.050781 C 16.886719 63.554688 18.476562 63.53125 20.238281 63.777344 "/><path style=" stroke:none;fill-rule:nonzero;fill:#3b4046;fill-opacity:1;" d="M 140.175781 211.445312 C 142.324219 211.371094 144.148438 211.34375 146.171875 212.195312 C 146.289062 213.203125 146.289062 213.203125 146.171875 214.445312 C 145.398438 215.546875 145.398438 215.546875 144.296875 216.320312 C 142.964844 216.367188 142.964844 216.367188 141.675781 215.945312 C 140.761719 215.148438 140.761719 215.148438 140.175781 214.070312 C 140.082031 212.640625 140.082031 212.640625 140.175781 211.445312 "/><path style=" stroke:none;fill-rule:nonzero;fill:#3c4147;fill-opacity:1;" d="M 190.28125 211.796875 L 191.621094 211.808594 L 192.648438 211.820312 C 192.59375 212.890625 192.535156 213.796875 192.273438 214.820312 C 191.476562 215.78125 191.476562 215.78125 190.398438 216.320312 C 189.0625 216.367188 189.0625 216.367188 187.773438 215.945312 C 186.835938 214.890625 186.835938 214.890625 186.277344 213.695312 C 186.300781 212.828125 186.300781 212.828125 186.648438 212.195312 C 187.933594 211.769531 188.933594 211.785156 190.28125 211.796875 "/><path style=" stroke:none;fill-rule:nonzero;fill:#146dc0;fill-opacity:1;" d="M 109.179688 69.109375 L 109.816406 69.398438 L 110.191406 70.523438 C 109.789062 71.035156 109.789062 71.035156 109.066406 71.648438 C 107.875 72.085938 107.875 72.085938 106.488281 72.46875 L 105.109375 72.855469 C 103.996094 73.105469 103.082031 73.207031 101.945312 73.144531 L 101.570312 71.273438 C 103.75 70 106.636719 68.851562 109.179688 69.109375 "/><path style=" stroke:none;fill-rule:nonzero;fill:#116dc8;fill-opacity:1;" d="M 159.289062 102.003906 L 160.789062 102.753906 C 160.65625 105.503906 159.96875 107.519531 158.539062 109.875 L 157.789062 110.625 C 157.019531 110.554688 157.019531 110.554688 156.292969 110.25 L 155.917969 109.125 C 156.25 108.207031 156.25 108.207031 156.761719 107.160156 L 157.285156 106.054688 L 157.789062 105.003906 C 158.011719 104.492188 158.230469 103.976562 158.445312 103.457031 C 158.914062 102.378906 158.914062 102.378906 159.289062 102.003906 "/><path style=" stroke:none;fill-rule:nonzero;fill:#1970c1;fill-opacity:1;" d="M 110.355469 170.125 L 111.238281 170.101562 C 112.085938 170.097656 112.085938 170.097656 113.5625 170.21875 C 114.21875 170.789062 114.21875 170.789062 114.6875 171.34375 L 114.3125 172.46875 C 113.089844 173.082031 111.746094 172.914062 110.402344 172.914062 L 109.519531 172.925781 C 108.742188 172.929688 107.96875 172.886719 107.191406 172.84375 L 106.070312 172.09375 C 106.207031 171.367188 106.207031 171.367188 106.441406 170.59375 C 107.667969 169.980469 109.007812 170.132812 110.355469 170.125 "/><path style=" stroke:none;fill-rule:nonzero;fill:#085da8;fill-opacity:1;" d="M 123.847656 138.292969 L 124.730469 138.277344 C 125.507812 138.273438 126.28125 138.316406 127.058594 138.359375 L 128.179688 139.109375 C 128.042969 139.835938 128.042969 139.835938 127.808594 140.609375 C 126.582031 141.222656 125.242188 141.070312 123.894531 141.078125 C 123.457031 141.089844 123.457031 141.089844 123.011719 141.101562 C 122.164062 141.109375 122.164062 141.109375 120.6875 140.984375 C 120.03125 140.414062 120.03125 140.414062 119.5625 139.859375 L 119.9375 138.734375 C 121.160156 138.125 122.503906 138.292969 123.847656 138.292969 M 108.316406 138.359375 C 109.367188 138.324219 110.40625 138.308594 111.457031 138.3125 L 112.34375 138.308594 C 113.59375 138.3125 114.621094 138.339844 115.8125 138.734375 C 116.070312 139.507812 116.070312 139.507812 116.1875 140.234375 C 115.0625 140.984375 115.0625 140.984375 114.28125 141.070312 C 113.988281 141.066406 113.699219 141.0625 113.394531 141.058594 L 112.433594 141.050781 L 111.433594 141.03125 L 110.417969 141.023438 C 109.59375 141.011719 108.769531 141 107.941406 140.984375 C 107.925781 140.234375 107.925781 139.484375 107.941406 138.734375 Z M 108.316406 138.359375 "/><path style=" stroke:none;fill-rule:nonzero;fill:#166ec1;fill-opacity:1;" d="M 122.347656 170.125 L 123.230469 170.101562 C 124.082031 170.097656 124.082031 170.097656 125.558594 170.21875 C 126.210938 170.789062 126.210938 170.789062 126.683594 171.34375 L 126.308594 172.46875 C 125.082031 173.082031 123.742188 172.925781 122.394531 172.9375 C 121.960938 172.949219 121.960938 172.949219 121.511719 172.960938 C 120.664062 172.964844 120.664062 172.964844 119.1875 172.84375 C 118.53125 172.273438 118.53125 172.273438 118.0625 171.71875 L 118.4375 170.59375 C 119.664062 169.980469 121.003906 170.132812 122.347656 170.125 "/><path style=" stroke:none;fill-rule:nonzero;fill:#1670c9;fill-opacity:1;" d="M 59.96875 88.886719 L 61.84375 89.261719 C 61.734375 91.289062 60.878906 92.699219 59.832031 94.378906 C 59.089844 95.445312 58.316406 96.277344 57.34375 97.132812 L 56.21875 96.382812 C 56.4375 94.753906 57.039062 93.613281 57.882812 92.214844 L 58.585938 91.039062 C 59.03125 90.3125 59.492188 89.597656 59.96875 88.886719 "/><path style=" stroke:none;fill-rule:nonzero;fill:#0c68be;fill-opacity:1;" d="M 54.347656 100.882812 C 54.96875 100.867188 55.59375 100.867188 56.21875 100.882812 L 56.59375 101.257812 C 56.582031 102.230469 56.539062 103.1875 56.476562 104.160156 L 56.4375 104.976562 C 56.34375 106.496094 56.132812 107.75 55.46875 109.125 L 53.597656 108.753906 C 53.492188 106.035156 53.78125 103.539062 54.347656 100.882812 "/><path style=" stroke:none;fill-rule:nonzero;fill:#176fc1;fill-opacity:1;" d="M 121.808594 65.648438 L 122.183594 67.148438 L 121.457031 67.476562 L 120.6875 67.898438 L 120.3125 68.648438 C 119.355469 68.96875 119.355469 68.96875 118.15625 69.257812 C 117.761719 69.355469 117.371094 69.453125 116.96875 69.554688 C 115.921875 69.753906 115 69.816406 113.9375 69.773438 L 113.5625 67.898438 C 119.238281 65.648438 119.238281 65.648438 121.808594 65.648438 "/><path style=" stroke:none;fill-rule:nonzero;fill:#106abf;fill-opacity:1;" d="M 152.167969 113.625 C 152.121094 114.304688 152.121094 114.304688 151.792969 115.125 C 150.457031 115.945312 149.226562 116.441406 147.671875 116.621094 C 146.546875 116.648438 145.421875 116.644531 144.296875 116.621094 C 144.15625 116 144.03125 115.378906 143.921875 114.75 L 144.296875 114.375 C 145.265625 114.152344 146.226562 113.949219 147.203125 113.765625 L 148.015625 113.597656 C 149.507812 113.3125 150.703125 113.191406 152.167969 113.625 "/><path style=" stroke:none;fill-rule:nonzero;fill:#1870ba;fill-opacity:1;" d="M 132.304688 114.375 C 133.078125 114.289062 133.078125 114.289062 134.015625 114.300781 L 135.035156 114.308594 L 136.097656 114.328125 L 137.171875 114.335938 C 138.046875 114.347656 138.925781 114.359375 139.800781 114.375 C 140.011719 115.078125 140.011719 115.078125 140.175781 115.875 L 139.800781 116.621094 L 132.304688 116.621094 L 131.554688 115.125 Z M 120.3125 114.375 C 121.085938 114.289062 121.085938 114.289062 122.023438 114.300781 L 123.042969 114.308594 L 124.105469 114.328125 L 125.179688 114.335938 C 126.054688 114.347656 126.929688 114.359375 127.808594 114.375 C 128.042969 115.078125 128.042969 115.078125 128.179688 115.875 L 127.433594 116.621094 C 126.691406 116.707031 126.691406 116.707031 125.800781 116.695312 L 124.835938 116.6875 L 123.824219 116.667969 L 122.804688 116.660156 C 121.972656 116.652344 121.140625 116.636719 120.3125 116.621094 L 119.5625 115.125 Z M 108.316406 114.375 C 109.054688 114.289062 109.054688 114.289062 109.949219 114.300781 L 110.914062 114.308594 L 111.925781 114.328125 L 112.945312 114.335938 C 113.773438 114.347656 114.605469 114.359375 115.4375 114.375 L 116.1875 115.875 L 115.4375 116.621094 C 114.699219 116.707031 114.699219 116.707031 113.808594 116.695312 L 112.839844 116.6875 L 111.832031 116.667969 L 110.8125 116.660156 C 109.980469 116.652344 109.148438 116.636719 108.316406 116.621094 L 107.566406 115.125 Z M 108.316406 114.375 "/><path style=" stroke:none;fill-rule:nonzero;fill:#166fb9;fill-opacity:1;" d="M 96.324219 114.375 C 97.0625 114.289062 97.0625 114.289062 97.953125 114.300781 L 98.921875 114.308594 L 99.929688 114.328125 L 100.949219 114.335938 C 101.78125 114.347656 102.613281 114.359375 103.445312 114.375 L 104.195312 115.875 L 103.445312 116.621094 C 102.707031 116.707031 102.707031 116.707031 101.8125 116.695312 L 100.847656 116.6875 L 99.835938 116.667969 L 98.816406 116.660156 C 97.988281 116.652344 97.15625 116.636719 96.324219 116.621094 L 95.574219 115.125 Z M 96.324219 114.375 "/><path style=" stroke:none;fill-rule:nonzero;fill:#0a67be;fill-opacity:1;" d="M 160.039062 90.011719 L 161.164062 90.761719 C 161.292969 91.5 161.292969 91.5 161.273438 92.394531 L 161.261719 93.359375 L 161.234375 94.367188 L 161.21875 95.386719 C 161.207031 96.21875 161.1875 97.050781 161.164062 97.882812 C 160.460938 98.28125 160.460938 98.28125 159.664062 98.632812 L 158.914062 98.257812 L 158.914062 90.386719 Z M 160.039062 90.011719 "/><path style=" stroke:none;fill-rule:nonzero;fill:#1465ac;fill-opacity:1;" d="M 70.085938 80.265625 C 71.09375 80.21875 71.09375 80.21875 71.960938 80.265625 L 72.710938 82.140625 C 71.871094 82.652344 71.027344 83.160156 70.179688 83.664062 L 69.460938 84.105469 C 68.816406 84.488281 68.140625 84.816406 67.464844 85.140625 C 66.632812 84.992188 66.632812 84.992188 65.964844 84.765625 L 65.964844 83.265625 C 66.582031 82.652344 66.582031 82.652344 67.394531 82.09375 L 68.199219 81.527344 C 68.828125 81.109375 69.457031 80.6875 70.085938 80.265625 "/><path style=" stroke:none;fill-rule:nonzero;fill:#fefefe;fill-opacity:1;" d="M 193.398438 50.285156 L 195.269531 50.65625 C 195.691406 51.570312 195.691406 51.570312 196.019531 52.90625 C 195.871094 54.0625 195.59375 55.164062 195.269531 56.28125 C 194.378906 56.351562 194.378906 56.351562 193.398438 56.28125 C 192.648438 55.15625 192.648438 55.15625 192.546875 54.265625 L 192.554688 53.28125 L 192.546875 52.296875 C 192.648438 51.40625 192.648438 51.40625 193.398438 50.285156 M 193.023438 62.652344 C 193.773438 62.636719 194.519531 62.636719 195.269531 62.652344 L 195.644531 63.027344 C 195.671875 63.847656 195.675781 64.667969 195.667969 65.484375 L 195.660156 66.847656 L 195.644531 67.898438 C 194.753906 68.296875 194.753906 68.296875 193.773438 68.648438 L 193.023438 68.273438 C 192.652344 67.164062 192.597656 66.410156 192.601562 65.253906 L 192.597656 64.253906 C 192.648438 63.402344 192.648438 63.402344 193.023438 62.652344 M 193.398438 38.289062 C 194.023438 38.402344 194.648438 38.527344 195.269531 38.664062 L 195.644531 39.039062 C 195.691406 39.78125 195.710938 40.523438 195.714844 41.265625 L 195.730469 42.492188 L 195.644531 43.535156 L 194.894531 44.285156 C 193.914062 44.144531 193.914062 44.144531 193.023438 43.910156 C 192.671875 42.867188 192.585938 42.183594 192.578125 41.101562 L 192.5625 40.222656 C 192.648438 39.414062 192.648438 39.414062 193.398438 38.289062 M 193.398438 74.644531 C 194.023438 74.757812 194.648438 74.882812 195.269531 75.019531 L 195.644531 75.394531 C 195.703125 76.136719 195.730469 76.878906 195.738281 77.621094 L 195.769531 78.847656 L 195.644531 79.890625 L 194.519531 80.640625 C 193.726562 80.570312 193.726562 80.570312 193.023438 80.265625 C 192.671875 79.222656 192.585938 78.539062 192.578125 77.457031 L 192.5625 76.578125 C 192.648438 75.769531 192.648438 75.769531 193.398438 74.644531 "/><path style=" stroke:none;fill-rule:nonzero;fill:#126cc0;fill-opacity:1;" d="M 134.039062 170.195312 L 134.839844 170.199219 C 135.492188 170.207031 136.148438 170.210938 136.800781 170.21875 L 136.425781 172.84375 C 135.570312 172.851562 134.710938 172.859375 133.851562 172.867188 L 132.402344 172.878906 C 131.179688 172.84375 131.179688 172.84375 130.429688 172.46875 L 130.429688 170.59375 C 131.578125 170.019531 132.78125 170.179688 134.039062 170.195312 "/><path style=" stroke:none;fill-rule:nonzero;fill:#0a5fa9;fill-opacity:1;" d="M 135.535156 138.339844 L 136.339844 138.34375 C 136.992188 138.347656 137.648438 138.355469 138.300781 138.359375 C 138.144531 139.246094 137.898438 139.914062 137.472656 140.707031 L 136.800781 141.359375 C 135.816406 141.4375 135.816406 141.4375 134.71875 141.289062 L 133.613281 141.15625 C 132.679688 140.984375 132.679688 140.984375 131.929688 140.609375 L 131.929688 138.734375 C 133.078125 138.160156 134.277344 138.324219 135.535156 138.339844 "/><path style=" stroke:none;fill-rule:nonzero;fill:#0a69c7;fill-opacity:1;" d="M 96.324219 72.394531 C 97.144531 72.535156 97.144531 72.535156 97.824219 72.769531 L 98.199219 74.269531 C 96.433594 74.96875 94.84375 75.53125 92.949219 75.769531 C 93.300781 75.347656 93.652344 74.925781 94.003906 74.503906 L 94.597656 73.792969 C 95.199219 73.144531 95.199219 73.144531 96.324219 72.394531 "/><path style=" stroke:none;fill-rule:nonzero;fill:#1e71d8;fill-opacity:1;" d="M 53.972656 112.875 L 55.84375 113.25 L 55.46875 115.125 L 53.597656 114.75 Z M 53.972656 112.875 "/><path style=" stroke:none;fill-rule:nonzero;fill:#215acc;fill-opacity:1;" d="M 161.164062 84.390625 L 160.789062 86.265625 L 158.914062 85.890625 L 158.914062 84.765625 C 159.664062 84.390625 159.664062 84.390625 161.164062 84.390625 "/></g></svg>