<svg xmlns="http://www.w3.org/2000/svg" xmlns:xlink="http://www.w3.org/1999/xlink" width="300" zoomAndPan="magnify" viewBox="0 0 224.87999 225" height="300" preserveAspectRatio="xMidYMid meet" version="1.2"><g id="b20375e096"><path style=" stroke:none;fill-rule:nonzero;fill:#fea502;fill-opacity:1;" d="M 40.003906 33.695312 L 40.777344 33.691406 C 41.636719 33.6875 42.492188 33.6875 43.351562 33.6875 L 45.210938 33.683594 C 46.914062 33.679688 48.621094 33.675781 50.328125 33.675781 C 52.164062 33.675781 54.003906 33.671875 55.84375 33.667969 C 59.863281 33.660156 63.886719 33.65625 67.90625 33.65625 C 70.417969 33.652344 72.925781 33.652344 75.4375 33.648438 C 83.734375 33.636719 92.03125 33.632812 100.328125 33.632812 L 103.039062 33.632812 C 110.304688 33.628906 117.566406 33.621094 124.832031 33.605469 C 132.285156 33.59375 139.738281 33.585938 147.191406 33.585938 C 151.375 33.585938 155.5625 33.582031 159.75 33.570312 C 163.3125 33.5625 166.875 33.558594 170.441406 33.566406 C 172.261719 33.566406 174.078125 33.566406 175.898438 33.558594 C 177.5625 33.550781 179.226562 33.550781 180.890625 33.558594 C 181.496094 33.5625 182.097656 33.558594 182.699219 33.554688 C 183.519531 33.546875 184.335938 33.550781 185.15625 33.558594 L 186.535156 33.558594 C 187.734375 33.785156 188.117188 33.945312 189.03125 34.675781 C 190.023438 35.664062 190.023438 35.664062 190.535156 36.78125 C 190.992188 38.917969 190.867188 41.152344 190.855469 43.328125 L 190.855469 44.855469 C 190.855469 45.949219 190.855469 47.042969 190.851562 48.136719 C 190.847656 49.863281 190.851562 51.59375 190.855469 53.324219 C 190.867188 58.242188 190.871094 63.15625 190.859375 68.074219 C 190.851562 70.792969 190.855469 73.511719 190.867188 76.230469 C 190.871094 77.667969 190.871094 79.105469 190.863281 80.542969 C 190.855469 81.894531 190.855469 83.242188 190.867188 84.59375 C 190.871094 85.324219 190.859375 86.054688 190.851562 86.785156 C 190.84375 89.113281 190.84375 89.113281 191.648438 91.25 C 192.199219 91.894531 192.769531 92.449219 193.394531 93.011719 C 194.765625 95.199219 195.195312 97.644531 195.691406 100.144531 C 196.335938 103.894531 196.335938 103.894531 198.089844 107.171875 C 199.132812 107.921875 200.238281 108.289062 201.449219 108.6875 C 203.882812 109.5 205.496094 111.367188 207.179688 113.234375 C 209.21875 115.761719 210.578125 118.78125 211.246094 121.949219 C 211.554688 124.226562 211.460938 126.535156 211.433594 128.828125 C 211.429688 129.355469 211.425781 129.878906 211.421875 130.40625 C 211.414062 131.683594 211.402344 132.960938 211.386719 134.238281 L 212.632812 134.1875 C 213.179688 134.171875 213.722656 134.15625 214.269531 134.144531 L 215.085938 134.105469 C 215.875 134.09375 216.605469 134.113281 217.382812 134.238281 C 218.46875 134.851562 218.46875 134.851562 219.257812 135.738281 C 220.222656 137.851562 220.117188 139.964844 220.105469 142.238281 L 220.109375 143.476562 C 220.109375 144.339844 220.109375 145.199219 220.105469 146.058594 C 220.101562 147.375 220.105469 148.691406 220.109375 150.011719 C 220.109375 150.847656 220.109375 151.683594 220.105469 152.523438 L 220.113281 153.714844 L 220.105469 154.828125 L 220.101562 155.804688 C 219.992188 156.859375 219.714844 157.644531 219.257812 158.601562 C 218.113281 159.992188 218.113281 159.992188 217.007812 160.472656 C 215.808594 160.554688 215.808594 160.554688 214.484375 160.527344 L 213.152344 160.503906 L 212.136719 160.472656 L 212.148438 161.46875 C 212.1875 164.570312 212.214844 167.667969 212.234375 170.765625 C 212.242188 172.359375 212.257812 173.953125 212.277344 175.546875 C 212.296875 177.085938 212.308594 178.621094 212.3125 180.160156 C 212.316406 180.746094 212.324219 181.332031 212.335938 181.917969 C 212.347656 182.742188 212.351562 183.5625 212.351562 184.386719 L 212.363281 185.804688 C 212.144531 187.050781 211.992188 187.417969 211.234375 188.355469 C 210.261719 189.335938 210.261719 189.335938 209.511719 189.707031 C 208.46875 189.753906 207.433594 189.777344 206.390625 189.785156 L 205.449219 189.792969 C 204.789062 189.792969 204.132812 189.796875 203.472656 189.796875 C 202.46875 189.800781 201.464844 189.8125 200.460938 189.824219 C 199.820312 189.828125 199.183594 189.832031 198.542969 189.832031 L 197.636719 189.847656 C 196.339844 189.839844 195.410156 189.765625 194.199219 189.277344 C 193.398438 188.585938 193.398438 188.585938 192.273438 186.335938 L 192.273438 178.464844 L 32.609375 178.464844 L 32.609375 186.710938 C 31.109375 188.960938 31.109375 188.960938 30.457031 189.464844 C 29.152344 189.839844 27.855469 189.832031 26.507812 189.835938 L 25.597656 189.84375 C 24.964844 189.847656 24.328125 189.847656 23.695312 189.847656 C 22.726562 189.847656 21.761719 189.863281 20.796875 189.878906 C 20.175781 189.878906 19.558594 189.878906 18.941406 189.882812 L 18.074219 189.898438 C 16.574219 189.886719 15.816406 189.75 14.464844 189.019531 C 13.492188 188.210938 13.492188 188.210938 12.742188 187.085938 C 12.652344 185.941406 12.652344 185.941406 12.65625 184.515625 L 12.65625 183.726562 C 12.65625 182.871094 12.664062 182.011719 12.671875 181.15625 L 12.671875 179.371094 C 12.675781 177.804688 12.683594 176.238281 12.691406 174.671875 C 12.699219 173.074219 12.703125 171.476562 12.707031 169.878906 C 12.714844 166.746094 12.726562 163.609375 12.742188 160.472656 L 11.824219 160.515625 L 10.613281 160.542969 L 9.414062 160.585938 C 8.246094 160.472656 8.246094 160.472656 7.203125 159.953125 C 6.316406 159.3125 5.800781 158.789062 5.246094 157.851562 C 4.941406 156.605469 4.824219 155.433594 4.8125 154.152344 L 4.800781 153.089844 L 4.796875 151.949219 L 4.789062 150.765625 C 4.785156 149.941406 4.785156 149.117188 4.78125 148.292969 C 4.777344 147.035156 4.765625 145.777344 4.753906 144.519531 C 4.753906 143.71875 4.75 142.914062 4.75 142.113281 L 4.734375 140.976562 C 4.742188 138.8125 4.945312 137.269531 5.996094 135.363281 C 6.820312 134.640625 6.820312 134.640625 7.871094 134.238281 C 8.882812 134.160156 9.796875 134.128906 10.796875 134.167969 L 11.585938 134.183594 C 12.222656 134.195312 12.855469 134.21875 13.492188 134.238281 L 13.476562 133.359375 C 13.257812 121.058594 13.257812 121.058594 15.601562 116.339844 C 17.480469 113.183594 20.054688 110.261719 23.238281 108.378906 L 24.226562 108.078125 C 25.460938 107.691406 26.332031 107.292969 27.359375 106.503906 C 28.308594 104.617188 28.726562 102.65625 29.164062 100.601562 C 29.40625 99.53125 29.660156 98.460938 29.921875 97.398438 L 30.109375 96.625 C 30.664062 94.480469 31.542969 92.804688 32.980469 91.136719 L 33.570312 90.667969 L 34.105469 90.011719 C 34.277344 89.007812 34.277344 89.007812 34.246094 87.855469 L 34.253906 86.492188 L 34.246094 84.996094 C 34.246094 84.46875 34.246094 83.945312 34.25 83.417969 C 34.253906 82.289062 34.253906 81.15625 34.25 80.023438 C 34.246094 78.234375 34.25 76.445312 34.253906 74.65625 C 34.269531 70.210938 34.269531 65.769531 34.269531 61.324219 C 34.269531 57.871094 34.273438 54.417969 34.285156 50.964844 C 34.292969 49.1875 34.292969 47.410156 34.285156 45.628906 C 34.28125 44.523438 34.285156 43.417969 34.292969 42.308594 C 34.296875 41.550781 34.289062 40.792969 34.285156 40.039062 L 34.296875 38.667969 L 34.292969 37.480469 C 34.480469 36.414062 34.480469 36.414062 35.148438 35.386719 C 36.683594 33.832031 37.84375 33.699219 40.003906 33.695312 "/><path style=" stroke:none;fill-rule:nonzero;fill:#fea500;fill-opacity:1;" d="M 11.367188 134.097656 L 12.445312 134.089844 C 13.644531 134.085938 14.839844 134.089844 16.039062 134.09375 C 16.902344 134.089844 17.765625 134.089844 18.632812 134.085938 C 21.011719 134.082031 23.394531 134.082031 25.773438 134.085938 C 28.074219 134.089844 30.378906 134.085938 32.679688 134.082031 C 37.679688 134.074219 42.683594 134.070312 47.683594 134.074219 C 53.53125 134.074219 59.375 134.074219 65.222656 134.070312 C 76.273438 134.066406 87.320312 134.066406 98.371094 134.070312 C 108.191406 134.074219 118.011719 134.074219 127.832031 134.0625 C 140.328125 134.054688 152.824219 134.050781 165.320312 134.050781 C 169.695312 134.054688 174.066406 134.050781 178.441406 134.046875 C 183.414062 134.039062 188.386719 134.039062 193.359375 134.046875 C 195.898438 134.050781 198.4375 134.050781 200.976562 134.042969 C 203.296875 134.039062 205.617188 134.039062 207.9375 134.046875 C 208.78125 134.050781 209.625 134.046875 210.464844 134.042969 C 211.605469 134.039062 212.746094 134.042969 213.886719 134.050781 L 214.886719 134.039062 C 215.746094 134.050781 216.539062 134.082031 217.382812 134.238281 C 218.507812 134.941406 218.507812 134.941406 219.257812 135.738281 C 220.296875 137.773438 220.117188 140.007812 220.105469 142.238281 L 220.109375 143.476562 C 220.109375 144.335938 220.109375 145.199219 220.105469 146.058594 C 220.101562 147.375 220.105469 148.691406 220.109375 150.011719 C 220.109375 150.847656 220.109375 151.683594 220.105469 152.523438 L 220.113281 153.714844 L 220.105469 154.828125 L 220.101562 155.804688 C 219.992188 156.859375 219.714844 157.644531 219.257812 158.601562 C 218.113281 159.992188 218.113281 159.992188 217.007812 160.472656 C 215.808594 160.554688 215.808594 160.554688 214.488281 160.527344 L 213.152344 160.503906 L 212.136719 160.472656 L 212.148438 161.46875 C 212.1875 164.570312 212.214844 167.667969 212.234375 170.765625 C 212.242188 172.359375 212.257812 173.953125 212.277344 175.546875 C 212.296875 177.085938 212.308594 178.621094 212.3125 180.160156 C 212.316406 180.746094 212.324219 181.332031 212.335938 181.917969 C 212.347656 182.742188 212.351562 183.5625 212.351562 184.386719 L 212.363281 185.804688 C 212.144531 187.050781 211.992188 187.417969 211.234375 188.355469 C 210.261719 189.335938 210.261719 189.335938 209.511719 189.707031 C 208.46875 189.753906 207.433594 189.777344 206.390625 189.785156 L 205.449219 189.792969 C 204.789062 189.792969 204.132812 189.796875 203.472656 189.796875 C 202.46875 189.800781 201.464844 189.8125 200.460938 189.824219 C 199.820312 189.828125 199.183594 189.832031 198.542969 189.832031 L 197.636719 189.847656 C 196.339844 189.839844 195.410156 189.765625 194.199219 189.277344 C 193.398438 188.585938 193.398438 188.585938 192.273438 186.335938 L 192.273438 178.464844 L 32.609375 178.464844 L 32.609375 186.710938 C 31.109375 188.960938 31.109375 188.960938 30.457031 189.464844 C 29.152344 189.839844 27.855469 189.832031 26.507812 189.835938 L 25.597656 189.84375 C 24.964844 189.847656 24.328125 189.847656 23.695312 189.847656 C 22.726562 189.847656 21.761719 189.863281 20.796875 189.878906 C 20.175781 189.878906 19.558594 189.878906 18.941406 189.882812 L 18.074219 189.898438 C 16.574219 189.886719 15.816406 189.75 14.464844 189.019531 C 13.492188 188.210938 13.492188 188.210938 12.742188 187.085938 C 12.652344 185.941406 12.652344 185.941406 12.65625 184.515625 L 12.65625 183.726562 C 12.65625 182.871094 12.664062 182.011719 12.671875 181.15625 L 12.671875 179.371094 C 12.675781 177.804688 12.683594 176.238281 12.691406 174.671875 C 12.699219 173.074219 12.703125 171.476562 12.707031 169.878906 C 12.714844 166.746094 12.726562 163.609375 12.742188 160.472656 L 11.824219 160.515625 L 10.613281 160.542969 L 9.414062 160.585938 C 8.246094 160.472656 8.246094 160.472656 7.203125 159.953125 C 6.316406 159.3125 5.800781 158.789062 5.246094 157.851562 C 4.941406 156.605469 4.824219 155.433594 4.8125 154.152344 L 4.800781 153.089844 L 4.796875 151.949219 L 4.789062 150.765625 C 4.785156 149.941406 4.785156 149.117188 4.78125 148.292969 C 4.777344 147.035156 4.765625 145.777344 4.753906 144.519531 C 4.753906 143.71875 4.75 142.914062 4.75 142.113281 L 4.734375 140.976562 C 4.742188 139.40625 4.773438 137.972656 5.324219 136.488281 C 5.996094 135.363281 5.996094 135.363281 6.757812 134.738281 C 8.3125 134.039062 9.679688 134.082031 11.367188 134.097656 "/><path style=" stroke:none;fill-rule:nonzero;fill:#dee5ec;fill-opacity:1;" d="M 40.117188 105.65625 L 42.105469 105.652344 C 43.90625 105.648438 45.707031 105.648438 47.507812 105.648438 C 49.457031 105.652344 51.40625 105.648438 53.351562 105.644531 C 57.164062 105.640625 60.976562 105.640625 64.785156 105.640625 C 67.882812 105.640625 70.984375 105.640625 74.082031 105.636719 L 78.113281 105.636719 C 86.519531 105.632812 94.925781 105.632812 103.332031 105.636719 C 111.019531 105.636719 118.703125 105.632812 126.390625 105.625 C 134.289062 105.617188 142.191406 105.617188 150.089844 105.617188 C 154.523438 105.617188 158.953125 105.617188 163.386719 105.613281 C 167.15625 105.605469 170.929688 105.605469 174.699219 105.609375 C 176.625 105.613281 178.546875 105.613281 180.46875 105.609375 C 182.230469 105.605469 183.992188 105.605469 185.757812 105.613281 C 186.390625 105.613281 187.027344 105.613281 187.660156 105.609375 C 192.234375 105.589844 196.613281 105.792969 200.800781 107.863281 C 203.976562 109.753906 206.839844 112.320312 208.761719 115.5 C 212.0625 121.683594 211.386719 126.785156 211.386719 134.238281 L 13.492188 134.238281 C 13.492188 120.585938 13.492188 120.585938 15.601562 116.339844 C 17.722656 112.777344 20.570312 109.945312 24.128906 107.851562 C 28.976562 105.355469 34.792969 105.644531 40.117188 105.65625 "/><path style=" stroke:none;fill-rule:nonzero;fill:#d88e04;fill-opacity:1;" d="M 13.117188 160.472656 C 14.171875 160.4375 15.21875 160.425781 16.273438 160.429688 L 17.292969 160.425781 C 18.433594 160.425781 19.578125 160.425781 20.71875 160.429688 L 23.183594 160.429688 C 25.449219 160.429688 27.71875 160.429688 29.988281 160.429688 C 32.429688 160.433594 34.871094 160.433594 37.3125 160.433594 C 41.546875 160.433594 45.78125 160.433594 50.015625 160.433594 C 56.136719 160.4375 62.261719 160.441406 68.382812 160.4375 C 78.3125 160.441406 88.246094 160.441406 98.175781 160.445312 C 107.828125 160.449219 117.476562 160.453125 127.128906 160.453125 L 128.027344 160.453125 L 155.230469 160.457031 L 156.078125 160.457031 C 174.765625 160.460938 193.449219 160.46875 212.136719 160.472656 C 212.179688 163.90625 212.214844 167.335938 212.234375 170.765625 C 212.242188 172.359375 212.257812 173.953125 212.277344 175.546875 C 212.296875 177.085938 212.308594 178.621094 212.3125 180.160156 C 212.316406 180.746094 212.324219 181.332031 212.335938 181.917969 C 212.347656 182.742188 212.351562 183.5625 212.351562 184.386719 L 212.363281 185.804688 C 212.144531 187.050781 211.992188 187.417969 211.234375 188.355469 C 210.261719 189.335938 210.261719 189.335938 209.511719 189.707031 C 208.46875 189.753906 207.433594 189.777344 206.390625 189.785156 L 205.449219 189.792969 C 204.789062 189.792969 204.132812 189.796875 203.472656 189.796875 C 202.46875 189.800781 201.464844 189.8125 200.460938 189.824219 C 199.820312 189.828125 199.183594 189.832031 198.542969 189.832031 L 197.636719 189.847656 C 196.339844 189.839844 195.410156 189.765625 194.199219 189.277344 C 193.398438 188.585938 193.398438 188.585938 192.273438 186.335938 L 192.273438 178.464844 L 32.609375 178.464844 L 32.609375 186.710938 C 31.109375 188.960938 31.109375 188.960938 30.457031 189.464844 C 29.152344 189.839844 27.855469 189.832031 26.507812 189.835938 L 25.597656 189.84375 C 24.964844 189.847656 24.328125 189.847656 23.695312 189.847656 C 22.726562 189.847656 21.761719 189.863281 20.796875 189.878906 C 20.175781 189.878906 19.558594 189.878906 18.941406 189.882812 L 18.074219 189.898438 C 16.574219 189.886719 15.816406 189.75 14.464844 189.019531 C 13.492188 188.210938 13.492188 188.210938 12.742188 187.085938 C 12.652344 185.957031 12.652344 185.957031 12.652344 184.554688 L 12.648438 183.78125 C 12.648438 182.9375 12.652344 182.09375 12.65625 181.25 L 12.65625 179.492188 C 12.65625 178.265625 12.660156 177.039062 12.664062 175.8125 C 12.671875 174.234375 12.675781 172.660156 12.671875 171.082031 C 12.671875 169.875 12.675781 168.667969 12.679688 167.457031 L 12.679688 165.714844 C 12.679688 164.902344 12.683594 164.09375 12.6875 163.28125 L 12.691406 161.882812 L 12.742188 160.847656 Z M 13.117188 160.472656 "/><path style=" stroke:none;fill-rule:nonzero;fill:#0058a5;fill-opacity:1;" d="M 42.042969 87.726562 L 42.816406 87.726562 C 43.628906 87.730469 44.445312 87.734375 45.257812 87.738281 C 45.808594 87.742188 46.363281 87.742188 46.914062 87.746094 C 48.269531 87.75 49.621094 87.753906 50.972656 87.761719 L 51.125 88.460938 L 51.371094 89.378906 L 51.59375 90.289062 L 52.097656 91.136719 C 54.359375 92.410156 56.386719 92.417969 58.945312 92.398438 L 60.210938 92.40625 C 61.585938 92.40625 62.964844 92.402344 64.339844 92.398438 C 65.296875 92.398438 66.257812 92.398438 67.214844 92.398438 C 69.21875 92.398438 71.226562 92.394531 73.230469 92.386719 C 75.546875 92.378906 77.863281 92.378906 80.179688 92.378906 C 82.410156 92.382812 84.644531 92.378906 86.878906 92.375 C 87.824219 92.375 88.773438 92.375 89.722656 92.375 C 91.046875 92.375 92.371094 92.371094 93.695312 92.363281 L 94.882812 92.367188 L 95.980469 92.359375 L 96.925781 92.355469 C 98.210938 92.21875 99.273438 91.808594 100.328125 91.066406 C 101.050781 90.152344 101.050781 90.152344 101.570312 87.761719 L 123.683594 87.761719 L 125.183594 91.136719 C 126.117188 91.984375 126.117188 91.984375 127.433594 92.261719 C 128.839844 92.410156 130.230469 92.414062 131.640625 92.40625 L 132.917969 92.414062 C 134.304688 92.417969 135.695312 92.414062 137.082031 92.410156 C 138.050781 92.410156 139.015625 92.410156 139.980469 92.414062 C 142.003906 92.414062 144.027344 92.414062 146.054688 92.40625 C 148.390625 92.402344 150.726562 92.402344 153.0625 92.410156 C 155.316406 92.414062 157.566406 92.414062 159.820312 92.410156 C 160.773438 92.410156 161.730469 92.410156 162.6875 92.414062 C 164.023438 92.417969 165.363281 92.414062 166.699219 92.40625 L 167.894531 92.414062 C 169.527344 92.398438 170.726562 92.332031 172.261719 91.742188 C 173.199219 91.195312 173.199219 91.195312 173.707031 90.289062 L 174.046875 89.378906 L 174.40625 88.460938 L 174.65625 87.761719 C 176.261719 87.734375 177.871094 87.714844 179.476562 87.703125 C 180.023438 87.695312 180.566406 87.6875 181.113281 87.679688 C 181.902344 87.664062 182.691406 87.660156 183.476562 87.652344 L 184.910156 87.636719 C 186.898438 87.820312 188.316406 88.554688 190.046875 89.542969 C 192.179688 91.175781 193.464844 92.949219 194.523438 95.40625 C 195.195312 97.167969 195.652344 98.984375 196.113281 100.8125 L 196.417969 101.972656 C 196.824219 103.546875 197.144531 104.867188 197.144531 106.503906 L 195.675781 106.320312 C 192.757812 106.03125 189.835938 106.078125 186.910156 106.082031 L 184.929688 106.078125 C 183.125 106.078125 181.320312 106.078125 179.515625 106.078125 C 177.5625 106.078125 175.613281 106.078125 173.664062 106.078125 C 169.847656 106.078125 166.03125 106.078125 162.210938 106.078125 C 157.765625 106.078125 153.316406 106.078125 148.867188 106.078125 C 140.449219 106.078125 132.027344 106.078125 123.605469 106.078125 C 116.386719 106.082031 109.171875 106.082031 101.953125 106.078125 C 92.667969 106.078125 83.386719 106.078125 74.105469 106.078125 L 72.769531 106.078125 C 69.671875 106.078125 66.574219 106.078125 63.476562 106.078125 C 59.695312 106.078125 55.917969 106.078125 52.140625 106.078125 C 50.214844 106.078125 48.285156 106.078125 46.359375 106.078125 C 44.59375 106.078125 42.828125 106.078125 41.058594 106.078125 C 40.425781 106.082031 39.789062 106.078125 39.152344 106.078125 C 35.328125 106.074219 31.546875 106.195312 27.734375 106.503906 C 28.078125 104.015625 28.644531 101.664062 29.304688 99.242188 L 29.621094 98.007812 C 30.339844 95.382812 31.269531 93.265625 32.980469 91.136719 C 34.503906 89.652344 36.460938 88.59375 38.484375 87.933594 C 39.679688 87.699219 40.824219 87.722656 42.042969 87.726562 "/><path style=" stroke:none;fill-rule:nonzero;fill:#dee5ec;fill-opacity:1;" d="M 172.488281 62.035156 C 173.179688 62.578125 173.746094 63.078125 174.28125 63.777344 C 174.691406 65.019531 174.707031 66.195312 174.71875 67.496094 L 174.726562 68.855469 L 174.734375 70.316406 L 174.734375 71.066406 C 174.742188 72.375 174.746094 73.683594 174.746094 74.992188 C 174.75 76.335938 174.757812 77.679688 174.769531 79.027344 C 174.777344 80.066406 174.777344 81.105469 174.777344 82.144531 C 174.78125 82.882812 174.785156 83.617188 174.792969 84.351562 C 174.789062 86.878906 174.660156 88.855469 173.53125 91.136719 C 172.644531 91.996094 172.085938 92.242188 170.910156 92.636719 C 170.320312 92.667969 169.730469 92.6875 169.136719 92.6875 L 168.035156 92.695312 L 166.824219 92.695312 L 165.550781 92.703125 C 164.15625 92.707031 162.761719 92.710938 161.367188 92.710938 L 158.464844 92.71875 C 156.691406 92.722656 154.921875 92.722656 153.152344 92.726562 C 150.546875 92.726562 147.941406 92.734375 145.339844 92.742188 C 143.082031 92.753906 140.824219 92.757812 138.566406 92.757812 C 137.605469 92.757812 136.648438 92.761719 135.6875 92.765625 C 134.34375 92.773438 133.003906 92.773438 131.660156 92.769531 L 130.457031 92.78125 C 128.820312 92.769531 127.625 92.710938 126.085938 92.113281 C 125.148438 91.488281 124.628906 90.972656 124.058594 90.011719 C 123.648438 88.785156 123.632812 87.878906 123.625 86.585938 L 123.613281 85.152344 L 123.609375 83.597656 L 123.601562 82 C 123.597656 80.886719 123.59375 79.773438 123.59375 78.65625 C 123.59375 77.230469 123.582031 75.804688 123.574219 74.378906 C 123.566406 73.28125 123.5625 72.183594 123.5625 71.082031 C 123.5625 70.558594 123.558594 70.03125 123.554688 69.507812 C 123.546875 68.769531 123.546875 68.035156 123.550781 67.296875 L 123.546875 66.027344 C 123.683594 64.902344 123.683594 64.902344 124.136719 63.90625 C 124.949219 62.839844 125.511719 62.207031 126.683594 61.527344 C 127.996094 61.304688 129.292969 61.3125 130.621094 61.316406 L 131.820312 61.300781 C 133.132812 61.289062 134.441406 61.289062 135.753906 61.285156 C 136.664062 61.277344 137.578125 61.269531 138.492188 61.265625 C 140.40625 61.25 142.320312 61.238281 144.230469 61.234375 C 146.679688 61.226562 149.125 61.210938 151.574219 61.191406 C 153.914062 61.171875 156.253906 61.160156 158.589844 61.144531 L 159.9375 61.136719 C 161.199219 61.128906 162.464844 61.125 163.730469 61.121094 L 164.847656 61.113281 C 170.96875 61.105469 170.96875 61.105469 172.488281 62.035156 M 99.859375 62.207031 C 100.816406 63.023438 101.136719 63.382812 101.570312 64.527344 C 101.667969 65.632812 101.667969 65.632812 101.675781 66.9375 L 101.683594 68.417969 L 101.683594 70.015625 L 101.6875 71.660156 C 101.691406 72.808594 101.691406 73.957031 101.6875 75.105469 C 101.6875 76.574219 101.691406 78.042969 101.703125 79.511719 C 101.707031 80.640625 101.707031 81.773438 101.707031 82.90625 C 101.707031 83.445312 101.707031 83.988281 101.710938 84.527344 C 101.71875 85.285156 101.714844 86.042969 101.710938 86.800781 L 101.710938 88.109375 C 101.554688 89.394531 101.191406 90.089844 100.445312 91.136719 C 99.90625 91.792969 99.90625 91.792969 99.320312 92.261719 C 98.207031 92.613281 97.1875 92.683594 96.023438 92.6875 L 94.929688 92.695312 L 93.738281 92.695312 L 92.476562 92.703125 C 91.097656 92.707031 89.71875 92.710938 88.339844 92.710938 L 85.464844 92.71875 C 83.714844 92.722656 81.960938 92.722656 80.210938 92.726562 C 77.632812 92.726562 75.058594 92.734375 72.484375 92.742188 C 70.25 92.753906 68.015625 92.757812 65.78125 92.757812 C 64.832031 92.757812 63.882812 92.761719 62.933594 92.765625 C 61.605469 92.773438 60.28125 92.773438 58.953125 92.769531 L 57.765625 92.78125 C 55.585938 92.765625 54.019531 92.574219 52.097656 91.511719 C 51.386719 90.710938 51.386719 90.710938 50.972656 89.636719 C 50.828125 88.546875 50.742188 87.457031 50.714844 86.359375 L 50.679688 85.324219 C 50.570312 81.683594 50.550781 78.042969 50.53125 74.402344 C 50.53125 73.707031 50.523438 73.015625 50.519531 72.320312 C 50.511719 71.332031 50.511719 70.34375 50.511719 69.351562 L 50.503906 68.453125 C 50.511719 66.652344 50.714844 65.113281 51.347656 63.402344 C 52.191406 62.597656 52.933594 62.046875 53.972656 61.527344 C 54.515625 61.488281 55.058594 61.472656 55.605469 61.464844 L 56.644531 61.453125 L 57.789062 61.445312 L 58.988281 61.429688 C 60.308594 61.417969 61.625 61.40625 62.945312 61.394531 L 65.691406 61.367188 C 67.613281 61.351562 69.535156 61.335938 71.457031 61.316406 C 73.917969 61.296875 76.375 61.273438 78.835938 61.25 C 80.726562 61.230469 82.617188 61.210938 84.511719 61.195312 C 85.417969 61.1875 86.324219 61.179688 87.230469 61.171875 C 88.5 61.160156 89.773438 61.148438 91.042969 61.136719 L 92.171875 61.125 C 97.746094 61.089844 97.746094 61.089844 99.859375 62.207031 "/><path style=" stroke:none;fill-rule:nonzero;fill:#ccd3d5;fill-opacity:1;" d="M 171.660156 61.527344 C 172.699219 62.140625 173.546875 62.816406 174.28125 63.777344 C 174.691406 65.019531 174.707031 66.195312 174.71875 67.496094 L 174.726562 68.855469 L 174.734375 70.316406 L 174.734375 71.066406 C 174.742188 72.375 174.746094 73.683594 174.746094 74.992188 C 174.75 76.335938 174.757812 77.679688 174.769531 79.027344 C 174.777344 80.066406 174.777344 81.105469 174.777344 82.144531 C 174.78125 82.882812 174.785156 83.617188 174.792969 84.351562 C 174.789062 86.878906 174.660156 88.855469 173.53125 91.136719 C 172.644531 91.996094 172.085938 92.242188 170.910156 92.636719 C 170.324219 92.664062 169.742188 92.675781 169.160156 92.671875 L 168.144531 92.667969 L 167.089844 92.660156 L 166.023438 92.652344 C 165.152344 92.648438 164.28125 92.644531 163.414062 92.636719 L 163.414062 91.511719 C 163.78125 91.128906 164.15625 90.753906 164.539062 90.386719 C 164.949219 89.148438 164.96875 88.214844 164.976562 86.910156 L 164.992188 85.441406 C 164.996094 84.910156 165 84.378906 165 83.847656 L 165.007812 83.035156 C 165.011719 81.613281 165.019531 80.195312 165.023438 78.773438 C 165.027344 77.3125 165.039062 75.851562 165.054688 74.390625 C 165.066406 73.261719 165.066406 72.132812 165.070312 71.003906 C 165.070312 70.464844 165.074219 69.929688 165.082031 69.390625 C 165.167969 65.925781 165.167969 65.925781 164.152344 62.671875 L 163.414062 61.527344 C 169.324219 60.867188 169.324219 60.867188 171.660156 61.527344 M 98.574219 61.527344 C 99.71875 62.132812 100.53125 62.589844 101.25 63.675781 C 101.671875 64.796875 101.667969 65.738281 101.675781 66.9375 L 101.683594 68.417969 L 101.683594 70.015625 L 101.6875 71.660156 C 101.691406 72.808594 101.691406 73.957031 101.6875 75.105469 C 101.6875 76.574219 101.691406 78.042969 101.703125 79.511719 C 101.707031 80.640625 101.707031 81.773438 101.707031 82.90625 C 101.707031 83.445312 101.707031 83.988281 101.710938 84.527344 C 101.71875 85.285156 101.714844 86.042969 101.710938 86.800781 L 101.710938 88.109375 C 101.554688 89.394531 101.191406 90.089844 100.445312 91.136719 C 99.90625 91.792969 99.90625 91.792969 99.320312 92.261719 C 98.207031 92.613281 97.199219 92.679688 96.035156 92.671875 L 95.027344 92.667969 L 93.980469 92.660156 L 92.917969 92.652344 C 92.054688 92.648438 91.191406 92.644531 90.328125 92.636719 L 90.328125 91.511719 L 91.058594 90.722656 C 91.855469 89.75 91.855469 89.75 91.984375 88.882812 C 92.054688 87.957031 92.085938 87.039062 92.101562 86.109375 L 92.132812 85.0625 C 92.164062 83.964844 92.183594 82.867188 92.199219 81.765625 L 92.222656 80.703125 C 92.265625 78.613281 92.285156 76.523438 92.289062 74.429688 C 92.292969 73.363281 92.304688 72.292969 92.316406 71.226562 C 92.320312 70.535156 92.320312 69.84375 92.324219 69.15625 L 92.339844 68.203125 C 92.332031 66.1875 91.988281 64.828125 91.078125 63.027344 L 90.632812 62.113281 L 90.328125 61.527344 C 96.289062 60.929688 96.289062 60.929688 98.574219 61.527344 M 185.902344 105.753906 C 196.050781 105.476562 196.050781 105.476562 200.800781 107.863281 C 203.976562 109.753906 206.839844 112.320312 208.761719 115.5 C 211.132812 119.9375 211.496094 123.863281 211.433594 128.828125 C 211.429688 129.355469 211.425781 129.878906 211.425781 130.40625 C 211.414062 131.683594 211.402344 132.960938 211.386719 134.238281 C 209.832031 134.25 208.28125 134.257812 206.726562 134.261719 L 205.382812 134.269531 L 204.101562 134.273438 L 202.917969 134.28125 L 202.015625 134.238281 L 201.640625 133.863281 C 201.621094 133.25 201.617188 132.632812 201.632812 132.015625 L 201.648438 130.859375 L 201.664062 129.625 C 201.695312 125.019531 201.535156 120.796875 199.394531 116.621094 C 197.605469 113.566406 195.386719 111.011719 192.289062 109.242188 C 191.167969 108.679688 190.039062 108.148438 188.898438 107.628906 C 188.304688 107.332031 187.710938 107.035156 187.117188 106.738281 L 185.902344 106.128906 Z M 185.902344 105.753906 "/><path style=" stroke:none;fill-rule:nonzero;fill:#1871c0;fill-opacity:1;" d="M 30.734375 94.507812 L 32.234375 95.257812 C 31.867188 96.546875 31.5 97.835938 31.132812 99.125 L 30.816406 100.234375 L 30.234375 102.28125 C 30.035156 102.941406 29.828125 103.601562 29.609375 104.253906 L 28.484375 104.253906 L 28.109375 106.128906 L 27.734375 105.003906 C 27.96875 103.914062 27.96875 103.914062 28.355469 102.597656 L 28.769531 101.175781 L 29.210938 99.6875 C 29.359375 99.1875 29.503906 98.6875 29.648438 98.183594 C 30.007812 96.960938 30.371094 95.734375 30.734375 94.507812 "/></g></svg>