<svg xmlns="http://www.w3.org/2000/svg" xmlns:xlink="http://www.w3.org/1999/xlink" width="300" zoomAndPan="magnify" viewBox="0 0 224.87999 225" height="300" preserveAspectRatio="xMidYMid meet" version="1.2"><g id="6f52ed71c2"><path style=" stroke:none;fill-rule:nonzero;fill:#dee5ed;fill-opacity:1;" d="M 215.691406 5.15625 C 217.242188 6.019531 218.335938 7.171875 219.257812 8.679688 C 220.453125 11.519531 220.277344 14.660156 220.007812 17.675781 C 218.339844 29.527344 210.777344 41.121094 203.59375 50.402344 C 198.578125 56.746094 192.914062 62.4375 187.195312 68.140625 L 185.097656 70.238281 C 183.457031 71.875 181.816406 73.511719 180.175781 75.152344 C 178.304688 77.019531 176.433594 78.886719 174.5625 80.753906 C 170.722656 84.589844 166.878906 88.425781 163.039062 92.261719 C 163.632812 94.472656 164.234375 96.679688 164.917969 98.863281 L 165.335938 100.199219 L 165.78125 101.613281 L 166.253906 103.121094 L 167.496094 107.085938 C 167.902344 108.386719 168.3125 109.691406 168.71875 110.992188 L 170.421875 116.421875 C 171.539062 119.996094 172.660156 123.570312 173.777344 127.148438 L 174.027344 127.953125 L 175.40625 132.363281 L 176.492188 131.742188 L 177.921875 130.925781 L 178.636719 130.515625 C 179.101562 130.25 179.5625 129.988281 180.027344 129.722656 C 180.550781 129.425781 181.074219 129.125 181.597656 128.820312 C 182.578125 128.289062 183.375 127.867188 184.503906 127.871094 C 186.054688 128.433594 187.007812 129.492188 188.15625 130.644531 L 188.902344 131.382812 C 189.417969 131.894531 189.9375 132.410156 190.449219 132.929688 C 191.238281 133.71875 192.035156 134.496094 192.832031 135.277344 C 193.335938 135.777344 193.835938 136.28125 194.339844 136.785156 L 195.0625 137.484375 C 196.171875 138.621094 196.71875 139.300781 197.152344 140.863281 C 197.144531 142.105469 197.046875 142.691406 196.4375 143.75 L 195.941406 144.625 L 195.386719 145.527344 L 194.824219 146.476562 C 193.1875 149.132812 191.292969 151.386719 189.074219 153.5625 C 188.519531 154.109375 187.972656 154.660156 187.433594 155.21875 C 184.929688 157.773438 184.929688 157.773438 184.027344 158.226562 C 184.246094 160.003906 184.59375 161.636719 185.136719 163.339844 L 185.359375 164.054688 C 185.601562 164.824219 185.851562 165.597656 186.097656 166.371094 L 186.617188 168.015625 C 186.984375 169.175781 187.351562 170.332031 187.71875 171.492188 C 188.386719 173.589844 189.050781 175.6875 189.710938 177.785156 L 191.109375 182.214844 C 192.398438 186.292969 193.6875 190.375 194.949219 194.464844 C 195.113281 195.003906 195.28125 195.542969 195.449219 196.082031 C 197.113281 201.40625 197.113281 201.40625 197.144531 203.578125 C 196.421875 206.136719 195.269531 207.601562 193.390625 209.453125 L 192.613281 210.238281 C 192.070312 210.78125 191.523438 211.324219 190.976562 211.863281 C 190.144531 212.6875 189.320312 213.515625 188.5 214.351562 C 187.96875 214.882812 187.4375 215.410156 186.902344 215.941406 L 186.167969 216.6875 C 184.550781 218.265625 183.199219 219.054688 181.027344 219.691406 C 179.707031 219.835938 178.5625 219.667969 177.28125 219.316406 C 175.710938 218.609375 174.457031 217.792969 173.40625 216.410156 C 171.71875 213.957031 170.316406 211.339844 168.894531 208.730469 L 168.105469 207.289062 C 167.558594 206.296875 167.015625 205.300781 166.472656 204.304688 C 165.332031 202.222656 164.183594 200.144531 163.035156 198.0625 C 162.410156 196.933594 161.789062 195.804688 161.164062 194.675781 L 160.414062 193.316406 L 146.921875 168.859375 L 146.546875 168.179688 L 140.539062 157.292969 L 138.652344 153.867188 L 138.277344 153.1875 C 136.449219 149.875 134.613281 146.5625 132.773438 143.257812 C 130.34375 138.890625 127.941406 134.507812 125.558594 130.117188 C 123.539062 131.816406 123.539062 131.816406 121.644531 133.652344 C 120.769531 134.542969 119.859375 135.398438 118.910156 136.210938 C 117.359375 137.558594 115.871094 138.960938 114.382812 140.375 C 112.359375 142.289062 110.308594 144.109375 108.128906 145.84375 C 107.183594 146.613281 106.285156 147.421875 105.390625 148.246094 C 103.71875 149.769531 101.972656 151.164062 100.1875 152.546875 C 98.773438 153.644531 97.382812 154.773438 96.019531 155.929688 C 93.429688 158.105469 90.734375 160.136719 88.039062 162.179688 C 86.671875 163.226562 85.308594 164.28125 83.957031 165.347656 C 84.585938 167.640625 85.746094 169.625 86.882812 171.695312 L 87.53125 172.886719 C 89.253906 176.03125 91.015625 179.160156 92.800781 182.273438 C 95.453125 186.917969 97.226562 190.597656 97.210938 196.019531 C 97.125 198.992188 96.441406 201.652344 94.984375 204.257812 C 93.683594 206.21875 92.238281 207.828125 90.328125 209.199219 L 89.683594 209.679688 C 88.527344 210.453125 87.632812 210.703125 86.25 210.839844 C 85.214844 210.632812 84.71875 210.332031 83.910156 209.640625 C 82.996094 208.65625 82.164062 207.632812 81.332031 206.574219 C 81.015625 206.183594 80.703125 205.789062 80.386719 205.394531 C 79.3125 204.050781 78.261719 202.6875 77.207031 201.328125 C 76.34375 200.210938 75.476562 199.09375 74.609375 197.976562 L 73.933594 197.109375 C 72.359375 195.082031 70.761719 193.070312 69.144531 191.074219 C 68.121094 189.800781 67.117188 188.507812 66.140625 187.195312 L 65.472656 186.300781 C 65.042969 185.726562 64.617188 185.148438 64.195312 184.566406 L 63.609375 183.785156 L 63.09375 183.082031 L 62.589844 182.585938 L 61.46875 182.585938 C 60.65625 183.089844 59.859375 183.613281 59.078125 184.15625 C 55.570312 186.5 51.960938 188.015625 47.71875 188.304688 C 45.40625 188.257812 43.175781 187.710938 41.125 186.640625 C 39.292969 185.40625 38.242188 183.878906 37.152344 181.976562 C 36.003906 179.5625 36.164062 176.960938 36.355469 174.34375 C 37.132812 170.460938 38.863281 167.011719 41.179688 163.824219 L 41.976562 162.722656 L 41.976562 161.972656 C 41.476562 161.492188 41.476562 161.492188 40.808594 161.019531 L 40.035156 160.441406 L 39.191406 159.820312 C 36.886719 158.089844 34.628906 156.324219 32.421875 154.476562 C 30.328125 152.734375 28.195312 151.039062 26.023438 149.394531 C 23.863281 147.761719 21.734375 146.089844 19.628906 144.382812 L 18.90625 143.792969 C 18.222656 143.234375 17.542969 142.671875 16.867188 142.109375 L 16.125 141.496094 L 15.40625 140.890625 L 14.757812 140.347656 C 14.242188 139.859375 14.242188 139.859375 13.867188 139.109375 C 13.621094 136.679688 13.621094 136.679688 14.167969 135.425781 C 15.835938 132.890625 18.402344 131.175781 21.058594 129.8125 C 24.820312 128.039062 28.46875 127.566406 32.609375 127.867188 C 36.859375 128.511719 40.355469 130.085938 44.058594 132.214844 C 45.082031 132.796875 46.109375 133.375 47.136719 133.949219 C 53.011719 137.246094 53.011719 137.246094 55.09375 138.519531 L 56.289062 139.25 L 57.265625 139.867188 C 58.058594 140.28125 58.058594 140.28125 58.84375 140.25 C 60.003906 139.648438 60.65625 138.664062 61.421875 137.636719 L 62.515625 136.199219 L 63.101562 135.421875 C 64.183594 133.996094 65.285156 132.582031 66.386719 131.167969 L 67.066406 130.292969 C 69.609375 127.023438 72.246094 123.835938 74.929688 120.683594 C 75.996094 119.421875 77.046875 118.148438 78.074219 116.855469 C 79.898438 114.613281 81.882812 112.523438 83.867188 110.421875 C 84.777344 109.453125 85.667969 108.472656 86.53125 107.464844 C 87.613281 106.207031 88.777344 105.050781 89.957031 103.886719 C 91.582031 102.242188 93.078125 100.492188 94.449219 98.632812 L 93.457031 98.328125 C 92.238281 97.898438 91.195312 97.382812 90.070312 96.75 L 88.84375 96.066406 C 88.414062 95.824219 87.984375 95.578125 87.539062 95.328125 L 86.175781 94.566406 C 82.996094 92.785156 79.824219 90.980469 76.648438 89.179688 C 73.683594 87.503906 70.695312 85.878906 67.695312 84.261719 C 64.675781 82.628906 61.664062 80.972656 58.667969 79.296875 C 51.824219 75.480469 44.964844 71.6875 38.101562 67.90625 C 35.832031 66.652344 33.5625 65.402344 31.296875 64.152344 L 28.59375 62.660156 L 27.917969 62.285156 L 24.4375 60.367188 L 23.71875 59.96875 L 22.285156 59.179688 C 21.121094 58.539062 19.957031 57.898438 18.796875 57.253906 C 16.835938 56.167969 14.871094 55.085938 12.890625 54.039062 L 11.949219 53.535156 C 11.398438 53.238281 10.84375 52.949219 10.289062 52.664062 C 8.460938 51.683594 7.210938 50.464844 5.996094 48.785156 C 4.957031 46.949219 4.742188 45.421875 4.722656 43.359375 C 4.921875 42.09375 5.347656 41.28125 5.996094 40.164062 C 6.832031 39.167969 7.742188 38.261719 8.664062 37.347656 L 9.453125 36.554688 C 10 36.003906 10.550781 35.457031 11.101562 34.910156 C 11.945312 34.074219 12.78125 33.234375 13.617188 32.390625 C 14.152344 31.855469 14.6875 31.320312 15.222656 30.789062 L 15.976562 30.027344 C 16.90625 29.113281 17.769531 28.300781 18.890625 27.632812 C 21.726562 27.015625 24.078125 27.5625 26.816406 28.417969 L 28.179688 28.863281 C 28.667969 29.015625 29.152344 29.167969 29.632812 29.320312 C 30.929688 29.730469 32.222656 30.144531 33.515625 30.558594 C 34.859375 30.992188 36.203125 31.414062 37.546875 31.839844 C 39.453125 32.445312 41.359375 33.050781 43.265625 33.65625 C 46.433594 34.667969 49.609375 35.664062 52.785156 36.652344 L 54.0625 37.050781 L 57.671875 38.171875 C 59.132812 38.625 60.589844 39.082031 62.050781 39.535156 L 63 39.832031 C 65.128906 40.496094 65.128906 40.496094 65.964844 40.914062 L 66.253906 40.257812 C 68.476562 36.179688 73.269531 32.5 77.152344 30.050781 C 77.792969 29.664062 78.4375 29.292969 79.082031 28.917969 L 80.199219 28.265625 C 81.953125 27.308594 81.953125 27.308594 82.832031 27.046875 C 83.652344 27.066406 83.652344 27.066406 84.703125 27.421875 C 85.660156 28.144531 86.488281 28.976562 87.335938 29.824219 L 88.078125 30.558594 C 88.597656 31.074219 89.113281 31.589844 89.628906 32.109375 C 90.417969 32.898438 91.210938 33.675781 92.011719 34.457031 C 92.511719 34.957031 93.015625 35.460938 93.519531 35.960938 L 94.238281 36.664062 C 95.339844 37.785156 95.898438 38.488281 96.347656 40.023438 C 96.320312 41.417969 96.09375 42.078125 95.375 43.265625 L 94.757812 44.316406 L 94.097656 45.386719 L 93.441406 46.488281 C 92.910156 47.382812 92.371094 48.273438 91.824219 49.160156 L 92.648438 49.355469 C 95.457031 50.039062 98.207031 50.839844 100.960938 51.722656 L 102.269531 52.140625 L 105.023438 53.015625 C 106.457031 53.472656 107.886719 53.925781 109.320312 54.382812 C 109.558594 54.457031 109.796875 54.53125 110.042969 54.609375 L 113.628906 55.746094 L 118.871094 57.40625 C 120.851562 58.03125 122.832031 58.652344 124.816406 59.269531 C 125.386719 59.445312 125.953125 59.625 126.519531 59.804688 C 127.289062 60.046875 128.0625 60.285156 128.832031 60.523438 L 130.109375 60.921875 C 131.117188 61.203125 131.117188 61.203125 131.910156 61.058594 C 132.871094 60.707031 133.355469 60.238281 134.078125 59.511719 L 134.902344 58.691406 L 135.792969 57.785156 L 136.746094 56.832031 C 137.605469 55.972656 138.460938 55.105469 139.316406 54.242188 C 140.214844 53.335938 141.117188 52.429688 142.019531 51.527344 C 143.726562 49.8125 145.433594 48.09375 147.140625 46.375 C 150.1875 43.304688 153.238281 40.238281 156.292969 37.175781 C 157.1875 36.277344 158.082031 35.375 158.976562 34.476562 C 159.976562 33.46875 160.976562 32.460938 161.976562 31.457031 L 162.859375 30.5625 C 164.601562 28.816406 166.410156 27.144531 168.285156 25.546875 L 169.40625 24.558594 C 174.984375 19.738281 181.003906 15.710938 187.398438 12.054688 L 188.15625 11.617188 C 195.71875 7.269531 206.992188 1.648438 215.691406 5.15625 "/><path style=" stroke:none;fill-rule:nonzero;fill:#ccd4d6;fill-opacity:1;" d="M 211.011719 4.183594 C 212.980469 4.324219 214.558594 4.625 216.300781 5.570312 C 217.519531 6.40625 218.476562 7.421875 219.257812 8.679688 C 220.449219 11.523438 220.277344 14.65625 220.007812 17.675781 C 218.339844 29.527344 210.777344 41.121094 203.59375 50.402344 C 198.578125 56.746094 192.914062 62.4375 187.195312 68.140625 L 185.097656 70.238281 C 183.457031 71.875 181.816406 73.511719 180.175781 75.152344 C 178.304688 77.019531 176.433594 78.886719 174.5625 80.753906 C 170.722656 84.589844 166.878906 88.425781 163.039062 92.261719 C 163.632812 94.472656 164.234375 96.679688 164.917969 98.863281 L 165.335938 100.199219 L 165.78125 101.613281 L 166.253906 103.121094 L 167.496094 107.085938 C 167.902344 108.386719 168.3125 109.691406 168.71875 110.992188 L 170.421875 116.421875 C 171.539062 119.996094 172.660156 123.570312 173.777344 127.148438 L 174.027344 127.953125 L 175.40625 132.363281 L 176.492188 131.742188 L 177.921875 130.925781 L 178.636719 130.515625 C 179.101562 130.25 179.5625 129.988281 180.027344 129.722656 C 180.550781 129.425781 181.074219 129.125 181.597656 128.820312 C 182.578125 128.289062 183.375 127.867188 184.503906 127.871094 C 186.054688 128.433594 187.007812 129.492188 188.15625 130.644531 L 188.902344 131.382812 C 189.417969 131.894531 189.9375 132.410156 190.449219 132.929688 C 191.238281 133.71875 192.035156 134.496094 192.832031 135.277344 C 193.335938 135.777344 193.835938 136.28125 194.339844 136.785156 L 195.0625 137.484375 C 196.171875 138.621094 196.71875 139.300781 197.152344 140.863281 C 197.144531 142.105469 197.046875 142.691406 196.4375 143.75 L 195.941406 144.625 L 195.386719 145.527344 L 194.824219 146.476562 C 193.1875 149.132812 191.292969 151.386719 189.074219 153.5625 C 188.519531 154.109375 187.972656 154.660156 187.433594 155.21875 C 184.929688 157.773438 184.929688 157.773438 184.027344 158.226562 C 184.246094 160.003906 184.59375 161.636719 185.136719 163.339844 L 185.359375 164.054688 C 185.601562 164.824219 185.851562 165.597656 186.097656 166.371094 L 186.617188 168.015625 C 186.984375 169.175781 187.351562 170.332031 187.71875 171.492188 C 188.386719 173.589844 189.050781 175.6875 189.710938 177.785156 L 191.109375 182.214844 C 192.398438 186.292969 193.6875 190.375 194.949219 194.464844 C 195.113281 195.003906 195.28125 195.542969 195.449219 196.082031 C 197.113281 201.40625 197.113281 201.40625 197.144531 203.578125 C 196.421875 206.136719 195.269531 207.601562 193.390625 209.453125 L 192.613281 210.238281 C 192.070312 210.78125 191.523438 211.324219 190.976562 211.863281 C 190.144531 212.6875 189.320312 213.515625 188.5 214.351562 C 187.96875 214.882812 187.4375 215.410156 186.902344 215.941406 L 186.167969 216.6875 C 184.550781 218.265625 183.199219 219.054688 181.027344 219.691406 C 179.707031 219.835938 178.5625 219.667969 177.28125 219.316406 C 175.710938 218.609375 174.457031 217.792969 173.40625 216.410156 C 171.71875 213.957031 170.316406 211.339844 168.894531 208.730469 L 168.105469 207.289062 C 167.558594 206.296875 167.015625 205.300781 166.472656 204.304688 C 165.332031 202.222656 164.183594 200.144531 163.035156 198.0625 C 162.410156 196.933594 161.789062 195.804688 161.164062 194.675781 L 160.414062 193.316406 L 146.921875 168.859375 L 146.546875 168.179688 L 140.539062 157.292969 L 138.652344 153.867188 L 138.277344 153.1875 C 136.449219 149.875 134.613281 146.5625 132.773438 143.257812 C 130.34375 138.890625 127.941406 134.507812 125.558594 130.117188 C 123.539062 131.816406 123.539062 131.816406 121.644531 133.652344 C 120.769531 134.542969 119.859375 135.398438 118.910156 136.210938 C 117.359375 137.558594 115.871094 138.960938 114.382812 140.375 C 112.359375 142.289062 110.308594 144.109375 108.128906 145.84375 C 107.183594 146.613281 106.285156 147.421875 105.390625 148.246094 C 103.71875 149.769531 101.972656 151.164062 100.1875 152.546875 C 98.773438 153.644531 97.382812 154.773438 96.019531 155.929688 C 93.429688 158.105469 90.734375 160.136719 88.039062 162.179688 C 86.671875 163.226562 85.308594 164.28125 83.957031 165.347656 C 84.585938 167.640625 85.746094 169.625 86.882812 171.695312 L 87.53125 172.886719 C 89.253906 176.03125 91.015625 179.160156 92.800781 182.273438 C 95.453125 186.917969 97.226562 190.597656 97.210938 196.019531 C 97.125 198.992188 96.441406 201.652344 94.984375 204.257812 C 93.683594 206.21875 92.238281 207.828125 90.328125 209.199219 L 89.683594 209.679688 C 88.527344 210.453125 87.632812 210.703125 86.25 210.839844 C 85.214844 210.632812 84.71875 210.332031 83.910156 209.640625 C 82.996094 208.65625 82.164062 207.632812 81.332031 206.574219 C 81.015625 206.183594 80.703125 205.789062 80.386719 205.394531 C 79.3125 204.050781 78.261719 202.6875 77.207031 201.328125 C 76.34375 200.210938 75.476562 199.09375 74.609375 197.976562 L 73.933594 197.109375 C 72.359375 195.082031 70.761719 193.070312 69.144531 191.074219 C 68.121094 189.800781 67.117188 188.507812 66.140625 187.195312 L 65.472656 186.300781 C 65.042969 185.726562 64.617188 185.148438 64.195312 184.566406 L 63.609375 183.785156 L 63.09375 183.082031 L 62.589844 182.585938 L 61.46875 182.585938 C 60.65625 183.089844 59.859375 183.613281 59.078125 184.15625 C 55.570312 186.5 51.960938 188.015625 47.71875 188.304688 C 45.40625 188.257812 43.175781 187.710938 41.125 186.640625 C 39.308594 185.414062 38.1875 183.894531 37.125 181.992188 C 36.730469 181.089844 36.730469 181.089844 36.589844 179.730469 L 36.730469 178.839844 L 37.539062 178.769531 C 39.53125 178.597656 41.503906 178.398438 43.476562 178.089844 L 43.6875 177.140625 C 44.410156 175.394531 45.503906 174.359375 46.839844 173.050781 L 47.65625 172.234375 C 48.542969 171.347656 49.433594 170.464844 50.328125 169.582031 C 50.945312 168.964844 51.5625 168.347656 52.179688 167.730469 C 53.476562 166.4375 54.773438 165.148438 56.070312 163.863281 C 57.738281 162.210938 59.398438 160.558594 61.058594 158.898438 C 62.640625 157.320312 64.226562 155.742188 65.8125 154.167969 L 66.730469 153.253906 C 67.585938 152.402344 68.441406 151.550781 69.300781 150.703125 L 70.070312 149.933594 L 70.777344 149.234375 L 71.390625 148.625 C 71.960938 148.105469 71.960938 148.105469 73.085938 147.355469 C 74.164062 147.214844 74.164062 147.214844 75.335938 147.355469 C 76.390625 147.988281 76.390625 147.988281 77.207031 148.855469 C 77.558594 149.769531 77.558594 149.769531 77.582031 150.730469 C 77.394531 151.621094 77.394531 151.621094 76.835938 152.605469 C 76 153.523438 75.121094 154.382812 74.210938 155.226562 C 76.351562 154.417969 77.972656 153.339844 79.761719 151.925781 L 80.589844 151.277344 C 81.167969 150.828125 81.746094 150.375 82.324219 149.921875 C 83.195312 149.238281 84.070312 148.5625 84.949219 147.886719 C 88.105469 145.457031 91.207031 142.980469 94.222656 140.375 C 94.863281 139.828125 95.503906 139.28125 96.144531 138.738281 C 98.5625 136.679688 100.945312 134.589844 103.285156 132.445312 C 104.046875 131.75 104.816406 131.066406 105.601562 130.398438 C 109.613281 126.894531 113.425781 123.1875 117.140625 119.371094 L 117.917969 118.582031 L 118.605469 117.875 L 119.1875 117.371094 L 119.9375 117.371094 L 120.6875 115.875 L 121.433594 115.875 L 122.183594 114.375 L 122.933594 114.375 L 123.179688 113.761719 C 123.863281 112.5625 124.789062 111.664062 125.761719 110.703125 L 126.410156 110.050781 C 127.128906 109.328125 127.851562 108.605469 128.574219 107.886719 L 130.121094 106.335938 C 131.523438 104.933594 132.925781 103.527344 134.332031 102.128906 C 135.796875 100.660156 137.265625 99.195312 138.730469 97.726562 C 141.191406 95.265625 143.652344 92.804688 146.117188 90.34375 C 148.96875 87.496094 151.820312 84.644531 154.667969 81.792969 C 157.109375 79.347656 159.554688 76.902344 162 74.457031 C 163.460938 73 164.921875 71.535156 166.382812 70.074219 C 167.753906 68.699219 169.128906 67.328125 170.5 65.957031 C 171.007812 65.453125 171.511719 64.949219 172.015625 64.441406 C 172.703125 63.753906 173.390625 63.070312 174.078125 62.382812 L 174.6875 61.769531 C 175.164062 61.300781 175.660156 60.847656 176.15625 60.402344 L 176.90625 60.402344 L 177.195312 59.726562 C 177.695312 58.828125 178.191406 58.367188 178.992188 57.730469 C 179.984375 56.953125 179.984375 56.953125 180.652344 55.90625 L 181.402344 55.90625 L 181.675781 55.261719 C 182.25 54.230469 182.941406 53.53125 183.785156 52.703125 L 184.75 51.742188 L 185.761719 50.75 L 186.78125 49.742188 C 187.609375 48.921875 188.441406 48.101562 189.273438 47.285156 C 188.398438 46.175781 187.578125 45.179688 186.488281 44.285156 C 175.195312 34.625 175.195312 34.625 173.15625 28.917969 C 173.203125 28.175781 173.203125 28.175781 173.53125 27.421875 C 174.859375 25.886719 176.28125 24.648438 178.195312 23.953125 C 181.269531 24.167969 183.828125 25.757812 186.351562 27.425781 C 190.210938 30.164062 193.757812 33.210938 196.394531 37.164062 C 202.597656 31.273438 206.601562 21.582031 209.136719 13.554688 C 210.027344 10.480469 210.652344 7.359375 211.011719 4.183594 "/><path style=" stroke:none;fill-rule:nonzero;fill:#fea500;fill-opacity:1;" d="M 83.652344 27.066406 C 85.234375 27.597656 86.171875 28.660156 87.335938 29.824219 L 88.078125 30.558594 C 88.597656 31.074219 89.113281 31.589844 89.628906 32.109375 C 90.417969 32.898438 91.210938 33.675781 92.011719 34.457031 C 92.511719 34.957031 93.015625 35.460938 93.519531 35.960938 L 94.238281 36.664062 C 95.339844 37.785156 95.898438 38.488281 96.347656 40.023438 C 96.320312 41.417969 96.09375 42.078125 95.375 43.265625 L 94.757812 44.316406 L 94.097656 45.386719 L 93.441406 46.488281 C 92.910156 47.382812 92.371094 48.273438 91.824219 49.160156 L 92.648438 49.355469 C 95.457031 50.039062 98.207031 50.839844 100.960938 51.722656 L 102.269531 52.140625 C 103.1875 52.429688 104.105469 52.722656 105.023438 53.015625 C 107.414062 53.777344 109.804688 54.535156 112.195312 55.292969 L 112.914062 55.523438 C 117.730469 57.046875 122.5625 58.539062 127.402344 59.996094 L 128.179688 60.230469 C 128.851562 60.433594 129.523438 60.636719 130.195312 60.839844 C 131.179688 61.152344 131.179688 61.152344 131.929688 61.527344 C 131.382812 62.785156 130.691406 63.605469 129.722656 64.574219 L 128.804688 65.496094 L 127.792969 66.5 L 126.726562 67.5625 C 125.765625 68.523438 124.804688 69.484375 123.839844 70.445312 C 122.832031 71.449219 121.824219 72.453125 120.820312 73.457031 C 118.914062 75.359375 117.007812 77.261719 115.101562 79.160156 C 112.929688 81.324219 110.761719 83.488281 108.589844 85.652344 C 104.128906 90.105469 99.664062 94.558594 95.199219 99.007812 C 93.574219 98.484375 92.148438 97.875 90.65625 97.042969 L 90.007812 96.683594 C 89.308594 96.296875 88.609375 95.90625 87.914062 95.515625 L 86.445312 94.699219 C 83.15625 92.871094 79.882812 91.019531 76.613281 89.160156 C 73.660156 87.488281 70.683594 85.871094 67.695312 84.261719 C 64.671875 82.632812 61.667969 80.972656 58.667969 79.296875 C 51.824219 75.480469 44.964844 71.6875 38.101562 67.90625 C 35.832031 66.652344 33.5625 65.402344 31.296875 64.152344 L 28.59375 62.660156 L 27.917969 62.285156 L 24.4375 60.367188 L 23.71875 59.96875 L 22.285156 59.179688 C 21.121094 58.539062 19.957031 57.898438 18.796875 57.253906 C 16.835938 56.167969 14.871094 55.085938 12.890625 54.039062 L 11.949219 53.535156 C 11.398438 53.238281 10.84375 52.949219 10.289062 52.664062 C 8.460938 51.683594 7.210938 50.464844 5.996094 48.785156 C 4.957031 46.949219 4.742188 45.421875 4.722656 43.359375 C 4.921875 42.09375 5.347656 41.28125 5.996094 40.164062 C 6.832031 39.167969 7.742188 38.261719 8.664062 37.347656 L 9.453125 36.554688 C 10 36.003906 10.550781 35.457031 11.101562 34.910156 C 11.945312 34.074219 12.78125 33.234375 13.617188 32.390625 C 14.152344 31.855469 14.6875 31.320312 15.222656 30.789062 L 15.976562 30.027344 C 16.90625 29.113281 17.769531 28.300781 18.890625 27.632812 C 21.726562 27.015625 24.078125 27.5625 26.816406 28.417969 L 28.179688 28.863281 C 28.667969 29.015625 29.152344 29.167969 29.632812 29.320312 C 30.929688 29.730469 32.222656 30.144531 33.515625 30.558594 C 34.859375 30.992188 36.203125 31.414062 37.546875 31.839844 C 39.453125 32.445312 41.359375 33.050781 43.265625 33.65625 C 46.433594 34.667969 49.609375 35.664062 52.785156 36.652344 L 54.0625 37.050781 L 57.671875 38.171875 C 59.132812 38.625 60.589844 39.082031 62.050781 39.535156 L 63 39.832031 C 65.128906 40.496094 65.128906 40.496094 65.964844 40.914062 L 66.253906 40.257812 C 68.476562 36.179688 73.269531 32.5 77.152344 30.050781 C 77.792969 29.664062 78.4375 29.292969 79.082031 28.917969 L 80.199219 28.265625 C 82.453125 27.035156 82.453125 27.035156 83.652344 27.066406 M 162.289062 93.011719 L 163.039062 93.011719 C 164.671875 98.175781 166.304688 103.339844 167.933594 108.503906 C 170.449219 116.449219 172.949219 124.402344 175.40625 132.363281 L 176.535156 131.714844 C 177.6875 131.046875 178.84375 130.386719 180.003906 129.734375 C 180.539062 129.429688 181.070312 129.125 181.605469 128.820312 C 182.578125 128.289062 183.378906 127.867188 184.503906 127.871094 C 186.054688 128.433594 187.007812 129.492188 188.15625 130.644531 L 188.902344 131.382812 C 189.417969 131.894531 189.9375 132.410156 190.449219 132.929688 C 191.238281 133.71875 192.035156 134.496094 192.832031 135.277344 C 193.335938 135.777344 193.835938 136.28125 194.339844 136.785156 L 195.0625 137.484375 C 196.171875 138.621094 196.71875 139.300781 197.152344 140.863281 C 197.144531 142.105469 197.046875 142.691406 196.4375 143.75 L 195.941406 144.625 L 195.386719 145.527344 L 194.824219 146.476562 C 193.1875 149.132812 191.292969 151.386719 189.074219 153.5625 C 188.519531 154.109375 187.972656 154.660156 187.433594 155.21875 C 184.929688 157.773438 184.929688 157.773438 184.027344 158.226562 C 184.246094 160.003906 184.59375 161.636719 185.136719 163.339844 L 185.359375 164.054688 C 185.601562 164.824219 185.851562 165.597656 186.097656 166.371094 L 186.617188 168.015625 C 186.984375 169.175781 187.351562 170.332031 187.71875 171.492188 C 188.386719 173.589844 189.050781 175.6875 189.710938 177.785156 L 191.109375 182.214844 C 192.398438 186.292969 193.6875 190.375 194.949219 194.464844 C 195.113281 195.003906 195.28125 195.542969 195.449219 196.082031 C 197.113281 201.410156 197.113281 201.410156 197.144531 203.578125 C 196.421875 206.136719 195.269531 207.601562 193.390625 209.453125 L 192.613281 210.238281 C 192.070312 210.78125 191.523438 211.324219 190.976562 211.863281 C 190.144531 212.6875 189.320312 213.515625 188.5 214.351562 C 187.96875 214.882812 187.4375 215.410156 186.902344 215.941406 L 186.167969 216.6875 C 184.550781 218.265625 183.199219 219.054688 181.027344 219.691406 C 179.707031 219.835938 178.5625 219.667969 177.28125 219.316406 C 175.710938 218.609375 174.457031 217.792969 173.40625 216.410156 C 171.71875 213.957031 170.316406 211.339844 168.894531 208.730469 L 168.105469 207.289062 C 167.558594 206.296875 167.015625 205.300781 166.472656 204.304688 C 165.332031 202.222656 164.183594 200.144531 163.035156 198.0625 C 162.410156 196.933594 161.789062 195.804688 161.164062 194.675781 L 160.414062 193.316406 L 146.921875 168.859375 L 146.546875 168.179688 L 140.539062 157.292969 C 138.191406 153.023438 135.832031 148.757812 133.464844 144.5 C 132.992188 143.652344 132.523438 142.800781 132.050781 141.953125 C 130.972656 140.003906 129.886719 138.058594 128.773438 136.128906 L 128.179688 135.082031 C 127.816406 134.445312 127.449219 133.8125 127.078125 133.179688 L 126.601562 132.332031 L 126.179688 131.605469 C 125.933594 130.863281 125.933594 130.863281 126.015625 129.980469 C 126.367188 128.785156 126.835938 128.277344 127.714844 127.398438 L 128.628906 126.476562 L 129.640625 125.476562 C 129.996094 125.121094 130.347656 124.765625 130.699219 124.410156 C 131.660156 123.449219 132.621094 122.492188 133.585938 121.535156 C 134.59375 120.535156 135.597656 119.53125 136.601562 118.523438 C 138.289062 116.839844 139.976562 115.15625 141.667969 113.476562 C 143.625 111.53125 145.578125 109.582031 147.527344 107.632812 C 149.402344 105.757812 151.28125 103.882812 153.160156 102.011719 C 153.957031 101.214844 154.757812 100.414062 155.558594 99.617188 C 156.671875 98.503906 157.789062 97.394531 158.90625 96.285156 L 159.914062 95.273438 L 160.835938 94.363281 L 161.636719 93.566406 Z M 162.289062 93.011719 "/><path style=" stroke:none;fill-rule:nonzero;fill:#fda502;fill-opacity:1;" d="M 39.355469 129.691406 C 40.964844 130.457031 42.515625 131.328125 44.0625 132.214844 C 45.074219 132.792969 46.089844 133.367188 47.109375 133.9375 C 49.277344 135.152344 51.4375 136.378906 53.597656 137.613281 L 54.492188 138.121094 C 55.945312 138.949219 57.394531 139.777344 58.84375 140.609375 C 58.613281 141.914062 58.113281 142.699219 57.304688 143.742188 L 56.570312 144.695312 L 55.773438 145.714844 L 54.960938 146.773438 C 54.132812 147.84375 53.300781 148.914062 52.472656 149.980469 L 51.039062 151.828125 C 50.378906 152.675781 49.71875 153.523438 49.058594 154.371094 C 48.0625 155.640625 47.078125 156.917969 46.117188 158.214844 L 45.601562 158.90625 C 45.152344 159.515625 44.703125 160.125 44.257812 160.734375 C 43.476562 161.597656 43.476562 161.597656 42.761719 161.894531 L 41.976562 161.972656 C 41.324219 161.652344 41.324219 161.652344 40.660156 161.128906 L 39.902344 160.542969 C 39.636719 160.324219 39.371094 160.109375 39.097656 159.890625 L 38.246094 159.21875 C 36.011719 157.453125 33.816406 155.640625 31.625 153.816406 C 29.792969 152.296875 27.925781 150.832031 26.023438 149.394531 C 23.863281 147.761719 21.734375 146.089844 19.628906 144.382812 L 18.90625 143.792969 C 18.222656 143.234375 17.542969 142.671875 16.867188 142.109375 L 16.125 141.496094 L 15.40625 140.890625 L 14.757812 140.347656 C 14.242188 139.859375 14.242188 139.859375 13.867188 139.109375 C 13.621094 136.679688 13.621094 136.679688 14.167969 135.425781 C 15.835938 132.890625 18.402344 131.175781 21.058594 129.8125 C 26.871094 127.074219 33.460938 127.144531 39.355469 129.6875 "/><path style=" stroke:none;fill-rule:nonzero;fill:#fea500;fill-opacity:1;" d="M 82.832031 166.097656 L 83.957031 166.097656 L 84.644531 167.417969 C 86.238281 170.46875 87.851562 173.511719 89.53125 176.519531 L 89.988281 177.339844 C 90.664062 178.5625 91.347656 179.78125 92.035156 180.996094 C 92.648438 182.078125 93.257812 183.164062 93.863281 184.25 L 94.441406 185.257812 C 96.375 188.738281 97.277344 192.078125 97.226562 196.050781 C 97.128906 199.003906 96.433594 201.667969 94.984375 204.257812 C 93.683594 206.21875 92.238281 207.828125 90.328125 209.199219 L 89.683594 209.679688 C 88.527344 210.453125 87.632812 210.703125 86.25 210.839844 C 85.214844 210.632812 84.71875 210.332031 83.910156 209.640625 C 82.996094 208.65625 82.164062 207.632812 81.332031 206.574219 C 81.015625 206.183594 80.703125 205.789062 80.386719 205.394531 C 79.3125 204.050781 78.261719 202.6875 77.207031 201.328125 C 76.34375 200.210938 75.476562 199.09375 74.609375 197.976562 L 73.933594 197.109375 C 72.535156 195.308594 71.121094 193.523438 69.691406 191.746094 C 67.265625 188.738281 64.925781 185.664062 62.589844 182.585938 C 62.949219 181.757812 63.265625 181.160156 63.929688 180.535156 L 64.625 180.019531 L 65.40625 179.433594 L 66.246094 178.816406 L 68.003906 177.5 L 68.886719 176.839844 C 70.019531 175.984375 71.132812 175.105469 72.242188 174.226562 C 74.539062 172.417969 76.839844 170.621094 79.152344 168.835938 L 80.199219 168.019531 L 81.183594 167.261719 L 82.0625 166.582031 Z M 82.832031 166.097656 "/><path style=" stroke:none;fill-rule:nonzero;fill:#ea9a01;fill-opacity:1;" d="M 118.242188 58.351562 L 119.09375 58.503906 L 120.058594 58.667969 C 121.445312 58.996094 122.816406 59.371094 124.1875 59.769531 C 125.109375 60.007812 125.964844 60.136719 126.917969 60.214844 C 128.691406 60.367188 130.269531 60.902344 131.929688 61.527344 C 131.382812 62.785156 130.691406 63.605469 129.722656 64.574219 L 128.804688 65.496094 L 127.792969 66.5 L 126.726562 67.5625 C 125.765625 68.523438 124.804688 69.484375 123.839844 70.445312 C 122.832031 71.449219 121.824219 72.453125 120.820312 73.457031 C 118.914062 75.359375 117.007812 77.261719 115.101562 79.160156 C 112.929688 81.324219 110.761719 83.488281 108.589844 85.652344 C 104.128906 90.105469 99.664062 94.558594 95.199219 99.007812 C 93.394531 98.417969 91.847656 97.722656 90.210938 96.78125 L 89.492188 96.386719 C 88.878906 96.039062 88.289062 95.652344 87.703125 95.257812 L 87.328125 94.136719 C 86.632812 93.589844 86.632812 93.589844 85.804688 93.128906 L 84.972656 92.632812 L 84.328125 92.261719 C 86.246094 87.75 91.664062 83.746094 95.085938 80.328125 L 96.765625 78.648438 C 97.929688 77.484375 99.09375 76.324219 100.257812 75.160156 C 101.746094 73.671875 103.234375 72.1875 104.71875 70.699219 C 105.867188 69.546875 107.019531 68.394531 108.171875 67.242188 L 109.816406 65.597656 C 110.582031 64.832031 111.351562 64.066406 112.117188 63.300781 L 112.789062 62.625 C 116.8125 58.625 116.8125 58.625 118.242188 58.351562 "/><path style=" stroke:none;fill-rule:nonzero;fill:#ccd4d6;fill-opacity:1;" d="M 83.652344 27.066406 C 85.234375 27.597656 86.171875 28.660156 87.335938 29.824219 L 88.078125 30.558594 C 88.597656 31.074219 89.113281 31.589844 89.628906 32.109375 C 90.417969 32.898438 91.210938 33.675781 92.011719 34.457031 C 92.511719 34.957031 93.015625 35.460938 93.519531 35.960938 L 94.238281 36.664062 C 95.339844 37.785156 95.898438 38.488281 96.347656 40.023438 C 96.320312 41.417969 96.09375 42.078125 95.375 43.265625 L 94.757812 44.316406 L 94.097656 45.386719 L 93.441406 46.488281 C 92.910156 47.382812 92.371094 48.273438 91.824219 49.160156 L 90.535156 48.757812 C 82.472656 46.257812 74.410156 43.769531 66.339844 41.289062 L 66.339844 39.789062 C 66.902344 39.023438 66.902344 39.023438 67.699219 38.214844 L 68.585938 37.316406 L 69.550781 36.367188 L 70.527344 35.402344 C 73.175781 32.835938 75.886719 30.746094 79.082031 28.917969 L 80.195312 28.269531 C 82.453125 27.035156 82.453125 27.035156 83.652344 27.066406 M 184.496094 127.878906 C 186.054688 128.425781 187 129.488281 188.15625 130.644531 L 188.902344 131.382812 C 189.417969 131.894531 189.9375 132.410156 190.449219 132.929688 C 191.238281 133.71875 192.035156 134.496094 192.832031 135.277344 C 193.335938 135.777344 193.835938 136.28125 194.339844 136.785156 L 195.0625 137.484375 C 196.171875 138.621094 196.71875 139.300781 197.152344 140.863281 C 197.144531 142.105469 197.046875 142.691406 196.4375 143.75 L 195.941406 144.625 L 195.386719 145.527344 L 194.824219 146.476562 C 193.1875 149.132812 191.292969 151.382812 189.070312 153.5625 C 188.523438 154.109375 187.980469 154.660156 187.445312 155.21875 C 184.949219 157.792969 184.949219 157.792969 183.652344 158.226562 C 181.605469 152.160156 179.570312 146.089844 177.625 139.992188 C 177.457031 139.46875 177.289062 138.945312 177.121094 138.425781 C 176.882812 137.695312 176.648438 136.964844 176.417969 136.234375 L 176.015625 134.980469 C 175.78125 133.863281 175.78125 133.863281 175.84375 132.839844 C 176.15625 131.988281 176.15625 131.988281 176.765625 131.4375 L 177.546875 131 L 178.398438 130.511719 C 178.695312 130.351562 178.988281 130.1875 179.296875 130.023438 L 180.183594 129.515625 C 183.113281 127.859375 183.113281 127.859375 184.496094 127.878906 "/><path style=" stroke:none;fill-rule:nonzero;fill:#0058a6;fill-opacity:1;" d="M 181.777344 24.796875 C 185.632812 26.617188 188.765625 29.0625 191.898438 31.917969 L 192.652344 32.578125 C 195.972656 35.652344 198.917969 40.070312 200.519531 44.285156 C 200.742188 45.835938 200.628906 46.605469 200.097656 48.058594 C 198.375 50.753906 198.375 50.753906 197.144531 51.40625 C 195.910156 51.390625 195.910156 51.390625 194.519531 51.03125 C 193.625 50.472656 192.882812 49.945312 192.085938 49.277344 L 191.410156 48.726562 C 188.710938 46.5 186.167969 44.097656 183.652344 41.664062 L 183.082031 41.113281 C 174.550781 32.824219 174.550781 32.824219 173.15625 28.917969 C 173.195312 28.175781 173.195312 28.175781 173.53125 27.421875 C 174.253906 26.632812 174.253906 26.632812 175.148438 25.851562 L 176.035156 25.0625 C 177.929688 23.671875 179.644531 24.042969 181.777344 24.796875 "/><path style=" stroke:none;fill-rule:nonzero;fill:#ea9a01;fill-opacity:1;" d="M 48.347656 136.488281 C 49.613281 136.652344 50.613281 136.996094 51.722656 137.613281 L 51.722656 138.359375 L 52.519531 138.640625 C 53.753906 139.179688 54.769531 139.796875 55.84375 140.609375 C 56.34375 141.316406 56.34375 141.316406 56.59375 142.109375 C 56.246094 142.859375 56.246094 142.859375 55.679688 143.609375 C 55.109375 144.332031 55.109375 144.332031 54.722656 145.109375 L 54.945312 145.8125 L 55.09375 146.605469 C 54.714844 147.320312 54.714844 147.320312 54.117188 148.058594 L 53.453125 148.890625 L 52.730469 149.769531 L 51.277344 151.582031 L 50.546875 152.484375 C 49.558594 153.710938 48.601562 154.960938 47.644531 156.210938 L 46.734375 157.398438 L 46.101562 158.226562 L 44.601562 157.851562 L 43.851562 159.726562 C 42.515625 159.601562 41.691406 159.40625 40.558594 158.667969 L 39.496094 157.804688 C 37.574219 156.296875 35.617188 155.058594 33.46875 153.882812 L 32.609375 153.351562 L 32.234375 152.605469 C 34.03125 150.496094 35.910156 148.496094 37.875 146.539062 L 38.714844 145.695312 C 39.292969 145.117188 39.875 144.535156 40.457031 143.957031 C 41.351562 143.0625 42.242188 142.171875 43.132812 141.277344 L 44.832031 139.582031 L 45.640625 138.769531 L 46.386719 138.027344 L 47.042969 137.371094 C 47.597656 136.863281 47.597656 136.863281 48.347656 136.488281 "/><path style=" stroke:none;fill-rule:nonzero;fill:#ea9a02;fill-opacity:1;" d="M 74.164062 147.214844 C 75.335938 147.355469 75.335938 147.355469 76.390625 147.988281 C 77.207031 148.855469 77.207031 148.855469 77.558594 149.769531 C 77.589844 150.980469 77.394531 151.515625 76.835938 152.605469 C 76.015625 153.589844 75.117188 154.488281 74.210938 155.390625 C 73.941406 155.664062 73.671875 155.9375 73.390625 156.222656 C 72.5 157.125 71.601562 158.023438 70.703125 158.921875 L 68.835938 160.800781 C 67.527344 162.113281 66.222656 163.425781 64.910156 164.734375 C 63.234375 166.414062 61.5625 168.097656 59.894531 169.785156 C 58.613281 171.082031 57.324219 172.371094 56.03125 173.664062 C 55.414062 174.28125 54.796875 174.902344 54.183594 175.523438 C 53.324219 176.394531 52.460938 177.257812 51.589844 178.121094 L 50.824219 178.902344 C 49.632812 180.074219 48.945312 180.65625 47.300781 181.089844 C 46.101562 181.089844 46.101562 181.089844 45.046875 180.644531 C 44.226562 179.964844 44.226562 179.964844 43.710938 179.261719 C 43.476562 178.464844 43.476562 178.464844 43.574219 177.570312 C 43.882812 176.472656 44.253906 175.96875 45.023438 175.140625 L 45.742188 174.359375 C 46.847656 173.203125 47.960938 172.054688 49.09375 170.925781 L 49.84375 170.171875 C 50.652344 169.367188 51.457031 168.558594 52.265625 167.75 L 53.960938 166.054688 C 55.140625 164.875 56.320312 163.695312 57.5 162.519531 C 59.011719 161.007812 60.523438 159.496094 62.035156 157.980469 C 63.199219 156.816406 64.363281 155.652344 65.53125 154.488281 C 66.085938 153.929688 66.644531 153.371094 67.203125 152.8125 C 67.980469 152.035156 68.757812 151.257812 69.535156 150.484375 L 70.875 149.144531 L 71.433594 148.589844 C 72.328125 147.773438 72.957031 147.375 74.164062 147.214844 "/></g></svg>